<?xml version="1.0" encoding="utf-8"?>
<!-- Generator: Adobe Illustrator 22.1.0, SVG Export Plug-In . SVG Version: 6.00 Build 0)  -->
<svg version="1.1" id="Capa_1" xmlns="http://www.w3.org/2000/svg" xmlns:xlink="http://www.w3.org/1999/xlink" x="0px" y="0px"
	 viewBox="0 0 52 52" style="enable-background:new 0 0 52 52;" xml:space="preserve">
<path d="M26,2.6C13.1,2.6,2.6,13.1,2.6,26S13.1,49.4,26,49.4S49.4,38.9,49.4,26S38.9,2.6,26,2.6z M26,48.2
	c-12.3,0-22.2-10-22.2-22.2S13.7,3.8,26,3.8s22.2,10,22.2,22.2S38.3,48.2,26,48.2z M26,36.8c-0.5,0-0.9,0.4-0.9,0.9v1.8
	c0,0.5,0.4,0.9,0.9,0.9s0.9-0.4,0.9-0.9v-1.8C26.9,37.2,26.5,36.8,26,36.8z M26.1,11.6c0,0-0.1,0-0.1,0c-1.9,0-3.7,0.7-5.1,2.1
	c-1.4,1.4-2.1,3.2-2.1,5.1c0,0.5,0.4,0.9,0.9,0.9s0.9-0.4,0.9-0.9c0-1.5,0.6-2.8,1.6-3.8c1-1,2.4-1.6,3.9-1.6c2.8,0,5.3,2.5,5.3,5.3
	c0,1.9-0.9,3.6-2.5,4.6c-2.4,1.5-3.8,4.3-3.8,7.3v2.6c0,0.5,0.4,0.9,0.9,0.9s0.9-0.4,0.9-0.9v-2.6c0-2.4,1.1-4.6,3-5.8
	c2.1-1.4,3.3-3.7,3.3-6.2C33.1,14.8,30,11.7,26.1,11.6z"/>
</svg>
