<?xml version="1.0" encoding="utf-8"?>
<!-- Generator: Adobe Illustrator 19.2.1, SVG Export Plug-In . SVG Version: 6.00 Build 0)  -->
<svg version="1.1" xmlns="http://www.w3.org/2000/svg" xmlns:xlink="http://www.w3.org/1999/xlink" x="0px" y="0px"
	 viewBox="0 0 439.5 403.5" style="enable-background:new 0 0 439.5 403.5;" xml:space="preserve">
<style type="text/css">
	.st0{display:none;}
	.st1{display:inline;}
	.st2{fill:none;stroke:#0091D0;stroke-width:0.5;stroke-miterlimit:10;}
	.st3{display:none;fill:none;stroke:#0091D0;stroke-width:0.5;stroke-miterlimit:10;}
</style>

<g id="Layer_2">
	<path class="st2" d="M343.7,59.2c0.8,6.8,5.9,9.1,11.4,5l22.4-16.5c5.5-4.1,4.9-9.6-1.4-12.4l-25.5-11.2c-6.3-2.7-10.8,0.6-10,7.4
		L343.7,59.2z"/>
	<path class="st2" d="M337,105.5c-0.8-6.8-5.9-9.1-11.4-5L303.2,117c-5.5,4.1-4.9,9.6,1.4,12.4l25.5,11.2c6.3,2.7,10.8-0.6,10-7.4
		L337,105.5z"/>
	<path class="st2" d="M322,67.9c6.3,2.7,10.8-0.6,10-7.4l-3.1-27.7c-0.8-6.8-5.9-9.1-11.4-5l-22.4,16.5c-5.5,4.1-4.9,9.6,1.4,12.4
		L322,67.9z"/>
	<path class="st2" d="M358.8,96.9c-6.3-2.7-10.8,0.6-10,7.4l3.1,27.7c0.8,6.8,5.9,9.1,11.4,5l22.4-16.5c5.5-4.1,4.9-9.6-1.4-12.4
		L358.8,96.9z"/>
	<path class="st2" d="M318.6,91c5.5-4.1,4.9-9.6-1.4-12.4l-25.5-11.2c-6.3-2.7-10.8,0.6-10,7.4l3.1,27.7c0.8,6.8,5.9,9.1,11.4,5
		L318.6,91z"/>
	<path class="st2" d="M362.1,73.7c-5.5,4.1-4.9,9.6,1.4,12.4L389,97.2c6.3,2.7,10.8-0.6,10-7.4l-3.1-27.7c-0.8-6.8-5.9-9.1-11.4-5
		L362.1,73.7z"/>
	<path class="st2" d="M278.1,148.9c-0.8-6.8-5.9-9.1-11.4-5l-22.4,16.5c-5.5,4.1-4.9,9.6,1.4,12.4l25.5,11.2
		c6.3,2.7,10.8-0.6,10-7.4L278.1,148.9z"/>
	<path class="st2" d="M263.1,111.2c6.3,2.7,10.8-0.6,10-7.4L270,76.2c-0.8-6.8-5.9-9.1-11.4-5l-22.4,16.5c-5.5,4.1-4.9,9.6,1.4,12.4
		L263.1,111.2z"/>
	<path class="st2" d="M299.8,140.2c-6.3-2.7-10.8,0.6-10,7.4l3.1,27.7c0.8,6.8,5.9,9.1,11.4,5l22.4-16.5c5.5-4.1,4.9-9.6-1.4-12.4
		L299.8,140.2z"/>
	<path class="st2" d="M259.7,134.4c5.5-4.1,4.9-9.6-1.4-12.4l-25.5-11.2c-6.3-2.7-10.8,0.6-10,7.4l3.1,27.7c0.8,6.8,5.9,9.1,11.4,5
		L259.7,134.4z"/>
	<path class="st2" d="M219.1,192.2c-0.8-6.8-5.9-9.1-11.4-5l-22.4,16.5c-5.5,4.1-4.9,9.6,1.4,12.4l25.5,11.2
		c6.3,2.7,10.8-0.6,10-7.4L219.1,192.2z"/>
	<path class="st2" d="M204.1,154.5c6.3,2.7,10.8-0.6,10-7.4l-3.1-27.7c-0.8-6.8-5.9-9.1-11.4-5L177.3,131c-5.5,4.1-4.9,9.6,1.4,12.4
		L204.1,154.5z"/>
	<path class="st2" d="M240.9,183.5c-6.3-2.7-10.8,0.6-10,7.4l3.1,27.7c0.8,6.8,5.9,9.1,11.4,5l22.4-16.5c5.5-4.1,4.9-9.6-1.4-12.4
		L240.9,183.5z"/>
	<path class="st2" d="M200.8,177.7c5.5-4.1,4.9-9.6-1.4-12.4l-25.5-11.2c-6.3-2.7-10.8,0.6-10,7.4l3.1,27.7c0.8,6.8,5.9,9.1,11.4,5
		L200.8,177.7z"/>
	<path class="st2" d="M160.2,235.5c-0.8-6.8-5.9-9.1-11.4-5L126.4,247c-5.5,4.1-4.9,9.6,1.4,12.4l25.5,11.2c6.3,2.7,10.8-0.6,10-7.4
		L160.2,235.5z"/>
	<path class="st2" d="M145.2,197.8c6.3,2.7,10.8-0.6,10-7.4l-3.1-27.7c-0.8-6.8-5.9-9.1-11.4-5l-22.4,16.5
		c-5.5,4.1-4.9,9.6,1.4,12.4L145.2,197.8z"/>
	<path class="st2" d="M182,226.8c-6.3-2.7-10.8,0.6-10,7.4l3.1,27.7c0.8,6.8,5.9,9.1,11.4,5l22.4-16.5c5.5-4.1,4.9-9.6-1.4-12.4
		L182,226.8z"/>
	<path class="st2" d="M141.8,221c5.5-4.1,4.9-9.6-1.4-12.4L115,197.5c-6.3-2.7-10.8,0.6-10,7.4l3.1,27.7c0.8,6.8,5.9,9.1,11.4,5
		L141.8,221z"/>
	<path class="st2" d="M86.3,241.2c6.3,2.7,10.8-0.6,10-7.4l-3.1-27.7c-0.8-6.8-5.9-9.1-11.4-5l-22.4,16.5c-5.5,4.1-4.9,9.6,1.4,12.4
		L86.3,241.2z"/>
	<path class="st2" d="M286.1,221.6c-0.8-6.8-5.9-9.1-11.4-5L252.3,233c-5.5,4.1-4.9,9.6,1.4,12.4l25.5,11.2c6.3,2.7,10.8-0.6,10-7.4
		L286.1,221.6z"/>
	<path class="st2" d="M307.9,212.9c-6.3-2.7-10.8,0.6-10,7.4l3.1,27.7c0.8,6.8,5.9,9.1,11.4,5l22.4-16.5c5.5-4.1,4.9-9.6-1.4-12.4
		L307.9,212.9z"/>
	<path class="st2" d="M311.2,189.7c-5.5,4.1-4.9,9.6,1.4,12.4l25.5,11.2c6.3,2.7,10.8-0.6,10-7.4l-3.1-27.7c-0.8-6.8-5.9-9.1-11.4-5
		L311.2,189.7z"/>
	<path class="st2" d="M227.2,264.9c-0.8-6.8-5.9-9.1-11.4-5l-22.4,16.5c-5.5,4.1-4.9,9.6,1.4,12.4l25.5,11.2
		c6.3,2.7,10.8-0.6,10-7.4L227.2,264.9z"/>
	<path class="st2" d="M249,256.2c-6.3-2.7-10.8,0.6-10,7.4l3.1,27.7c0.8,6.8,5.9,9.1,11.4,5l22.4-16.5c5.5-4.1,4.9-9.6-1.4-12.4
		L249,256.2z"/>
	<path class="st2" d="M190,299.5c-6.3-2.7-10.8,0.6-10,7.4l3.1,27.7c0.8,6.8,5.9,9.1,11.4,5l22.4-16.5c5.5-4.1,4.9-9.6-1.4-12.4
		L190,299.5z"/>
	<path class="st2" d="M359.9,204.6c0.8,6.8,5.9,9.1,11.4,5l22.4-16.5c5.5-4.1,4.9-9.6-1.4-12.4l-25.5-11.2c-6.3-2.7-10.8,0.6-10,7.4
		L359.9,204.6z"/>
	<path class="st2" d="M353.1,250.9c-0.8-6.8-5.9-9.1-11.4-5l-22.4,16.5c-5.5,4.1-4.9,9.6,1.4,12.4l25.5,11.2
		c6.3,2.7,10.8-0.6,10-7.4L353.1,250.9z"/>
	<path class="st2" d="M374.9,242.3c-6.3-2.7-10.8,0.6-10,7.4l3.1,27.7c0.8,6.8,5.9,9.1,11.4,5l22.4-16.5c5.5-4.1,4.9-9.6-1.4-12.4
		L374.9,242.3z"/>
	<path class="st2" d="M378.2,219.1c-5.5,4.1-4.9,9.6,1.4,12.4l25.5,11.2c6.3,2.7,10.8-0.6,10-7.4l-3.1-27.7c-0.8-6.8-5.9-9.1-11.4-5
		L378.2,219.1z"/>
	<path class="st2" d="M294.2,294.3c-0.8-6.8-5.9-9.1-11.4-5l-22.4,16.5c-5.5,4.1-4.9,9.6,1.4,12.4l25.5,11.2
		c6.3,2.7,10.8-0.6,10-7.4L294.2,294.3z"/>
	<path class="st2" d="M315.9,285.6c-6.3-2.7-10.8,0.6-10,7.4l3.1,27.7c0.8,6.8,5.9,9.1,11.4,5l22.4-16.5c5.5-4.1,4.9-9.6-1.4-12.4
		L315.9,285.6z"/>
	<path class="st2" d="M235.3,337.6c-0.8-6.8-5.9-9.1-11.4-5l-22.4,16.5c-5.5,4.1-4.9,9.6,1.4,12.4l25.5,11.2
		c6.3,2.7,10.8-0.6,10-7.4L235.3,337.6z"/>
	<path class="st2" d="M257,328.9c-6.3-2.7-10.8,0.6-10,7.4l3.1,27.7c0.8,6.8,5.9,9.1,11.4,5l22.4-16.5c5.5-4.1,4.9-9.6-1.4-12.4
		L257,328.9z"/>
	<path class="st2" d="M100,159.8c0.8,6.8,5.9,9.1,11.4,5l22.4-16.5c5.5-4.1,4.9-9.6-1.4-12.4l-25.5-11.2c-6.3-2.7-10.8,0.6-10,7.4
		L100,159.8z"/>
	<path class="st2" d="M78.2,168.5c6.3,2.7,10.8-0.6,10-7.4l-3.1-27.7c-0.8-6.8-5.9-9.1-11.4-5l-22.4,16.5c-5.5,4.1-4.9,9.6,1.4,12.4
		L78.2,168.5z"/>
	<path class="st2" d="M74.8,191.7c5.5-4.1,4.9-9.6-1.4-12.4L48,168.1c-6.3-2.7-10.8,0.6-10,7.4l3.1,27.7c0.8,6.8,5.9,9.1,11.4,5
		L74.8,191.7z"/>
</g>
</svg>
