<?xml version="1.0" encoding="iso-8859-1"?>
<!-- Generator: Adobe Illustrator 19.0.0, SVG Export Plug-In . SVG Version: 6.00 Build 0)  -->
<svg version="1.1" id="Capa_1" xmlns="http://www.w3.org/2000/svg" xmlns:xlink="http://www.w3.org/1999/xlink" x="0px" y="0px"
	 viewBox="0 0 512 512" style="enable-background:new 0 0 512 512;" xml:space="preserve">
<g>
	<g>
		<path d="M445.027,41.929c-3.442-2.321-8.111-1.416-10.433,2.025c-2.322,3.441-1.415,8.112,2.025,10.433
			c37.79,25.507,60.352,67.917,60.352,113.445c0,58.444-37.61,110.596-92.345,129.387c-11.127-53.543-50.547-96.832-101.861-113.489
			c0.548-5.267,0.829-10.593,0.829-15.897c0-38.02-14.052-72.819-37.234-99.48c25.475-24.081,58.589-37.287,93.844-37.287
			c15.468,0,30.644,2.561,45.105,7.611c3.919,1.366,8.204-0.699,9.573-4.617c1.369-3.918-0.699-8.203-4.617-9.573
			c-16.057-5.607-32.9-8.451-50.06-8.451c-39.174,0-75.966,14.691-104.254,41.476c-27.203-25.696-63.869-41.476-104.153-41.476
			C68.095,16.035,0,84.131,0,167.832c0,33.412,10.646,65.106,30.786,91.658c18.707,24.661,44.96,43.295,74.245,52.788
			c-0.544,5.216-0.828,10.51-0.828,15.867c0,42.08,17.483,82.207,48.134,110.879l-15.686,47.058
			c-2.029,6.087,4.376,11.879,10.239,9.218l55.357-25.162c17.168,6.507,35.236,9.804,53.753,9.804
			c83.701,0,151.796-68.096,151.796-151.796c0-5.357-0.283-10.649-0.827-15.864c29.003-9.409,55.004-27.738,73.688-52.063
			C501.162,233.523,512,201.576,512,167.832C512,117.302,486.964,70.235,445.027,41.929z M15.029,167.832
			c0-75.414,61.354-136.767,136.767-136.767s136.767,61.354,136.767,136.767c0,3.979-0.193,7.967-0.535,11.928
			c-10.329-2.227-21.043-3.412-32.029-3.412c-73.107,0-134.305,51.95-148.626,120.872C52.716,278.437,15.029,226.06,15.029,167.832z
			 M256,464.912c-17.676,0-34.888-3.33-51.16-9.898c-1.908-0.768-4.048-0.723-5.923,0.127l-42.559,19.346l11.788-35.364
			c0.957-2.872,0.098-6.037-2.179-8.032c-29.7-25.997-46.734-63.519-46.734-102.946c0-75.414,61.354-136.767,136.767-136.767
			c75.414,0,136.767,61.353,136.767,136.767S331.414,464.912,256,464.912z"/>
	</g>
</g>
<g>
	<g>
		<path d="M392.266,108.215c-19.613,0-35.569,19.552-35.569,43.585s15.956,43.585,35.569,43.585c4.25,0,8.421-0.913,12.398-2.714
			c2.419-1.096,4.08-3.388,4.369-6.028c0.29-2.64-0.837-5.237-2.961-6.829l-4.087-3.065l5.41-7.214l5.544,4.157
			c1.887,1.415,4.324,1.862,6.591,1.208c2.265-0.652,4.092-2.331,4.936-4.532c2.235-5.837,3.37-12.086,3.37-18.568
			C427.836,127.767,411.879,108.215,392.266,108.215z M412.699,154.726l-2.297-1.723c-3.32-2.489-8.03-1.817-10.521,1.503
			l-14.427,19.238c-0.895,1.192-1.407,2.615-1.491,4.082c-7.136-4.53-12.237-14.627-12.237-26.025
			c0-15.478,9.406-28.556,20.54-28.556c11.134,0,20.54,13.078,20.54,28.556C412.806,152.785,412.77,153.76,412.699,154.726z"/>
	</g>
</g>
<g>
	<g>
		<path d="M461.701,191.478l-15.266-11.449c3.576-8.822,5.448-18.463,5.448-28.228c0-37.292-26.743-67.632-59.617-67.632
			c-32.873,0-59.616,30.339-59.616,67.632s26.743,67.632,59.616,67.632c10.497,0,20.636-3.08,29.637-8.957l16.353,12.264
			c3.274,2.456,8.066,1.768,10.521-1.503l14.427-19.238C465.694,198.679,465.02,193.968,461.701,191.478z M441.263,206.207
			l-14.772-11.079c-2.715-2.037-6.572-1.972-9.218,0.155c-7.417,5.966-16.065,9.12-25.006,9.12
			c-24.585,0-44.587-23.598-44.587-52.603s20.002-52.603,44.587-52.603c24.585,0,44.587,23.598,44.587,52.603
			c0,9.58-2.23,18.974-6.451,27.167c-1.678,3.258-0.76,7.252,2.172,9.452l14.096,10.573L441.263,206.207z"/>
	</g>
</g>
<g>
	<g>
		<path d="M179.851,92.184h-76.149c-10.773,0-19.538,8.765-19.538,19.538v104.203c0,4.151,3.365,7.515,7.515,7.515h24.047
			c4.15,0,7.515-3.364,7.515-7.515v-36.571h40.579c4.15,0,7.515-3.364,7.515-7.515v-24.047c0-4.151-3.365-7.515-7.515-7.515h-40.579
			v-9.018h56.611c4.15,0,7.515-3.364,7.515-7.515V99.699C187.366,95.548,184.001,92.184,179.851,92.184z M172.337,116.231h-56.611
			c-4.15,0-7.515,3.364-7.515,7.515v24.047c0,4.151,3.365,7.515,7.515,7.515h40.579v9.018h-40.579c-4.15,0-7.515,3.364-7.515,7.515
			v36.571h-9.018v-96.689c0-2.486,2.023-4.509,4.509-4.509h68.634V116.231z"/>
	</g>
</g>
<g>
	<g>
		<path d="M326.947,370.239l-53.471-106.941c-3.332-6.662-10.029-10.8-17.475-10.8c-7.449,0-14.145,4.139-17.475,10.8
			l-53.471,106.941c-1.833,3.664-0.297,8.254,3.361,10.083l21.508,10.754c3.663,1.832,8.253,0.297,10.082-3.361l12-24.001h47.99
			l12.001,24.001c1.83,3.657,6.417,5.191,10.083,3.361l21.508-10.754C327.297,378.465,328.802,373.952,326.947,370.239z
			 M302.078,374.273l-10.717-21.434c-1.273-2.545-3.875-4.154-6.721-4.154h-57.279c-2.847,0-5.449,1.608-6.721,4.154l-10.717,21.434
			l-8.066-4.032l16.778-33.556c0.098-0.195,0.187-0.396,0.268-0.598c0.113-0.185,0.219-0.376,0.318-0.572l32.747-65.494
			c0.77-1.538,2.315-2.493,4.033-2.493c1.719,0,3.264,0.955,4.033,2.493l32.747,65.494c0.099,0.196,0.205,0.389,0.319,0.574
			c0.08,0.201,0.168,0.4,0.267,0.595l16.778,33.557L302.078,374.273z"/>
	</g>
</g>
<g>
	<g>
		<path d="M279.338,328.792l-16.616-33.232c-1.273-2.546-3.875-4.154-6.721-4.154s-5.449,1.608-6.721,4.154l-16.615,33.232
			c-2.456,4.913,1.239,10.875,6.721,10.875h33.232C278.097,339.667,281.794,333.704,279.338,328.792z M251.543,324.638l4.457-8.913
			l4.457,8.913H251.543z"/>
	</g>
</g>
<g>
</g>
<g>
</g>
<g>
</g>
<g>
</g>
<g>
</g>
<g>
</g>
<g>
</g>
<g>
</g>
<g>
</g>
<g>
</g>
<g>
</g>
<g>
</g>
<g>
</g>
<g>
</g>
<g>
</g>
</svg>
