<?xml version="1.0" encoding="utf-8"?>
<!-- Generator: Adobe Illustrator 22.1.0, SVG Export Plug-In . SVG Version: 6.00 Build 0)  -->
<svg version="1.1" id="Layer_1" xmlns="http://www.w3.org/2000/svg" xmlns:xlink="http://www.w3.org/1999/xlink" x="0px" y="0px"
	 viewBox="0 0 347 347" style="enable-background:new 0 0 347 347;" xml:space="preserve">
<style type="text/css">
	.st0{fill:none;stroke:#7FB9E5;stroke-width:6;stroke-miterlimit:10;}
	.st1{fill:#7FB9E5;}
</style>
<circle class="st0" cx="172.9" cy="172.9" r="164.4"/>
<path class="st1" d="M285.6,235.5c1-2,0.8-3.2-0.6-3.4c-0.6-0.1-1.4,0.1-2,0.3c-3.7,1.1-7.4,2.1-11.3,1.6
	c-16.9-2.5-33.5-6.4-49.8-11.8c-0.6-0.2-1.2-0.5-1.8-0.7c0-0.2,0-0.5,0-0.7c1.4-0.2,2.9-0.7,4.2-0.5c4.2,0.7,8.4,1.7,12.6,2.4
	c13.1,2.3,26.2,4.3,39.6,4.3c0.6,0,1.4,0.2,1.9-0.1c0.6-0.3,1.4-1,1.4-1.6c0.1-0.5-0.7-1.2-1.3-1.5c-0.6-0.3-1.4-0.2-1.6-0.3
	c0.1-1.1,0.6-2.3,0.2-2.7c-0.5-0.5-1.7-0.5-2.6-0.5c-0.6,0-1.2,0.4-1.8,0.6c-3.4,1.3-6.9,2.4-10.6,1.9c-10.5-1.6-21.1-3.2-31.6-4.8
	c-0.4-0.1-0.8-0.3-1.5-0.5c0.7-0.4,1-0.6,1.4-0.9c11.3-6.1,21-14.2,29-24.2c3.1-3.9,6.7-6.8,11.2-8.9c2.8-1.3,5.4-3.1,8.1-4.8
	c0.7-0.5,1.3-1.2,1.8-1.9c0.7-1.1,0.3-2-1.1-2.1c-0.8,0-1.6,0.2-2.4,0.4c-1.3,0.4-2.6,0.9-3.8,1.3c0.4-0.7,0.9-1.1,1.5-1.5
	c1.9-1.5,3.9-2.9,5.7-4.6c1-0.9,2.6-2.1,1.5-3.6c-1.1-1.6-2.8-0.5-4,0.2c-2.7,1.6-5.3,3.3-8.1,5c0.2-0.7,0.5-1.3,0.5-1.9
	c0-0.9,0-2.1-0.5-2.5c-0.5-0.4-1.8-0.1-2.5,0.3c-1.5,0.9-2.9,1.9-4.2,3.1c-4.6,4.2-9.9,6.8-16.1,7.6c-6.2,0.8-12.3,1.4-18.5,2.1
	c-1.6,0.2-3.3,0-4.9,0c7.6-7.2,4.6-17.5-2.7-18.3c0.6-0.4,1.3-0.6,1.7-1c1.6-1.6,3.4-3,4.6-4.9c1.6-2.4,1.9-5.2,0.8-7.9
	c-1-2.6-2.9-3.9-6.1-3.7c0.6-0.9,1.1-1.3,1.3-1.8c1.2-2.5,2.6-5,3.3-7.7c0.9-3.4-1.8-7.2-5.1-8.3c-0.8-0.2-1.7-0.3-2.7-0.5
	c0.3-0.4,0.5-0.7,0.7-0.9c4.1-4.3,6.4-9.3,6.7-15.2c0.2-4.6-1.2-7.9-6.4-6.3c-0.1,0-0.2-0.1-0.2-0.1c0.6-1.9,1.5-3.8,1.8-5.7
	c1.1-6.3,0.4-12.4-1.9-18.3c-0.8-2.1-2.1-4.1-3.3-6.1c-0.3-0.4-1-0.5-1.6-0.8c-0.2,0.5-0.6,1.1-0.7,1.6c-0.4,2.3-0.6,4.6-1.2,6.8
	c-2.5,8.8-7.2,16.7-11.6,24.7c-2.6,4.7-5.7,9.3-7.4,14.4c-5.5,17-9.4,34.5-12.3,52.2c-0.9,5.7-1.6,11.4-2.4,17.1
	c-0.1-1.8,0-3.5,0.2-5.3c0.8-10.1,1.3-20.1,2.4-30.2c1.2-10.4,3.2-20.6,7-30.4c0.1-0.3,0.2-0.7,0.2-1.1c-0.4-5.9-1.6-11.7-3.9-17.2
	c-0.2-0.6-0.7-1-1.4-1.9c-0.3,1-0.4,1.6-0.5,2.1c-0.7,2.5-1.1,5.2-2.2,7.5c-1.7,3.8-3.7,7.4-5.7,11c-7.8,13.3-9.9,27.6-8.1,42.7
	c0.7,6.3,2.3,12.3,4.9,18.1c0.4,0.9,0.4,1.6-0.8,1.8c-4,0.7-8,1.9-12,2.1c-10.1,0.5-19.1-2.8-27.6-8.1c-6.6-4.1-11.8-9.5-16.1-16.1
	c-3.7-5.7-10.8-5.4-14.4,0.4c-1,1.7-2.1,1.8-3.7,1.6c-13.8-1.7-27.6-3.4-41.4-5.1c-1.5-0.2-2.9-0.3-4.4-0.4
	c3.5,1.4,7.1,2.4,10.6,3.4c1.3,0.3,1.8,0.9,1.7,2.4c-0.3,2.9-0.6,5.8-0.6,8.6c0.1,8.7,0.3,17.4,0.8,26.1c0.3,5.6,1.6,11.2,3.8,16.4
	c3.1,7.4,10,11.4,17.6,10c5.6-1.1,10.3-3.8,12.7-9.2c2.4-5.4,0.9-10.5-1.8-15.3c-6-10.8-13.6-20.4-21.4-29.8c-2-2.4-4-4.7-6.3-7.3
	c0.7,0.1,1,0.2,1.3,0.3c10.3,2.9,20.5,5.8,30.8,8.7c0.6,0.2,1.1,0.6,1.6,0.9c1.7,0.9,3.4,1.9,5.1,2.8c2.1,1.1,4.4,1.9,6.3,3.3
	c6.6,4.7,13.1,9.5,19.5,14.4c10.2,7.8,20.4,15.4,32,21c9,4.4,18.5,7.1,28.5,7.6c6.1,0.3,12.1-0.8,18.1-2.1c1.3-0.3,2.8-0.2,4,0.2
	c6.9,2,13.6,4.4,20.5,6.3c12.7,3.5,25.6,6.1,38.7,7.9c3.2,0.4,6.3,0.9,9.5,1.4c1.4,0,2.8,0,4.1,0c0-0.9,0-1.8,0-2.6
	C287.7,236.3,286.7,235.9,285.6,235.5z M88.1,224.3c-6.7,4-17.8-1.2-18.3-13.4C73.3,218.6,77.9,224.9,88.1,224.3z"/>
</svg>
