<?xml version="1.0" encoding="utf-8"?>
<!-- Generator: Adobe Illustrator 22.1.0, SVG Export Plug-In . SVG Version: 6.00 Build 0)  -->
<svg version="1.1" id="Layer_1" xmlns="http://www.w3.org/2000/svg" xmlns:xlink="http://www.w3.org/1999/xlink" x="0px" y="0px"
	 viewBox="0 0 347 252" style="enable-background:new 0 0 347 252;" xml:space="preserve">
<style type="text/css">
	.ms0{display:none;fill:none;stroke:#7FB9E5;stroke-width:6;stroke-miterlimit:10;}
</style>
<circle class="ms0" cx="172.9" cy="125.9" r="164.4"/>
<path d="M340.1,240.7c1.4-2.9,1.1-4.6-0.9-4.9c-0.9-0.1-2,0.2-2.9,0.5c-5.3,1.6-10.7,3.1-16.3,2.2c-24.4-3.7-48.3-9.2-71.7-17
	c-0.9-0.3-1.7-0.7-2.6-1c0-0.3,0-0.7,0-1c2-0.3,4.1-1,6.1-0.7c6.1,0.9,12.1,2.4,18.1,3.5c18.9,3.3,37.8,6.1,57,6.2
	c0.9,0,2,0.2,2.7-0.1c0.9-0.5,1.9-1.4,2.1-2.3c0.1-0.6-1-1.8-1.8-2.2c-0.8-0.5-2-0.4-2.4-0.4c0.1-1.5,0.8-3.3,0.2-3.9
	c-0.7-0.8-2.4-0.8-3.7-0.8c-0.8,0-1.7,0.6-2.5,0.9c-5,1.8-10,3.5-15.3,2.7c-15.2-2.2-30.4-4.6-45.5-7c-0.6-0.1-1.2-0.4-2.2-0.8
	c1-0.6,1.5-0.9,2-1.2c16.3-8.8,30.3-20.4,41.7-34.9c4.5-5.6,9.7-9.8,16.1-12.8c4.1-1.9,7.8-4.5,11.6-6.9c1-0.7,1.9-1.7,2.5-2.8
	c0.9-1.6,0.4-2.9-1.6-3c-1.1,0-2.3,0.3-3.4,0.6c-1.9,0.6-3.7,1.3-5.5,1.9c0.6-1,1.4-1.5,2.1-2.1c2.8-2.2,5.7-4.2,8.3-6.6
	c1.4-1.3,3.7-3.1,2.2-5.2c-1.6-2.4-4-0.7-5.8,0.3c-3.9,2.2-7.6,4.7-11.7,7.2c0.3-1,0.7-1.9,0.7-2.7c0-1.3,0-3.1-0.7-3.7
	c-0.7-0.6-2.6-0.2-3.7,0.4c-2.2,1.3-4.2,2.8-6.1,4.5c-6.6,6-14.3,9.9-23.2,11c-8.9,1.1-17.8,2.1-26.6,3c-2.4,0.2-4.7,0-7.1,0
	c11-10.4,6.6-25.2-3.9-26.4c0.9-0.6,1.8-0.9,2.4-1.5c2.3-2.3,4.9-4.4,6.6-7c2.3-3.4,2.7-7.5,1.2-11.5c-1.4-3.7-4.1-5.6-8.8-5.3
	c0.9-1.3,1.6-1.9,1.9-2.7c1.7-3.7,3.8-7.2,4.8-11.1c1.2-4.9-2.5-10.4-7.3-11.9c-1.2-0.4-2.4-0.4-3.8-0.7c0.5-0.6,0.7-1,1-1.3
	c5.9-6.1,9.2-13.4,9.6-21.9c0.3-6.7-1.8-11.4-9.2-9.1c-0.1,0-0.2-0.2-0.2-0.2c0.9-2.8,2.2-5.5,2.7-8.3c1.6-9,0.6-17.9-2.8-26.3
	c-1.2-3.1-3-5.9-4.7-8.8c-0.4-0.6-1.5-0.7-2.3-1.1c-0.3,0.8-0.9,1.5-1,2.3c-0.6,3.3-0.9,6.7-1.8,9.8c-3.6,12.7-10.4,24-16.7,35.5
	c-3.7,6.8-8.3,13.4-10.6,20.7c-7.9,24.6-13.6,49.7-17.7,75.2c-1.3,8.2-2.3,16.4-3.5,24.7c-0.1-2.5,0-5.1,0.2-7.6
	c1.1-14.5,1.8-29,3.5-43.5c1.7-14.9,4.6-29.7,10.1-43.7c0.2-0.5,0.4-1.1,0.3-1.6c-0.6-8.5-2.2-16.8-5.6-24.7c-0.3-0.8-1-1.4-2-2.7
	c-0.4,1.5-0.5,2.3-0.8,3c-1,3.6-1.6,7.4-3.1,10.8c-2.4,5.4-5.3,10.7-8.3,15.9c-11.2,19.1-14.2,39.8-11.6,61.5
	c1.1,9,3.3,17.8,7.1,26.1c0.6,1.3,0.6,2.3-1.1,2.6c-5.8,1-11.5,2.7-17.3,3c-14.5,0.8-27.6-4-39.7-11.6c-9.5-5.9-17-13.7-23.2-23.2
	c-5.4-8.2-15.6-7.8-20.8,0.6c-1.5,2.4-3.1,2.5-5.3,2.3c-19.9-2.5-39.8-5-59.7-7.4c-2.1-0.3-4.2-0.4-6.4-0.6c5.1,2,10.2,3.5,15.3,4.9
	c1.9,0.5,2.6,1.4,2.4,3.4c-0.5,4.1-0.9,8.3-0.9,12.4c0.2,12.6,0.4,25.1,1.1,37.6c0.5,8.1,2.3,16.1,5.5,23.7
	c4.5,10.7,14.4,16.5,25.4,14.4c8.1-1.5,14.8-5.4,18.3-13.3c3.4-7.8,1.3-15.1-2.6-22c-8.6-15.5-19.5-29.3-30.8-42.9
	c-2.8-3.4-5.8-6.7-9.1-10.5c1,0.2,1.5,0.2,1.9,0.4c14.8,4.1,29.6,8.3,44.4,12.5c0.8,0.2,1.6,0.8,2.4,1.3c2.4,1.4,4.8,2.8,7.3,4
	c3,1.6,6.4,2.7,9.1,4.7c9.5,6.8,18.9,13.7,28.1,20.8c14.7,11.2,29.4,22.3,46.2,30.3c13,6.3,26.7,10.3,41.1,11
	c8.8,0.4,17.5-1.1,26-3.1c1.8-0.4,4-0.3,5.8,0.2c9.9,2.9,19.6,6.4,29.5,9.1c18.3,5.1,36.9,8.8,55.8,11.3c4.6,0.6,9.1,1.3,13.6,2
	c2,0,4,0,6,0c0-1.3,0-2.5,0-3.8C343,241.9,341.5,241.3,340.1,240.7z M55.4,224.6c-9.7,5.8-25.6-1.7-26.4-19.3
	C34.1,216.4,40.8,225.4,55.4,224.6z"/>
</svg>
