<?xml version="1.0" encoding="utf-8"?>
<!-- Generator: Adobe Illustrator 22.1.0, SVG Export Plug-In . SVG Version: 6.00 Build 0)  -->
<svg version="1.1" id="Layer_1" xmlns="http://www.w3.org/2000/svg" xmlns:xlink="http://www.w3.org/1999/xlink" x="0px" y="0px"
	 viewBox="0 0 500 500" style="enable-background:new 0 0 500 500;" xml:space="preserve">
<g>
	<g>
		<path d="M421.9,66.1h-74.2c-2.2,0-4,1.8-4,4s1.8,4,4,4h70.2v390.5H86V74.1h66.3c2.2,0,4-1.8,4-4s-1.8-4-4-4H82c-2.2,0-4,1.8-4,4
			v398.5c0,2.2,1.8,4,4,4h339.9c2.2,0,4-1.8,4-4V70.1C425.9,67.9,424.1,66.1,421.9,66.1z"/>
	</g>
</g>
<g>
	<g>
		<path d="M427.7,46.6h-80.1c-2.2,0-4,1.8-4,4s1.8,4,4,4h80.1c14.5,0,25.4,11.7,25.4,27.2V464c0,15.7-11.1,28-25.4,28H76.1
			c-15.3,0-29.2-13.3-29.2-28V81.8c0-14.5,13.6-27.2,29.2-27.2h76.2c2.2,0,4-1.8,4-4s-1.8-4-4-4H76.1c-19.8,0-37.2,16.4-37.2,35.2
			V464c0,19.2,17.4,36,37.2,36h351.7c18.7,0,33.4-15.8,33.4-36V81.8C461.1,61.7,446.7,46.6,427.7,46.6z"/>
	</g>
</g>
<g>
	<g>
		<path d="M251.9,15.1c-8.7,0-15.7,7.1-15.7,15.7c0,8.7,7.1,15.7,15.7,15.7c8.7,0,15.7-7.1,15.7-15.7
			C267.6,22.1,260.6,15.1,251.9,15.1z M251.9,38.5c-4.3,0-7.7-3.5-7.7-7.7s3.5-7.7,7.7-7.7c4.3,0,7.7,3.5,7.7,7.7
			S256.2,38.5,251.9,38.5z"/>
	</g>
</g>
<g>
	<g>
		<path d="M318,19.2h-37.3C276.1,7.4,265.1,0,251.9,0c-13.2,0-24.2,7.5-28.9,19.2h-37.7c-20.1,0-37,16-37,34.9v31.6c0,2.2,1.8,4,4,4
			h195.4c2.2,0,4-1.8,4-4V54.1C351.7,34.2,337.2,19.2,318,19.2z M156.3,81.7V54.1c0-14.3,13.6-26.9,29-26.9h40.6
			c1.8,0,3.3-1.2,3.8-2.9C232.6,14.4,241.3,8,251.9,8c10.6,0,19.3,6.4,22.2,16.3c0.5,1.7,2.1,2.9,3.8,2.9H318
			c14.6,0,25.7,11.5,25.7,26.9v27.6H156.3z"/>
	</g>
</g>
<g>
	<polygon points="313,330.8 313,330.8 313,330.8 397.5,268.5 373.5,261.6 387.4,209.7 335.5,223.4 328.6,199.4 288.8,253
		302.8,159.3 279.2,172.3 250,122 220.8,172.3 197.2,159.3 211.1,253 171.4,199.4 164.5,223.4 112.6,209.7 126.5,261.6 102.5,268.5
		187,330.8 173,364.3 248.9,355.7 247.5,432 256.8,432 255.5,356.2 327,364.3 	"/>
</g>
</svg>
