<!--  viewBox="0 0 560 560"  -->

<svg viewBox="0 0 2124 1263" version="1.1" id="canada">
  <style>

    $blue: #0055af;

    .usMap {
      padding: 2%;
    }

    svg {
      margin: auto;
      max-height: 100vh;
      max-width: 100%;
    }
    // #usa{
    //   margin-top: -300px;
    .state {
      fill: $blue;
      stroke: white;

      &:hover {
        fill: darken($blue, 10);
      }
    }
    // }


    /* MAP */
    svg#canada {
      max-width: 600px;
      width: 100%;
      display: block;
      margin: 0 auto;
      // margin-top: 100px;
    }


    g#standalone path {
      fill: #909090;
      stroke: #eeeeee;
      stroke-width: 10;
      stroke-linecap: butt;
      stroke-linejoin: miter;
      stroke-miterlimit: 10;
      stroke-dasharray: none;
      stroke-opacity: 1; }

    g#standalone path:hover {
      fill: #2badd9; }

    g#british-columbia path, g#nova-scotia path, g#quebec path {
      fill: #909090;
      stroke: #eeeeee;
      stroke-width: 10;
      stroke-linecap: butt;
      stroke-linejoin: miter;
      stroke-miterlimit: 10;
      stroke-dasharray: none;
      stroke-opacity: 1; }

    g#british-columbia:hover path, g#nova-scotia:hover path, g#quebec:hover path {
      fill: #2badd9; }

    g#nt-nu path, g#newfoundland path, g#standalone path#prince-edward, g#standalone path#yukon {
      fill: #666;
      stroke: #eeeeee;
      stroke-width: 10;
      stroke-linecap: butt;
      stroke-linejoin: miter;
      stroke-miterlimit: 10;
      stroke-dasharray: none;
      stroke-opacity: 1; }



    /* -------------------------------------------------------------
    													QTIP
    	-------------------------------------------------------------*/
    area {
      cursor: pointer; }

    .qtip {
      position: absolute;
      left: -28000px;
      top: -28000px;
      display: none;
      max-width: 180px;
      min-width: 50px;
      font-size: 14px;
      line-height: 17px;
      direction: ltr;
      box-shadow: none;
      padding: 0; }

    .qtip-content {
      position: relative;
      padding: 5px 9px;
      overflow: hidden;
      text-align: center;
      word-wrap: break-word; }

    .qtip-titlebar {
      position: relative;
      padding: 5px 35px 5px 10px;
      overflow: hidden;
      border-width: 0 0 1px;
      font-weight: bold; }

    .qtip-titlebar + .qtip-content {
      border-top-width: 0 !important; }

    /* Default close button class */
    .qtip-close {
      position: absolute;
      right: -9px;
      top: -9px;
      cursor: pointer;
      outline: medium none;
      border-width: 0px;
      border-style: solid;
      border-color: transparent; }

    .qtip-titlebar .qtip-close {
      right: 4px;
      top: 50%;
      margin-top: -9px; }

    * html .qtip-titlebar .qtip-close {
      top: 16px; }

    /* IE fix */
    .qtip-titlebar .ui-icon,
    .qtip-icon .ui-icon {
      display: block;
      text-indent: -1000em;
      direction: ltr; }

    .qtip-icon, .qtip-icon .ui-icon {
      -moz-border-radius: 0px;
      -webkit-border-radius: 0px;
      border-radius: 0px;
      text-decoration: none; }

    .qtip-icon .ui-icon {
      width: 18px;
      height: 14px;
      line-height: 14px;
      text-align: center;
      text-indent: 0;
      font: normal bold 10px/13px Tahoma,sans-serif;
      color: inherit;
      background: transparent none no-repeat -100em -100em; }

    /* Applied to 'focused' tooltips e.g. most recently displayed/interacted with */
    /* Applied on hover of tooltips i.e. added/removed on mouseenter/mouseleave respectively */
    /* Default tooltip style */
    .qtip-default {
      border-width: 1px;
      border-style: solid;
      border-color: #2e348c;
      background-color: #2e348c;
      color: #ffffff;
      -moz-border-radius: 0px;
      -webkit-border-radius: 0px;
      border-radius: 0px;
      padding: 5px; }

    /* IE9 fix - removes all filters */
    .qtip:not(.ie9haxors) div.qtip-content,
    .qtip:not(.ie9haxors) div.qtip-titlebar {
      filter: none;
      -ms-filter: none; }

    .qtip .qtip-tip {
      margin: 0 auto;
      overflow: hidden;
      z-index: 10; }

    /* Opera bug #357 - Incorrect tip position
    https://github.com/Craga89/qTip2/issues/367 */
    x:-o-prefocus, .qtip .qtip-tip {
      visibility: hidden; }

    .qtip .qtip-tip,
    .qtip .qtip-tip .qtip-vml,
    .qtip .qtip-tip canvas {
      position: absolute;
      color: #123456;
      background: transparent;
      border: 0 dashed transparent; }

    .qtip .qtip-tip canvas {
      top: 0;
      left: 0; }

    .qtip .qtip-tip .qtip-vml {
      behavior: url(#default#VML);
      display: inline-block;
      visibility: visible; }

    #qtip-overlay {
      position: fixed;
      left: 0;
      top: 0;
      width: 100%;
      height: 100%; }

    /* Applied to modals with show.modal.blur set to true */
    #qtip-overlay.blurs {
      cursor: pointer; }

    /* Change opacity of overlay here */
    #qtip-overlay div {
      position: absolute;
      left: 0;
      top: 0;
      width: 100%;
      height: 100%;
      background-color: black;
      opacity: 0.7;
      filter: alpha(opacity=70);
      -ms-filter: "progid:DXImageTransform.Microsoft.Alpha(Opacity=70)"; }

    .qtipmodal-ie6fix {
      position: absolute !important; }
</style>
            <g transform="matrix(1.25,0,0,-1.25,0,393.025)" id="british-columbia" data-tooltip="<span>British Columbia</span><br><span style='color:#2badd9;'>College of Registered Nurses of British Columbia</span>" data-hasqtip="2" aria-describedby="qtip-2">
            <g transform="scale(0.1,0.1)" id="british-columbia2">
              <path id="path24" d="m 42.3711,1773.25 7.4727,-22.47 7.4765,-14.99 -7.4765,-14.98 -7.4727,-7.5 -7.4727,-14.98 7.4727,-29.98 -7.4727,-7.49 -14.9531,0 0,7.49 L 5,1698.33 l 0,52.45 14.9453,7.49 7.4766,29.97 0,37.46 7.4765,14.99 14.9454,22.47 7.4765,0 7.4727,-14.98 7.4726,-7.49 0,-14.99 22.4258,0 7.4726,-14.98 -7.4726,-7.5 -14.9492,-7.49 -7.4766,-7.49 -14.9453,-14.99 -14.9492,0 z"></path>
              <path id="path28" d="m 229.223,1121.39 0,22.48 14.953,22.48 -14.953,44.95 -7.469,14.99 -14.953,22.48 0,37.47 -14.946,52.45 -14.953,14.98 -7.468,7.49 -29.899,29.97 -7.473,37.46 -14.949,22.48 -14.949,14.99 -29.8984,0 -7.4726,-14.99 7.4726,-22.48 14.9532,-14.98 7.4726,-7.49 -14.9492,-14.99 0,-22.48 7.4766,-7.49 14.9452,-7.49 14.949,0 0,-52.45 14.949,-22.47 0,-15 7.473,-7.49 7.477,-7.49 0,-22.48 7.468,-14.99 14.954,0 7.468,-22.47 7.477,-14.99 0,-52.45 7.476,0 29.899,-14.98 7.469,14.98 z"></path>
              <path id="path32" d="m 774.84,904.109 -97.164,37.469 -127.063,52.442 -119.59,59.94 -97.16,52.45 -52.32,37.46 0,37.46 14.949,7.5 -14.949,7.49 0,14.98 -22.422,0 0,7.5 -29.898,44.95 0,22.49 14.953,14.98 0,37.47 -14.953,0 -7.469,-22.48 -14.953,7.49 0,14.99 -14.946,22.47 -7.476,14.99 -14.945,14.98 -22.422,37.46 -7.477,22.48 -7.473,14.99 0,14.98 7.473,7.49 29.899,0 0,14.99 7.468,29.97 7.477,7.49 37.375,0 0,29.97 -14.953,7.5 -22.422,-7.5 -7.477,22.48 -7.468,14.99 0,22.47 7.468,14.99 7.477,14.98 0,14.99 7.476,7.49 14.946,14.99 14.953,14.98 0,7.5 -14.953,14.98 -14.946,-22.48 -14.953,0 0,37.47 7.477,22.47 0,29.97 -7.477,22.48 0,14.99 14.953,0 14.946,7.49 14.953,14.98 7.469,14.99 29.898,14.98 0,97.41 -14.945,14.98 -14.953,0 -7.469,22.48 7.469,14.99 14.953,14.98 14.945,22.48 0,52.45 22.422,37.46 0,89.91 -14.945,37.46 0,14.99 14.945,14.99 -14.945,22.48 -7.477,14.98 -37.367,0 -29.899,-14.98 -22.421,0 -29.899,-14.99 -7.473,14.99 7.473,14.98 7.477,22.48 7.468,29.97 14.954,22.48 7.468,37.46 134.539,-127.37 149.481,-104.9 149.484,-97.4 119.59,-67.44 82.215,-52.45 82.215,-37.46 -261.594,-502.01 0,-52.44 14.945,-29.97 22.422,-29.97 0,-22.48 -14.945,-14.98 0,-22.48 7.473,-7.5 22.425,-7.49 7.469,-22.47 0,-44.97 7.477,-14.98 22.422,-7.5 7.476,-14.98 7.469,-7.49 0,-67.44 7.476,-22.47 14.954,-7.5 7.468,-7.49 7.477,-14.98 7.472,-22.48 0,-14.99 -7.472,-14.98 -14.945,-7.49 0,-14.99 -7.477,-14.981 7.477,-14.988 7.468,0 0,-44.949 7.477,-14.993 z"></path>
            </g>
            </g>
            <g transform="matrix(1.25,0,0,-1.25,0,393.025)" id="nova-scotia" data-tooltip="<span>Nova Scotia</span><br><span style='color:#2badd9;'>College of Registered Nurses of Nova Scotia</span>" data-hasqtip="0">
            <g transform="scale(0.1,0.1)" id="nova-scotia2">
              <path id="path52" d="m 4085.89,754.25 0,67.441 -29.89,0 0,-29.972 -7.48,-29.969 -14.94,-14.988 0,-22.481 7.47,-22.472 14.95,-14.989 29.89,7.489 7.47,0 14.96,14.992 14.95,14.98 0,44.957 -29.91,-14.988 -7.47,0 z"></path>
              <path id="path56" d="m 3861.67,619.391 0,-14.981 7.48,-7.5 14.94,0 22.42,7.5 7.48,7.488 7.47,-14.988 -7.47,-14.98 -22.42,-7.489 7.47,-14.992 -7.47,-7.488 -22.42,7.488 -22.43,-7.488 -7.48,-14.992 -14.94,-29.969 -22.42,-22.469 -14.95,-14.992 -7.48,-22.48 7.48,-37.469 7.47,-7.488 29.9,0 14.94,-14.981 7.48,0 14.95,7.488 0,14.981 14.95,15 7.47,14.98 14.95,29.969 0,22.481 14.95,22.48 29.89,0 7.48,22.469 7.47,14.992 29.9,7.488 22.42,22.481 29.9,37.461 29.89,22.48 14.95,14.981 0,7.5 -14.95,14.98 -22.42,0 -22.42,-14.98 -37.37,-7.5 -29.9,0 -22.42,-14.981 -14.95,0 -7.47,7.488 -14.95,0 -14.95,-7.488 0,-7.492 -14.94,0 -7.48,-14.988 0,0 z"></path>
            </g>
            </g>
            <g transform="matrix(1.25,0,0,-1.25,0,393.025)" id="standalone">
            <g transform="scale(0.1,0.1)" id="standalone">
              <path id="yukon" d="m 176.902,2477.56 7.477,29.97 0,37.47 -67.266,0 0,22.47 -7.472,0 612.879,569.44 37.375,-44.96 29.89,-7.49 7.477,-14.98 29.894,-37.47 7.477,-14.98 -7.477,-7.49 -7.472,-14.99 -14.95,-14.98 -14.949,-14.99 -22.422,-37.47 -29.898,-14.98 -7.469,-22.48 7.469,-14.98 7.476,-7.49 22.422,-14.99 7.477,0 0,-14.98 -7.477,-7.5 0,-29.97 -7.468,-14.98 -22.43,-7.49 -7.469,0 -7.476,-14.99 0,-14.98 29.898,0 -7.477,-22.48 -7.476,-14.99 -14.945,-14.99 -7.477,0 -14.945,-7.48 -7.477,0 -7.469,-14.99 -7.476,-14.99 0,0 7.476,-7.49 0,0 -7.476,-44.95 7.476,0 7.469,-7.5 14.953,-14.98 0,-14.99 7.469,0 0,-22.47 -14.945,-37.47 0,-14.99 -22.422,0 -7.477,-22.47 0,-14.99 7.477,-14.98 0,-14.99 -14.949,-22.48 -7.473,0 -7.477,-14.98 0,-37.46 22.422,0 0,-22.48 7.477,-52.45 7.476,0 -7.476,-14.99 -7.477,-22.47 0,-29.97 22.422,0 7.477,-7.5 7.476,-14.98 22.422,0 14.945,-14.99 14.954,0 0,-14.98 -7.477,-22.48 0,-14.98 -14.953,-7.5 -7.469,-29.97 -119.59,67.44 -149.484,97.4 -149.481,104.9 -134.539,127.37 z"></path>

              <path data-tooltip="<span>Alberta</span><br><span style='color:#2badd9;'>College and Association of Registered Nurses of Alberta</span>" id="alberta" d="m 894.426,1990.54 -261.594,-502.01 0,-52.44 14.945,-29.97 22.422,-29.97 0,-22.48 -14.945,-14.98 0,-22.48 7.473,-7.5 22.425,-7.49 7.469,-22.47 0,-44.97 7.477,-14.98 22.422,-7.5 7.476,-14.98 7.469,-7.49 0,-67.44 7.476,-22.47 14.954,-7.5 7.468,-7.49 7.477,-14.98 7.472,-22.48 0,-14.99 -7.472,-14.98 -14.945,-7.49 0,-14.99 -7.477,-14.981 7.477,-14.988 7.468,0 0,-44.949 7.477,-14.993 37.371,-14.98 149.484,-44.957 52.315,-14.992 298.97,996.52 -164.44,52.45 -127.06,52.45 -127.054,59.94 z" data-hasqtip="3" aria-describedby="qtip-3"></path>

              <path data-tooltip="<span>Saskatchewan</span><br><span style='color:#2badd9;'>Saskatchewan Registered Nurses' Association</span>" id="saskatchewan" d="m 1312.98,1825.7 -298.97,-996.52 112.11,-29.969 164.44,-44.961 179.38,-37.461 52.32,-7.488 164.42,1011.509 -127.06,29.97 -119.58,37.46 -127.06,37.46 z" data-hasqtip="4" aria-describedby="qtip-4"></path>

              <path data-tooltip="<span>Manitoba</span><br><span style='color:#2badd9;'>College of Registered Nurses of Manitoba </span>" id="manitoba" d="m 1686.68,1720.81 -164.42,-1011.509 127.06,-22.481 186.85,-22.468 59.79,-7.5 7.48,0 -7.48,22.48 7.48,14.977 29.89,307.211 82.22,67.43 276.54,292.21 -22.42,14.99 -29.89,14.98 -29.9,7.49 -14.95,-7.49 -37.37,-14.98 -59.8,-14.99 -29.89,-7.49 -22.43,-7.49 0,7.49 7.48,7.49 14.95,7.49 22.42,0 22.42,22.48 7.48,7.49 -7.48,29.97 -7.47,37.47 0,29.97 -7.48,37.46 -7.47,22.48 -44.85,0 -14.94,14.98 -7.48,7.5 -7.47,-7.5 -7.47,7.5 -7.48,14.98 7.48,22.48 7.47,29.97 7.47,14.98 0,14.99 -89.69,7.49 -119.58,14.99 -127.07,22.48 z" data-hasqtip="5" aria-describedby="qtip-5"></path>

              <path id="ontario" data-tooltip="<span>Ontario</span><br><span style='color:#2badd9;'>College of Nurses of Ontario (CNO exam)</span>" d="m 2837.71,866.648 -14.95,7.493 -14.95,0 -14.94,-7.493 -14.95,7.493 0,14.988 -7.48,29.973 -14.95,22.476 -22.42,0 -7.48,22.473 -7.47,22.48 -14.95,7.489 -22.42,14.99 -7.47,22.47 7.47,29.97 -7.47,14.99 -7.47,22.48 -7.48,29.97 -7.48,29.97 7.48,29.97 7.48,29.97 0,7.49 -22.43,0 -29.9,-7.49 -37.37,7.49 -22.42,0 -22.43,-14.99 -7.47,0 -29.9,7.5 -7.47,14.98 -7.47,22.48 -22.42,7.49 -44.85,7.5 -29.9,29.97 -7.47,0 -7.47,37.47 -7.48,14.98 -22.42,7.49 -44.85,0 -276.54,-292.21 -82.22,-67.43 -29.89,-307.211 14.94,-7.489 7.48,-37.461 7.47,-7.488 44.85,-14.992 44.84,-14.981 37.38,-22.476 29.89,-14.981 14.95,-22.48 37.37,0 29.9,22.48 14.95,7.489 59.79,-29.969 14.94,0 14.95,14.98 7.48,7.5 29.9,7.489 7.47,14.98 7.48,22.481 7.47,14.988 22.42,7.492 29.9,-14.992 44.85,-7.488 22.42,-14.981 14.94,-22.48 7.48,-22.481 14.94,-7.488 29.9,-14.992 7.47,-7.489 7.49,-14.98 14.94,-7.5 0,-67.43 7.48,-29.98 7.47,-7.488 29.89,-7.493 7.48,-7.488 14.95,-7.5 37.37,14.988 29.9,-7.488 22.42,-7.5 37.37,7.5 22.42,-7.5 7.48,-7.492 14.95,-7.488 14.94,7.488 22.42,0 14.95,-7.488 0,-7.5 7.48,-22.469 7.47,-29.973 22.42,-22.48 0,-29.969 -22.42,-7.488 -14.95,7.488 -7.47,14.988 -22.42,14.981 -29.9,22.48 0,-7.488 7.48,-7.5 7.47,-14.981 0,-22.48 -14.95,-29.969 -7.47,-29.972 7.47,-37.457 -7.47,-22.481 -22.43,-7.492 -7.47,-22.481 -14.95,-37.4566 7.47,-14.9805 -7.47,-14.9921 -29.9,0 0,-22.4805 7.48,-7.4883 7.47,0 22.42,7.4883 37.38,22.4805 14.95,22.4804 22.42,22.4727 44.84,0 22.42,7.5 22.43,22.4691 14.95,0 22.42,7.5 14.94,7.488 7.48,7.492 0,14.988 -59.79,0 0,7.493 7.47,22.48 29.9,22.469 29.89,14.988 29.9,7.492 29.9,-7.492 37.37,7.492 22.42,14.989 22.42,7.492 22.42,37.457 29.9,44.961 37.37,29.961 22.42,14.988 37.38,29.973 -7.48,0 -29.9,7.488 -22.42,0 -29.89,-14.981 -14.95,-7.488 -67.27,0 -89.69,37.469 -29.9,0 -44.84,37.461 -29.9,22.48 -7.48,22.469 -37.36,344.672 -14.95,14.976 z" data-hasqtip="6" aria-describedby="qtip-6"></path>

              <path id="prince-edward" d="m 3854.19,679.332 0,7.488 -7.47,22.481 0,22.48 14.95,0 0,-22.48 52.32,0 14.95,7.488 14.94,14.992 14.95,14.981 14.95,0 7.47,-7.492 0,-7.489 -7.47,-22.48 -7.48,-14.992 14.95,-7.489 0,-7.488 -59.79,0 -22.42,-7.492 -22.42,7.492 -22.43,0 z"></path>

              <path data-tooltip="<span>New Brunswick</span><br><span style='color:#2badd9;'>Nurses Association of New Brunswick  </span>" id="new-brunswick" d="m 3532.81,664.352 14.94,-22.481 7.48,0 29.89,7.488 7.48,14.993 7.47,7.488 14.95,0 7.48,-7.488 0,-37.473 22.42,-74.918 7.47,-14.992 29.9,0 7.47,-7.489 0,-22.48 22.42,-7.488 0,-7.492 14.95,0 0,14.98 22.43,7.5 22.42,7.488 22.42,29.973 29.9,14.98 14.94,14.989 7.48,29.968 0,14.981 14.95,-7.488 0,0 7.48,14.988 14.94,7.492 0,0 -7.47,7.488 14.95,14.993 -14.95,0 -29.9,-7.5 -29.9,29.968 0,29.969 -7.47,7.492 -29.9,0 0,14.989 7.48,22.48 -7.48,7.488 -7.47,7.492 -14.95,0 -7.47,-14.98 -14.96,0 -14.94,7.488 -37.37,0 -22.42,-7.488 -7.48,0 -7.47,-7.5 -14.95,-7.488 -22.43,0 -14.94,7.488 -7.48,-7.488 -7.47,-7.492 -7.47,-14.989 0,-29.972 -7.48,-14.977 -14.95,-7.492 -14.94,-7.488 z" data-hasqtip="1"></path>
            </g>
            </g>
            <g transform="matrix(1.25,0,0,-1.25,0,393.025)" id="newfoundland">
            <g transform="scale(0.1,0.1)" id="newfoundland2">
              <path id="path60" d="m 4235.38,1211.3 0,-37.46 22.42,7.49 14.95,-14.98 14.95,-7.49 37.36,22.47 14.95,29.97 14.96,7.5 22.42,0 7.47,-7.5 -7.47,-37.46 0,-22.48 7.47,-14.98 14.95,0 7.47,14.98 14.95,22.48 7.47,22.48 14.95,-7.49 0,-52.45 -14.95,-7.49 0,-29.97 22.42,-7.5 0,37.47 7.48,7.49 7.48,-7.49 0,-37.47 7.47,-22.47 14.95,22.47 14.95,0 7.47,-7.49 -7.47,-29.97 0,-44.95 -14.95,-14.99 -7.47,0 -7.48,14.99 -7.47,-7.49 -14.96,-7.5 -14.94,0 -7.48,22.48 7.48,22.48 0,22.47 -7.48,7.5 -7.47,7.49 0,-14.99 -14.95,-22.47 -7.47,-22.48 -14.95,-14.98 0,-22.481 -7.47,-22.48 -7.48,-14.981 -29.9,0 0,14.981 14.96,22.48 14.94,29.971 0,22.47 -14.94,0 -14.96,-14.98 -7.47,-22.48 -7.48,0 -14.94,7.5 -7.48,0 -7.47,-14.989 -22.42,-7.492 -74.75,-29.969 -22.42,-7.492 -29.89,-29.969 -22.42,-7.5 -14.95,0 -14.96,7.5 14.96,29.969 14.95,37.461 0,7.492 22.42,7.489 -14.95,7.5 -7.47,7.49 -14.95,-14.99 -14.96,0 -7.47,7.5 0,14.98 7.47,0 14.96,22.48 14.95,14.98 7.47,22.48 -7.47,14.98 0,44.96 -14.95,44.95 14.95,37.47 -14.95,29.97 14.95,37.47 0,29.97 37.37,29.97 14.94,7.49 7.48,0 0,-29.97 -22.42,-22.48 0,-29.97 14.94,-22.48 0,-82.42 7.48,-7.49 14.94,7.49 0,22.48 22.42,22.47 14.96,0 z"></path>
              <path id="path64" d="m 4085.89,1301.22 22.43,0 0,7.49 14.95,29.98 22.42,22.47 0,29.97 -22.42,22.48 -14.95,22.48 -14.96,44.95 -7.47,7.49 -14.95,7.5 -37.36,0 -14.95,7.49 -29.9,14.98 -29.9,0 -7.47,-14.98 -14.95,-22.48 -7.47,-37.46 -22.43,-14.99 -7.47,-14.98 -7.47,-22.48 -7.48,-22.48 -22.42,0 0,22.48 7.48,37.46 22.42,22.48 22.42,29.97 14.95,37.46 14.94,7.5 14.95,14.98 0,14.99 -44.84,0 -7.48,14.98 -7.47,0 -7.47,-14.98 -22.42,-22.48 -29.91,22.48 -14.94,-14.99 -29.9,14.99 -22.42,14.98 -14.95,7.5 -37.37,0 -14.95,7.49 -14.95,22.48 -7.47,14.98 0,37.46 -14.95,22.48 -14.95,14.99 -22.42,0 0,0 -7.47,14.98 -7.48,22.48 -44.84,14.99 -29.9,22.47 -22.42,37.47 -14.95,14.98 -37.37,14.99 -14.95,22.47 -14.95,14.99 -22.42,7.49 7.47,-44.95 14.95,-29.97 29.9,-22.48 37.37,-52.45 -7.48,-37.46 44.85,0 14.95,-52.45 22.42,-29.97 -22.42,-37.46 67.27,-74.93 -7.48,-22.48 37.37,-29.97 -29.89,-59.94 -44.85,14.99 -22.42,-14.99 -59.8,14.99 -22.42,22.47 22.42,-74.92 -52.32,37.46 0,-37.46 14.95,-29.97 14.95,-44.95 22.42,-29.98 0,-29.97 14.96,-44.96 44.84,44.96 0,-59.94 52.31,-29.97 37.38,44.95 37.37,-52.45 22.42,37.47 -22.42,52.44 0,37.47 22.42,-14.99 0,-14.98 29.89,-37.47 336.34,157.36 14.95,-37.47 z"></path>
            </g>
            </g>
            <g transform="matrix(1.25,0,0,-1.25,0,393.025)" id="quebec" data-tooltip="<span>Quebec</span><br><span style='color:#2badd9;'>Ordre des infirmières et infirmiers du Québec</span>" data-hasqtip="7" aria-describedby="qtip-7">
            <g transform="scale(0.1,0.1)" id="quebec2">
              <path id="path72" d="m 3532.81,664.352 14.94,7.488 14.95,7.492 7.48,14.977 0,29.972 7.47,14.989 7.47,7.492 7.48,7.488 14.94,-7.488 22.43,0 14.95,7.488 7.47,7.5 7.48,0 22.42,7.488 14.95,0 7.47,22.481 7.47,14.98 14.95,7.492 22.43,0 7.47,7.5 7.48,14.981 29.89,15 7.48,14.976 0,14.993 -14.95,7.488 -7.48,14.98 -7.47,7.5 -22.42,0 -37.38,-7.5 -29.89,-14.98 -37.37,-22.481 -29.9,-22.476 -37.37,-44.961 -29.9,-37.461 -37.36,-44.961 -14.96,-52.437 -14.95,-37.473 -14.94,-37.457 -22.43,-29.973 -29.89,-14.98 -44.85,-22.481 -22.42,-29.968 -22.42,-29.969 -7.47,-37.461 -14.95,-22.488 -37.37,-22.481 -22.43,-7.492 -7.47,-14.988 89.69,29.98 44.84,7.488 44.85,7.493 14.95,7.488 7.47,15 7.47,14.98 29.9,0 22.42,52.45 0,14.98 -14.95,22.48 0,22.481 14.95,29.969 14.96,44.949 22.42,37.473 z"></path>
              <path id="path76" d="m 3757.03,979.039 22.42,14.981 37.37,7.5 37.37,0 37.38,-7.5 22.42,7.5 14.95,0 7.47,-14.989 0,-14.98 -22.42,-7.5 -14.95,0 -14.95,-7.492 -37.37,7.492 -29.9,0 -14.94,14.988 -44.85,0 z"></path>
              <path id="path80" d="m 2800.34,1953.08 59.79,0 22.42,-37.46 37.38,14.98 29.89,37.46 37.37,0 29.89,-67.43 52.33,14.99 7.47,-37.47 29.9,-14.99 14.94,14.99 29.91,-14.99 29.89,14.99 22.42,0 -29.89,-37.46 22.42,-44.96 -7.48,-44.95 14.95,-29.97 37.37,-22.48 7.47,-14.99 29.91,14.99 22.42,-14.99 -7.48,-59.94 29.9,22.48 0,52.45 37.37,0 14.94,52.45 44.85,-52.45 -22.42,74.92 14.95,29.97 -14.95,37.47 7.48,52.44 7.47,-7.49 7.47,-44.95 14.95,-29.97 29.9,-22.48 7.47,-37.46 29.9,-14.99 -7.48,-37.46 44.85,0 14.95,-52.45 22.42,-29.97 -22.42,-37.46 44.84,-52.45 22.43,-22.48 -7.48,-22.48 37.37,-29.97 -29.89,-59.94 -44.85,14.99 -22.42,-14.99 -59.8,14.99 -22.42,22.47 22.42,-74.92 -52.32,37.46 0,-37.46 14.95,-29.97 14.95,-44.95 22.42,-29.98 0,-29.97 14.96,-44.96 44.84,44.96 0,-59.94 52.31,-29.97 37.38,44.95 37.37,-52.45 22.42,37.47 -22.42,52.44 0,37.47 22.42,-14.99 0,-14.98 29.89,-37.47 336.34,157.36 14.95,-37.47 -14.95,-37.47 -52.31,-14.98 0,-59.94 -37.38,-44.96 0,-22.48 -59.79,-44.95 -74.74,-29.97 -149.48,-44.95 -82.22,-22.481 -22.42,-37.461 7.47,-59.937 -52.32,-22.481 -52.32,-89.922 -29.89,-104.886 -14.95,-29.973 -22.42,-52.449 -74.75,-37.461 -37.36,-52.449 -14.95,-37.461 -14.95,-29.969 -22.42,-22.488 -7.48,0 -29.9,7.488 -22.42,0 -29.89,-14.981 -14.95,-7.488 -67.27,0 -89.69,37.469 -29.9,0 -44.84,37.461 -29.9,22.48 -7.48,22.469 -37.36,344.672 0,0 -14.95,14.976 14.95,37.461 37.36,7.5 -22.42,44.95 7.48,37.461 -7.48,37.46 -14.94,22.48 -7.48,22.48 14.95,44.95 -37.37,22.48 -7.47,44.96 37.37,29.97 44.84,44.95 52.32,89.92 37.37,7.49 -29.9,37.46 -22.42,44.96 -44.85,74.92 -59.79,37.47 -14.94,14.98 7.47,44.96 29.9,44.95 0,52.45 -22.43,22.48 -7.47,37.46 -22.42,0 0,29.97 14.95,37.47 -44.85,22.47 0,37.47 29.9,52.45 z"></path>
              <path id="path120" d="m 2710.65,1840.69 14.94,0 7.48,37.46 0,14.98 -7.48,7.5 -14.94,14.99 -7.48,-14.99 -14.94,-14.99 0,-22.48 7.47,0 7.47,-22.47 7.48,0 z"></path>
            </g>
            </g>
            <g transform="matrix(1.25,0,0,-1.25,0,393.025)" id="nt-nu">
            <g transform="scale(0.1,0.1)" id="nt-nu">
              <path id="path84" d="m 2531.26,2957.09 0,-29.98 7.49,-7.49 14.94,-7.49 7.48,-7.49 7.47,-14.99 0,-14.98 22.42,0 59.79,0 7.48,14.98 0,14.99 -7.48,7.49 0,7.49 -14.95,7.49 -14.94,0 0,15 -7.48,14.98 0,7.49 -29.89,0 -22.42,-7.49 -29.91,0 z"></path>
              <path id="path88" d="m 1918.38,2597.44 7.48,22.48 0,14.98 -7.48,0 -14.94,14.99 -14.95,7.49 -7.47,29.98 0,22.47 -7.48,14.99 -29.9,0 -7.47,22.48 0,37.46 7.47,52.45 7.48,37.46 -7.48,37.46 7.48,7.49 0,7.49 -37.37,37.47 -7.48,0 -14.95,-7.49 -7.47,-14.98 0,-119.89 -14.95,-7.49 -7.47,7.49 -14.95,7.49 0,22.48 7.48,37.46 7.47,22.48 -7.47,29.98 -29.9,0 0,0 -22.42,-22.49 -7.48,-7.49 -29.9,0 -7.47,7.49 7.47,7.49 14.95,0 0,15 -7.47,22.47 -59.8,0 0,14.99 14.95,0 7.48,14.98 7.47,7.49 0,14.99 -7.47,14.98 -22.43,0 -14.94,-14.98 -7.48,0 -22.42,-7.49 -7.48,7.49 -37.36,0 -7.48,-7.49 -7.47,-14.99 -14.95,-52.44 -37.37,0 0,-22.49 14.95,-7.49 22.42,-7.49 22.42,-14.99 22.42,-14.98 0,-7.49 -37.37,0 -22.42,7.49 -29.9,0 -14.95,-22.48 0,0 7.48,-14.98 14.95,0 7.47,-7.5 44.85,-14.98 29.89,-14.99 44.85,-37.46 14.95,-14.98 0,-7.5 -7.48,-14.98 -7.47,0 -22.43,14.98 -37.36,7.5 -37.38,14.98 -29.89,14.99 -14.95,0 -14.95,-14.99 0,-37.46 22.42,-14.99 29.9,-22.47 44.85,-29.98 0,0 -7.48,-22.48 0,-37.46 7.48,-14.98 59.79,0 22.42,-14.99 44.85,0 14.94,14.99 52.32,0 7.48,14.98 7.47,7.5 22.43,0 0,-22.48 7.47,0 14.95,-14.99 59.79,-52.45 22.42,0 22.43,14.99 7.47,0 7.47,29.97 -7.47,7.49 -37.37,0 0,14.99 7.47,14.98 14.95,7.5 22.42,0 14.95,-7.5 7.47,0 z"></path>
              <path id="path96" d="m 2015.55,2724.82 -7.47,14.98 -14.95,37.47 -14.95,22.47 -22.42,22.48 -14.95,14.99 -7.48,0 0,37.46 7.48,14.98 7.47,0 7.48,-14.98 14.94,-7.49 7.48,-14.99 14.95,0 7.47,22.48 7.48,29.97 -7.48,22.47 -7.47,0 0,29.98 7.47,7.49 14.95,0 14.95,-7.49 7.47,-14.98 14.95,0 14.95,14.98 7.47,0 7.48,-14.98 0,-22.49 -7.48,-14.98 -14.94,-14.99 -7.48,-14.98 0,0 7.48,-7.49 14.94,-14.99 7.48,0 7.47,-14.98 0,-14.99 -7.47,-22.48 -14.95,-22.47 -14.95,-29.97 -14.95,-7.5 -22.42,-14.98 z"></path>
              <path id="path100" d="m 1978.18,2507.53 -7.48,7.49 0,14.99 7.48,0 14.95,14.99 7.47,14.98 0,7.49 7.48,14.99 7.47,14.98 7.47,0 7.48,-14.98 7.47,0 0,-14.99 7.47,-7.49 14.96,-29.97 7.47,-14.99 14.95,-7.49 0,-29.97 -7.48,-7.49 -7.47,-14.99 -22.43,0 -7.47,14.99 -14.95,7.49 -22.42,14.98 -22.42,14.99 z"></path>
              <path id="path104" d="m 2142.61,2784.76 -7.47,29.97 -7.48,22.48 0,14.98 7.48,22.48 0,14.98 -7.48,29.97 0,22.49 14.95,22.47 14.95,14.99 14.95,0 7.47,-14.99 59.8,0 0,-37.47 -14.95,-14.98 0,-59.94 -7.48,-14.98 -29.89,0 -7.48,14.98 -14.95,0 0,-14.98 7.48,-14.99 0,-37.46 -29.9,0 z"></path>
              <path id="path108" d="m 2777.92,2455.08 -7.48,14.99 -14.95,0 -14.95,-14.99 -14.95,0 0,-52.45 7.48,-22.47 14.95,-14.99 22.42,0 7.48,14.99 0,22.47 7.47,37.47 -7.47,14.98 z"></path>
              <path id="path112" d="m 2464,2222.81 -22.42,0 -14.95,-37.46 -14.95,-74.93 7.48,-14.99 14.95,-14.98 0,-22.48 -7.48,-14.98 -14.95,-14.99 -7.48,-7.49 0,-29.97 67.27,0 7.48,-37.46 7.47,0 14.95,14.98 7.47,22.48 7.48,29.97 7.47,7.49 22.43,0 0,0 7.47,14.99 0,14.98 14.95,0 7.47,-14.98 14.95,-14.99 7.47,-7.49 14.95,-14.99 37.37,0 7.48,14.99 0,37.46 -7.48,7.49 -7.47,0 -22.42,-7.49 -7.48,0 -7.47,7.49 -7.48,14.99 7.48,29.97 -7.48,0 -7.47,7.5 -29.89,0 -29.91,14.98 -22.42,14.99 0,22.47 -29.89,0 -14.95,14.99 -7.47,14.98 7.47,22.48 z"></path>
              <path id="path116" d="m 2613.48,1953.08 -14.95,0 -14.94,-14.99 -7.48,-7.49 -14.94,7.49 -14.95,0 0,0 -14.96,-22.47 -7.47,-22.49 0,-14.98 44.85,0 7.47,7.49 7.48,7.49 14.94,7.5 14.95,14.99 7.48,22.47 -7.48,14.99 z"></path>
              <path id="path124" d="m 834.633,3017.03 -7.477,-7.49 -7.472,-14.99 -14.95,-14.98 -14.949,-14.99 -22.422,-37.47 -29.898,-14.98 -7.469,-22.48 7.469,-14.98 7.476,-7.49 22.422,-14.99 7.477,0 0,-14.98 -7.477,-7.5 0,-29.97 -7.468,-14.98 -22.43,-7.49 -7.469,0 -7.476,-14.99 0,-14.98 29.898,0 -7.477,-22.48 -7.476,-14.99 -14.945,-14.99 -22.422,0 -7.477,-7.48 -7.469,-14.99 -7.476,-14.99 0,0 7.476,-7.49 0,0 -7.476,-44.95 7.476,0 7.469,-7.5 14.953,-14.98 0,-14.99 7.469,0 0,-22.47 -14.945,-37.47 0,-14.99 -22.422,0 -7.477,-22.47 0,-14.99 7.477,-14.98 0,-14.99 -14.949,-22.48 -7.473,0 -7.477,-14.98 0,-37.46 22.422,0 0,-22.48 7.477,-52.45 7.476,0 -7.476,-14.99 -7.477,-22.47 0,-29.97 22.422,0 7.477,-7.5 7.476,-14.98 22.422,0 14.945,-14.99 14.954,0 0,-14.98 -7.477,-22.48 0,-14.98 -14.953,-7.5 -7.469,-29.97 82.215,-52.45 82.215,-37.46 127.054,-59.94 127.06,-52.45 164.44,-52.45 127.06,-37.46 119.58,-37.46 127.06,-29.97 127.07,-22.48 119.58,-14.99 89.69,-7.49 14.95,22.48 0,37.46 7.47,22.48 44.85,52.45 14.95,29.97 14.95,22.47 14.95,52.46 -29.9,0 -7.48,14.98 22.43,22.48 52.32,-22.48 29.89,7.49 0,29.97 -14.94,22.48 -44.85,29.97 -112.11,22.48 -7.48,14.98 0,7.49 7.48,14.99 44.84,-14.99 89.69,-37.46 14.95,-22.48 29.9,14.99 44.84,-29.97 37.37,29.97 67.27,22.48 29.9,52.44 14.94,37.47 -82.21,14.99 -52.32,52.44 0,22.48 82.22,-37.46 29.89,-14.99 22.42,29.97 22.43,22.48 -7.47,14.99 -14.96,22.47 22.43,14.99 59.79,-37.46 14.95,7.49 -14.95,29.97 7.47,22.47 29.9,-37.46 37.38,14.99 14.94,22.47 14.95,29.98 7.47,22.48 -52.31,67.43 14.95,37.46 7.47,74.93 -89.69,52.45 -37.37,-37.46 7.47,-89.92 -37.37,-52.45 -22.42,-52.44 -44.85,37.46 14.95,82.42 -37.37,59.94 -37.37,-89.91 -14.95,67.43 -89.69,59.94 22.42,52.45 -44.84,127.38 -22.42,29.97 -7.48,-14.99 -52.32,-164.84 74.74,-67.43 -59.79,-104.9 -29.89,-97.4 -52.32,127.37 -59.8,-37.46 -67.26,-14.99 -119.59,74.93 -7.47,67.44 -119.59,-14.99 29.89,-52.45 -29.89,-112.39 -67.27,149.85 -142.01,29.98 -7.47,52.44 37.37,0 -7.48,52.45 -67.27,22.48 -44.84,74.93 -44.84,29.97 -29.9,44.95 -52.32,7.49 7.48,44.96 -44.85,-22.48 -22.43,37.46 14.96,52.46 -14.96,22.47 -29.89,-22.47 -29.9,-15 -74.74,15 -52.315,37.46 52.315,-14.99 59.79,-7.49 14.95,7.49 -67.27,37.46 -67.261,0 -44.844,-7.49 -29.898,-29.97 -14.946,37.46 -29.898,14.99 z"></path>
              <path id="path128" d="m 2396.73,2957.09 7.47,-29.98 -7.47,-37.46 -29.89,-37.46 -7.48,-29.97 7.48,-22.48 37.36,-37.46 7.48,-52.45 14.95,-14.99 22.42,0 14.95,44.96 -22.42,22.48 -7.47,22.48 7.47,14.98 0,22.48 -14.95,14.99 -7.47,0 7.47,37.46 37.37,44.95 29.89,37.47 7.48,0 14.95,-14.98 0,-29.98 14.94,-22.48 7.49,-37.46 -7.49,-67.43 7.49,-7.49 37.36,37.46 14.95,7.49 22.42,-37.46 14.95,0 7.47,37.46 -22.42,14.99 0,14.98 29.9,14.99 37.37,-14.99 7.48,-37.46 29.89,22.48 7.47,-22.48 0,-29.97 29.9,-7.49 14.95,-29.97 22.43,14.98 -7.48,37.46 22.42,0 29.9,-37.46 -14.95,-37.46 37.37,-29.98 22.42,14.99 7.47,37.47 44.85,0 7.48,-37.47 -29.9,-37.46 7.48,-14.99 37.36,29.98 0,22.47 14.95,14.99 29.9,0 -22.42,-37.46 -22.43,-29.98 29.9,0 29.89,-7.49 22.43,7.49 7.48,-22.48 -14.95,-14.98 -29.9,0 -29.9,-14.98 29.9,-37.47 37.37,0 37.37,-37.46 29.9,0 29.89,14.99 14.96,0 14.94,-14.99 -7.47,-22.48 14.95,-14.99 29.89,0 14.95,14.99 7.47,-14.99 7.48,-14.98 37.37,14.98 22.42,0 14.95,-14.98 -7.47,-22.48 -22.42,0 0,-14.98 7.47,-22.48 7.47,0 0,-29.97 -22.42,0 0,-22.48 22.42,-14.98 0,-37.47 -22.42,0 -14.95,14.99 -14.95,0 -14.95,7.49 -22.42,52.45 -14.95,14.98 -44.84,-14.98 -44.85,0 22.42,-22.48 0,-14.98 -37.36,0 22.42,-22.48 22.42,-29.98 22.43,0 22.42,-37.46 29.89,14.99 29.9,-14.99 7.47,-37.46 52.32,-14.98 -7.47,-22.48 0,-37.46 29.9,-37.47 7.47,-14.99 -59.79,0 -82.22,52.46 -7.47,-14.99 -29.9,0 -7.48,-22.48 67.27,-29.97 22.42,-22.48 52.33,0 22.42,-14.98 -22.42,-52.45 -97.17,29.97 -44.85,0 -29.89,7.49 -52.32,-7.49 -37.38,37.46 7.49,37.46 -29.91,0 -59.79,22.49 -22.42,52.44 -29.9,0 7.47,-52.44 -37.36,14.98 -22.43,-22.48 -59.79,-14.99 -44.85,37.47 22.43,67.43 74.74,0 59.79,22.48 0,22.48 -22.42,29.97 14.95,37.46 22.42,37.47 52.32,0 29.9,-22.48 29.89,0 22.43,22.48 -14.96,37.46 -59.79,0 0,-22.48 -29.89,0 -29.9,22.48 7.48,37.46 -7.48,14.99 -97.16,104.9 -74.75,22.47 -22.42,29.97 -29.89,37.46 -37.38,22.48 -22.42,0 22.42,-52.44 -7.47,-7.5 -52.32,22.48 -29.89,0 -37.38,-37.46 -89.68,37.46 -44.85,0 -52.32,37.46 -7.47,37.46 14.95,0 29.89,-7.48 7.48,22.47 -37.37,0 -7.48,29.97 -29.9,7.5 -7.47,37.46 7.47,52.45 22.43,37.46 52.32,67.44 29.89,14.98 z"></path>
            </g>
            </g>

            </svg>


<svg id="usa" xmlns="http://www.w3.org/2000/svg" viewBox="0 0 2124 1263">
<!--   <div id="usa"> -->
<style>
$blue: #0055af;

.usMap {
  padding: 2%;
}

svg {
  margin: auto;
  max-height: 100vh;
  max-width: 100%;
}
margin-top: -300px;
.state {
  fill: $blue;
  stroke: white;

  &:hover {
    fill: darken($blue, 10);
  }
}
// }


</style>
<g id="new-york">
  <a target="_blank" href="http://www.dec.ny.gov/permits/6094.html">
  	<path class="state" d="M1565.1,387.4l-0.1-2.4l-1.8-1.6l-3.8,0.7l-1.1-2.7l1.5-3.9l9.4-7.9l2.2-5.8l0.3-3.4l0.1-0.1l1-3.4l8.8-7.5
  		l6.9-9.2l7.5-1.5l38.2-7.8l1.2,2.9l-0.7,2.4l1.7,2.5l0.2,6.9l3.8,6l-0.5,3.7l1.4,4.5l-1.3,2.4l-0.6,6.2l4.6,12.3l-0.8,4.3l1,2.7
  		l2.5-2.9l2.6,2.9l4.4,29.1l1.8,3.4l-1.9,29.5l0.9-0.1l3.5,29.6l2.7,3.3l-6.2,5.9l3,3.2l-2.2,6.1l-3.2,0.6l-3.5,8.1l1.8-12.2
  		l-26.9-10.8l-1.8-2.3l-7.5-1.2l-3.4-4.5l-0.6-6.7l-1.6-0.3l0.5-1.5l-5.4-1l-1.2-3.1l-3.9-1.1l-22.5,3.9l-28.6,4.6l-27.2,4
  		l-24.8,3.4l-26.3,3.4l-1.3-10.7l8.4-7.5l4.8-5.9l2-0.6l1.8-1.5l1.5-3.4l6-7.2l-2.5-6.5l-2.9-3.9l-2.1-4.8l4.8-3.2l10.5-4.3
  		l11.3-2.9l3.5-0.5l7.9,0.8l5.1,2.9l5.4-2.8l2,0.4l10.5-2l4.6-2.3l7.5-8.1l8.6-3.2l0.4-3.7l-1.8-4.9l-3-2.7l-0.6-1.6l0.4-1.4l2,0.1
  		L1565.1,387.4z"/>
  	<path d="M1608.4,405.8l1.2,3c1.3,3.1,2.2,6.1,2.3,9.4h1.1c0.2-3.4,1.2-6.4,2.3-9.3l1.2-3.1h5.8l-7.2,15.6v9.8h-5.7v-9.8l-7.2-15.6
  		H1608.4z"/>
  	<path d="M1591.9,414.2c1.4,2.8,2.5,7,2.7,11.1h1.6c-0.6-4.6-1.1-8.8-1.1-12.7v-6.7h4.9v25.4h-5.7l-5.4-11c-1.4-2.8-2.2-6.1-2.2-9.1
  		h-1.6c0.7,4.5,1.1,8.7,1.1,12.5v7.6h-4.9v-25.4h6.6L1591.9,414.2L1591.9,414.2z"/>
  	<path class="state" d="M1661.1,491.9l-4,4v7l-2,6l8-1l19-7l15-9l19-13v-4l-9,2l-11,5l3-8l-6,2l-3,5l-5,8l-11,2l-9,2L1661.1,491.9z
  		"/>
    </a>
</g>
<path id="washington-dc" class="state" d="M1567.4,593.6l0.1,0.1l-2.1-1.3l2.2-2.4l4.8,3.4l-3.7,4.7v-0.4l-0.2-2.4L1567.4,593.6z"
	/>
<g id="nevada">
  <a target="_blank" href="http://www.ndow.org/hunt/regulations_licenses_tags_permits/">
  	<path class="state" d="M364.7,643.2l-0.6,17l-1.7,7.6l-2.1,0.4l-1.2,5.6l-22.7-39.2l-18-31.1l-16.5-29.7l-14.5-27.2l-15-29
  		l-15.9-32L242.1,455l14-40.8l13.3-37.9l15.1-42l17.8,7.2l25.7,10l27.4,10.2l13.1,4.8l18,6.4l26,9l27.7,8.9l12.9,4.1l-10.5,36.8
  		l-10.9,39.1l-9.8,35.7l-9.1,33.9l-9.8,37.2l-4.9,19.2l-8.4,33l-3.8,5l-2,0.8l-2.6-1.1l-2-5.3l-3.1-0.2l-2.8-2.2l-5.4,3.8l-2.3,2.9
  		l1.3,3.6L364.7,643.2z"/>
  	<path d="M325.9,475.3c1.5,3.1,2.8,7.7,2.9,12.2h1.8c-0.7-5.1-1.2-9.7-1.2-14v-7.4h5.3v28h-6.3l-5.9-12.1c-1.5-3.1-2.4-6.7-2.4-10
  		h-1.8c0.8,5,1.2,9.6,1.2,13.8v8.4h-5.3v-28h7.3L325.9,475.3L325.9,475.3z"/>
  	<path d="M346.1,475.7c1.1,4.5,1.7,9,1.8,13.4h1.2c0.2-5.5,1.2-9.9,2-13.4l2.1-9.6h6.1l-7.9,28h-6.2l-7.9-28h6.4L346.1,475.7
  		L346.1,475.7z"/>
  </a>
</g>
<g id="california">
  <a target="_blank" href="https://www.wildlife.ca.gov/Hunting">
  	<path class="state" d="M148.7,465.1l3.1,1.9l0.4,2.1l1.6,1.5l2.4-0.8l0.9-1.1l3.4-8.3l7.4,3.6l5.9,5.6l-4.6,0.9l-3.7-0.6l-3.9,2.4
  		l-0.6,3.9l1.8,12.6l-0.7,3.4l-3.3-5.8l-1.5-5.3v-3.7l-2.1-1.5l-2.4,4.2l-0.9,4.3l0.6,8l-1.9,12.3l3,7.7l6.5,4.3l1.2,7l-2.2,7.1
  		l-4.8,1.9l-2.2,8l0.4,2.9l7.4,19.4l3,14.1l5.6,12.8l2.8,3.2l-1.7,7l3.7,4.4l1.6,5.4l-0.1,1.6l-2.5,3.9l-1.4,5.5l-1.2,9.3l0.6,2.9
  		l3.4,3l10.2,5.7l5.8,6.4l3.3-0.8l3.6,2l4.5,5.3l4.6,3.9l1.3,4.8l7.9,6.9l2.7,3.2l1.4,3.2l2.9-3.2l2.6,0.7l2,2.1l3.4,6.1l-0.6,6.9
  		l0.4,1.4l7.8,3.5l5.5,6.5l3.5,5.4l5.4,12.6l3.8,6.7l1.8,7.1l-2.5,17l0.1,5l75.6,14.7l3.9-3.2l4.8,1.9l4-5l0.8-4.3l-6.5-6.8l2.2-5.1
  		l-1.1-4.1l1-4.2l3.2,0.1l5-4.8l1.3-5l1.7-1.2l1.3-10.1l3.7-1.8l2-3.2l10.4-4.6l-1.8-8.5l-3.9-4.5l-4.4-16.4l1-4.6l-22.7-39.2
  		l-18-31.1l-16.5-29.7l-14.5-27.2l-15-29l-15.9-32l-14.4-30.6l14-40.8l13.3-37.9l15.1-42L258,323.3l-26.8-11.7l-34-15.6l-26-12.5
  		l-0.9,6.1l-3.8,20.2l-6.7,11.6l-4.8,11.2l-5.5,4.8l-5.8,3.4l-2.2,4.8l-0.8,3.2l2.1,4.8l4,28.4l-0.4,3.4l-2.2,2.8l-2.7,6.5
  		l-3.3,23.2l2,5.8l1.7,8.1l5.5,14.7l0.1,5.2l-2,5l0.4,2.7L148.7,465.1z"/>
  	<path d="M218.1,520.4h-1.9c-1.1-2.2-2.5-3.3-4.2-3.3c-2.9,0-4.7,2.9-4.7,8.5c0,5.5,1.8,8.3,4.6,8.3c1.7,0,3.1-1.1,4.2-3.3h1.9v5.8
  		c-2.3,1.5-4.5,2.2-7,2.2c-6.1,0-10-4.6-10-13.1c0-8.6,3.8-13.1,10.2-13.1c2.4,0,4.5,0.7,6.8,2.2L218.1,520.4L218.1,520.4z"/>
  	<path d="M226.1,512.8h7.9l5.5,25.4h-5.7l-0.6-2.8c-0.2-0.8-0.1-1.7,0.1-2.3l-0.4-0.3c-1,0.3-1.8,0.4-3.4,0.4c-1.7,0-2.4,0-3.5-0.4
  		l-0.3,0.3c0.1,0.4,0.2,1.7,0,2.7l-0.6,2.5h-5.5L226.1,512.8L226.1,512.8z M229.1,515.6c-0.6,6.4-1.3,10.9-2.6,13.6l0.4,0.5
  		c1-0.3,1.9-0.3,2.8-0.3c0.8,0,1.7,0.1,2.5,0.3l0.4-0.5c-0.9-2-1.9-6.6-2.3-13.6H229.1L229.1,515.6z"/>
  </a>
</g>
<g id="washington">
  <a target="_blank" href="http://wdfw.wa.gov/hunting/permits/">
  	<path class="state" d="M255.5,103l1.1,2.7l-2.2,5.3l1.4,1.1l1.3-1.3l1.9-5.7l2.1-3.6v-1.3l-1.9-0.5l-1.3-1.4l-0.1-1.8l1.4-3.5
  		l2.8-1.9l2-2.5l-0.6-3.2l-3.4,2l-0.4-0.8l1.2-7.2l4.4-17.3l0.7-9.2l-1.4-6.7v-4.8l0.9-4l2.4-4.5l3.4-3.6l3-1.5l3.3,5.3l10.5,11.7
  		l4.1,2.1l4.8,4.1l6.4,2.7l4.7,6l5.3,1.8l-0.4,4.5l-2.6,3.9l-1.3,1l-2.8,0.3l-1.9,1l-8.4,7.7l-2.2,5.8L297,87l1.9-2.8l-1-1.1
  		l2.2-1.8l5.7-1.6l6.8-5.3l2.9,0.2l0.9,0.9l0.1,4.1L317,80l3.7-6.1l3.2-7.4l1.2-8.8v-1.8l-1.6-2.2l-1.4-3.7l0.2-0.6h2.2l3.2-2
  		l2.1-4.4l1.7,0.1l1.2,2l0.8-0.4l-0.6-2.7l-3.1-3.1l-3.2-1.5l-0.8-4.4l0.1-4.7l27.4,13.6l22,10.4l23.5,10.7l21.6,9.5l20.5,8.6
  		l23.4,9.5l-18.3,50.2L428.3,190l-1.6,2.7l0.6,9.3l-2.6,2.5l1,4.4L370.5,187l-3.3,1l-12.9-4.6l-3.2,1.6l-7.8-2l-8.5,0.7l-6.9-1.7
  		l-3.2-3.6l-15.9-0.8l-2.5-5.7l-12.6-6.1l-6.2,1.3l-8.6-1.1l-10.3-9.2l3.5-13.1l-0.1-4.6l-5.2-8.6l-2.1-3.4l-1.5-4.4l-10-4.6
  		l-2.1-4.3l1-4.1L255.5,103z"/>
  	<path d="M329,131.5l-5.1-25.4h5.7l0.9,6.6c0.7,5.1,1.1,9.6,1.2,13.3h1.5c0-4,0.8-8.3,1.7-13.1l1.3-6.7h4.9l1.2,6.2
  		c1,5.3,1.6,9.9,1.9,13.6h1.5c0-4.5,0.5-9,1.1-13.3l1-6.6h5.2l-5.1,25.4h-5.8l-1.6-8.9c-0.6-3.2-1.2-7-1.3-11.6h-1.6v0.3
  		c0,3.7-0.6,7.5-1.4,11.5l-1.7,8.8H329L329,131.5z"/>
  	<path d="M360.2,106.1h7.9l5.5,25.4h-5.7l-0.6-2.8c-0.2-0.8-0.1-1.7,0.1-2.3l-0.4-0.3c-1,0.3-1.8,0.4-3.4,0.4c-1.7,0-2.4,0-3.5-0.4
  		l-0.3,0.3c0.1,0.4,0.2,1.7,0,2.7l-0.6,2.5h-5.5L360.2,106.1z M363.2,109c-0.6,6.4-1.3,10.9-2.6,13.6l0.4,0.5c1-0.3,1.9-0.3,2.8-0.3
  		c0.8,0,1.7,0.1,2.6,0.3l0.4-0.5c-0.9-2-1.9-6.6-2.3-13.6H363.2L363.2,109z"/>
  </a>
</g>
<g id="oregon">
  <a target="_blank" href="http://www.dfw.state.or.us/online_license_sales/">
  	<path class="state" d="M272.2,143.8l-3.5,13.1l10.3,9.2l8.6,1.1l6.2-1.3l12.6,6.1l2.5,5.7l15.9,0.8l3.2,3.6l6.9,1.7l8.5-0.7l7.8,2
  		l3.2-1.6l12.9,4.6l3.3-1l55.1,21.7l1.1,8.1l4.6,4.8l0.4,7.1l-8.6,8l-4.1,6.7l-5.3,4.5l-1.3,4l-2.9,3.2l-4.7,2l-8.6,8.6l-2,7.9
  		l5.3,2.9l1.3,4.6l-3.3,2.5l0.1,3.4l-4.8,6.6l-24.2,73l-13.1-4.8l-27.4-10.2l-25.7-10l-17.8-7.2L258,323.3l-26.8-11.7l-34-15.6
  		l-26-12.5l0.4-2.7l0.7-12.6l4.8-14.2l2-8.8l8.6-13l4.8-4l4.1-0.7l1.1-4.3l-0.8-0.4l0.3-0.8l2.2-4.1l8.4-11.6l3.2-6.7l3.4-4.4
  		l9.3-22.4l4.7-5.7l7.7-16l3.7-3.5l2-5.8l2.2-2.5l-0.8-2.2l1.1-3.5l4.1-7.5l1.7-2.2l2-0.5l9.3,3.6l4.4,4.5l1.2-1.2l5.2,8.6
  		L272.2,143.8z"/>
  	<path d="M285.4,241.5c6.4,0,9.6,4.4,9.6,13.1c0,8.8-3.2,13.2-9.6,13.2c-6.4,0-9.6-4.4-9.6-13.2
  		C275.9,245.8,279.1,241.5,285.4,241.5 M282.1,254.6c0,6.1,0.6,8.9,3.3,8.9c2.8,0,3.3-2.8,3.3-9.4c0-5.8-0.7-8.3-3.3-8.3
  		C282.7,245.7,282.1,248.5,282.1,254.6"/>
  	<path d="M305.8,241.9c2.7,0,4.9,0.1,6.6,1.1c2.1,1.3,3.3,3.4,3.3,6.1c0,3.4-1.7,5.3-4.1,5.8l-0.1,0.7l6.3,11.7H311l-4.6-10.4
  		c-0.9,0-1.7-0.2-2.5-0.5l-0.5,0.6c0.8,1,0.8,2.4,0.8,4.5v5.8h-5.8v-25.4H305.8L305.8,241.9z M302.9,246.3c0.4,0.4,0.8,1.6,0.8,2.6
  		v1.2c0,1.3-0.1,2.2-0.8,3.1l0.5,0.5c1.6-0.3,3.1-0.2,4.4-0.5c1.4-0.4,2.4-1.7,2.4-3.4c0-1.6-0.8-2.9-2.3-3.4
  		c-1.2-0.4-2.7-0.1-4.4-0.7L302.9,246.3z"/>
  </a>
</g>
<g id="idaho">
  <a target="_blank" href="https://id.outdoorcentral.us/id/license/welcome">
  	<path class="state" d="M508.4,289.4l-2.7,0.4l-2-3.8l-0.4-3.2l1.6-1l0.7-2.1l-0.5-4.6l-1.6-0.7l-0.1-3.7l-2-5.1l1-2.9l-0.8-2.5
  		l1.2-2.7l-1.3-1.4l1.2-2.9l-3.9-5.5l-0.8,1.9l-3.9,2.2l-3.5,0.3l-3.1,1.8l-2.8-4.6l-2.5-1.1l3.3-5.2l-0.8-3.3l6-2.9l-0.4-1.8
  		l1.1-2.2l-1.8-1.2l2-4l-0.8-2.5l2.2-0.5l0.4-3.4l4.6-6.5l-0.1-2.4l2-0.6l1.9-5.2l-6.9-1.2l-1.2-1.8l1.1-1.5l-0.9-1.8l-2.9,0.6
  		l0.8-2.4l-2.8-3.9l0.8-3.4l-2.5-3.7l-3.6-13l-4-3.4l-1-4.1l-3.1-3.4l3-1.1l-1.7-3.8l2.3-1.5l0.1-4.4l-4.4-14.3l13.4-38.6l-24-9.3
  		l-18.3,50.2l-17.6,49.2l-1.6,2.7l0.6,9.3l-2.6,2.5l1,4.4l1.1,8.1l4.6,4.8l0.4,7.1l-8.6,8l-4.1,6.7l-5.3,4.5l-1.3,4l-2.9,3.2l-4.7,2
  		l-8.6,8.6l-2,7.9l5.3,2.9l1.3,4.6l-3.3,2.5l0.1,3.4l-4.8,6.6l-24.2,73l18,6.4l26,9l27.7,8.9l12.9,4.1l18.3,5.6l26.4,7.7l28,7.9
  		l13.7,3.7l13.3-52.3l12.4-47.5l-3.2-4.8l-1.3-6.7l-1.4-1.5l-3.3,1.1v1.9l-2.3,2l0.6,2.7l-5.4-2.5l-4.1,0.6l-1.6-2.1l-6-0.5l-4-2.7
  		l-2.8,0.7L528,311l-7.7-4.5l-2.3,0.1l-2.7,1.7l0.1,2l-0.8,0.4l-3.6-5l0.9-3l-1.3-3.3l1.3-1.8l-1.2-5.8L508.4,289.4z"/>
  	<path fill="none" stroke="#000000" stroke-width="1.949" d="M442.9,345.3v-25.4"/>
  	<path d="M456.9,319.9c3.6,0,6.2,0.5,8.2,2.1c2.5,2.1,3.9,5.6,3.9,10.4c0,4.7-1,8.1-3.4,10.4c-2.2,2.2-4.8,2.5-8.5,2.5h-6.5v-25.4
  		L456.9,319.9L456.9,319.9z M456.4,337.4c0,1.2,0,2.2-0.9,3.4l0.6,0.6c1.4-0.6,3.1,0,4.5-1c0.8-0.5,2-1.4,2-5.9v-1.8
  		c0-3.9-0.1-6.3-1.7-7.6c-1.3-1.1-3.6-0.8-4.8-1.2l-0.6,0.5c0.9,1.2,0.9,2.2,0.9,3.4V337.4z"/>
  </a>
</g>
<g id="montana">
  <a target="_blank" href="http://fwp.mt.gov/hunting/licenses/">
  	<path class="state" d="M505.7,289.8l-2-3.8l-0.4-3.2l1.6-1l0.7-2.1l-0.5-4.6l-1.6-0.7l-0.1-3.7l-2-5.1l1-2.9l-0.8-2.5l1.2-2.7
  		l-1.3-1.4l1.2-2.9l-3.9-5.5l-0.8,1.9l-3.9,2.2l-3.5,0.3l-3.1,1.8l-2.8-4.6l-2.5-1.1l3.3-5.2l-0.8-3.3l6-2.9l-0.3-1.8l1.1-2.2
  		l-1.8-1.2l2-4l-0.8-2.5l2.2-0.5l0.4-3.4l4.6-6.5l-0.1-2.4l2-0.6l1.9-5.2l-6.9-1.2l-1.2-1.8l1.1-1.5l-0.9-1.8l-2.9,0.6l0.8-2.4
  		l-2.8-3.9l0.8-3.4l-2.5-3.7l-3.6-13l-4-3.4l-1-4.1l-3.1-3.4l3-1l-1.7-3.8l2.3-1.5l0.1-4.4l-4.4-14.3l13.4-38.6l49.7,18l31.9,10.7
  		l23.2,7.3l24.6,7.4l22.9,6.6l15.3,4.2l24.8,6.5l22.7,5.6l21.6,5l23.7,5.3l25.1,5.2l20.9,4.4l-6.8,36.5l-7.1,38.7l-6.3,35.2
  		l-1.8,10.2l-6.7,37.6l-25.1-4.6l-27.1-5.3l-25.6-5.4l-23.3-5.1l-24.5-5.8l-26.8-6.7l-25.3-6.7l-17.5-4.8l-5.3,20.2l-3.2-4.8
  		l-1.3-6.7l-1.4-1.5l-3.3,1.1v1.9l-2.3,2l0.6,2.7l-5.4-2.5l-4.1,0.6l-1.6-2.1l-6-0.5l-4-2.7l-2.8,0.7L528,311l-7.7-4.5l-2.3,0.1
  		l-2.7,1.7l0.1,2l-0.8,0.4l-3.6-5.1l0.9-3l-1.3-3.3l1.3-1.8l-1.2-5.8l-2.3-2.5L505.7,289.8z"/>
  	<path d="M620.8,232.9c0.4,1.9,1,5.5,1,10.6h1.7v-0.4c0-3.6,0.4-7,1.2-10.5l2-8.2h7.6v25.4h-4.8V237c0-0.8,0.1-3.5,0.7-8.1h-1.6
  		c-0.1,3.3-0.8,6.2-1.6,9.1l-3.1,11.8h-3.2l-3.6-14.9c-0.5-1.9-0.7-3.9-0.8-6h-1.6c0.4,2.7,0.6,5.3,0.6,7.6v13.3h-4.5v-25.4h7.8
  		L620.8,232.9L620.8,232.9z"/>
  	<path d="M648.6,249.8h-5.8v-18.2c0-1,0.3-1.7,0.9-2.6l-0.5-0.5c-1.1,0.4-2.2,0.4-3.4,0.4H637v-4.5h17.5v4.5h-2.8 c-1.2,0-2.3,0-3.4-0.4l-0.5,0.5c0.6,0.8,0.9,1.6,0.9,2.6V249.8z"/>
  </a>
</g>
<g id="arizona">
  <a target="_blank" href="https://www.azgfd.com/license/">
  	<path class="state" d="M359,673.8l1.2-5.6l2.1-0.4l1.7-7.6l0.6-17l2.5-5.9l-1.3-3.6l2.3-2.9l5.4-3.8l2.8,2.2l3.1,0.2l2,5.3
  		l2.6,1.1l2-0.8l3.8-5l8.4-33l23.4,6.5l28.6,7.6l30.3,7.7l27.7,6.7l26.3,6l20,4.4l-7.4,37.2l-7.7,39.4l-6.9,35.9l-6.4,34l-6.8,37.5
  		l-8.3,46.5l-64.2-12.8l-116.1-80.1l0.1-4.1l3.9-3.2l4.8,1.9l4-5l0.8-4.3l-6.5-6.8l2.2-5.1l-1.1-4.1l1-4.2l3.2,0.1l5-4.8l1.3-5
  		l1.7-1.2l1.3-10.1l3.7-1.8l2-3.2l10.4-4.6l-1.8-8.5l-3.9-4.5l-4.4-16.4L359,673.8z"/>
  	<path d="M418.9,717.4h7.9l5.5,25.4h-5.7l-0.6-2.8c-0.2-0.8-0.1-1.7,0.1-2.3l-0.4-0.3c-1,0.3-1.8,0.5-3.4,0.5c-1.7,0-2.4,0-3.5-0.5
  		l-0.3,0.3c0.1,0.4,0.2,1.7,0,2.7l-0.6,2.5h-5.5L418.9,717.4z M421.9,720.2c-0.6,6.4-1.3,10.9-2.6,13.6l0.4,0.5
  		c1-0.3,1.9-0.3,2.8-0.3c0.8,0,1.7,0.1,2.6,0.3l0.4-0.5c-0.9-2-1.9-6.6-2.3-13.6H421.9L421.9,720.2z"/>
  	<path d="M449.4,720.3l-6.7,13.2c-0.9,1.7-1.7,3.3-2.8,4.7l0.4,0.7c1.3-0.2,3.1-0.3,5.5-0.3h3.5v4.3h-15.8v-3.5l6.4-12.7
  		c0.4-0.8,1.1-2.5,2.9-4.9l-0.3-0.7c-1.5,0.3-3.2,0.4-5.1,0.4h-3.3v-4.1h15.3V720.3L449.4,720.3z"/>
  </a>
</g>
<g id="wyoming">
  <a target="_blank" href="https://wgfd.wyo.gov/Apply-or-Buy/License-Fee-List">
  	<path class="state" d="M539.6,419.8l-10,40.3l28.4,7.2l30.6,7.4l18.8,4.3l27.3,6l28.9,5.9l26.4,5.1l25.1,4.6l23.6,3.9l6.6-40.5
  		L752,424l6.9-40.5l6.8-39.3l-25.1-4.6l-27.1-5.3l-25.6-5.4l-23.3-5.1l-24.5-5.8l-26.8-6.7l-25.3-6.7l-17.5-4.8l-5.3,20.2
  		l-12.4,47.5L539.6,419.8z"/>
  	<path d="M626.1,426.3l-5.1-25.4h5.7l0.9,6.6c0.7,5.1,1.1,9.6,1.2,13.3h1.5c0-4,0.8-8.3,1.7-13.1l1.3-6.7h4.9l1.2,6.2
  		c1,5.3,1.7,9.9,1.9,13.6h1.5c0-4.5,0.4-9,1.1-13.3l1-6.6h5.2l-5.1,25.4h-5.8l-1.6-8.9c-0.6-3.2-1.2-7-1.3-11.6h-1.6v0.3
  		c0,3.7-0.6,7.5-1.3,11.5l-1.7,8.8L626.1,426.3L626.1,426.3z"/>
  	<path d="M656.9,400.9l1.2,3c1.3,3.1,2.2,6.1,2.3,9.4h1.1c0.2-3.4,1.2-6.4,2.3-9.3l1.2-3.1h5.8l-7.2,15.6v9.8h-5.7v-9.8l-7.2-15.6
  		H656.9L656.9,400.9z"/>
  </a>
</g>
<g id="utah">
  <a target="_blank" href="https://wildlife.utah.gov/hunting-in-utah/hunting-permits.html">
  	<path class="state" d="M557.7,620.1l-3.2,15.6l-20-4.4l-26.3-6l-27.7-6.7l-30.3-7.7l-28.6-7.6l-23.4-6.5l4.9-19.1l9.8-37.2
  		l9.1-33.9l9.8-35.7l10.9-39.1l10.5-36.8l18.3,5.6l26.4,7.7l28,7.9l13.7,3.7l-10,40.3l28.4,7.2l30.6,7.4l-8.1,36.9l-8.4,39.1
  		l-7.5,35.6L557.7,620.1z"/>
  	<path d="M493.5,531.9c0,6.3-2.5,8.8-8.9,8.8c-4.3,0-6.9-1.1-8.2-3.9c-0.7-1.6-0.8-3.4-0.8-5.7v-16.2h5.8v16.6c0,3.3,0.8,5,3.1,5
  		c2.4,0,3.2-1.8,3.2-5.1v-16.4h5.8L493.5,531.9L493.5,531.9z"/>
  	<path d="M507.7,540.3h-5.8v-18.2c0-1,0.3-1.7,0.9-2.5l-0.5-0.5c-1.1,0.4-2.2,0.4-3.4,0.4H496v-4.5h17.5v4.5h-2.8
  		c-1.2,0-2.3,0-3.4-0.4l-0.5,0.5c0.6,0.8,0.9,1.6,0.9,2.5V540.3z"/>
  </a>
</g>
<g id="new-mexico">
  <a target="_blank" href="http://www.wildlife.state.nm.us/hunting/licenses-and-permits/">
  	<path class="state" d="M718.2,871.4l4.8-38.4l4.5-35.7l5.1-39.1l4.9-37l4.3-31.3l1.6,0.2l2.8-20.5l-35-5.3l-26.5-4.2l-28.1-4.7
  		l-30.7-5.5l-39-7.6l-32.4-6.6l-7.4,37.2l-7.7,39.4l-6.9,35.9l-6.4,34l-6.8,37.5l-8.3,46.5l27.3,5l3.4-19.3l55.6,9.1l-1.1-7.2
  		l17.6,2.8l31,4.8l32.8,4.7l29.9,4L718.2,871.4z"/>
  	<path d="M619.6,763.3c1.4,2.8,2.5,7,2.7,11.1h1.6c-0.6-4.6-1.1-8.8-1.1-12.7v-6.7h4.9v25.4h-5.7l-5.4-11c-1.4-2.8-2.2-6.1-2.2-9.1
  		h-1.6c0.7,4.5,1.1,8.7,1.1,12.5v7.6h-4.9v-25.4h6.6L619.6,763.3L619.6,763.3z"/>
  	<path d="M641.9,763.4c0.5,1.9,1,5.5,1.1,10.6h1.6v-0.4c0-3.6,0.4-7,1.2-10.5l2-8.2h7.6v25.4h-4.8v-12.8c0-0.8,0.1-3.5,0.7-8.1h-1.6
  		c-0.1,3.3-0.8,6.2-1.6,9.1l-3.1,11.8h-3.2l-3.6-14.9c-0.5-1.9-0.7-3.9-0.8-6h-1.6c0.4,2.7,0.6,5.3,0.6,7.6v13.3H632v-25.4h7.8
  		L641.9,763.4L641.9,763.4z"/>
  </a>
</g>
<g id="colorado">
  <a target="_blank" href="http://cpw.state.co.us/buyapply/pages/hunting.aspx">
  	<path class="state" d="M580.6,511.6l8.1-36.9l18.8,4.3l27.3,6l28.9,5.9l26.4,5.1l25.1,4.6l23.6,3.9l30.5,4.9l29.8,4.4l-5.3,38.7
  		l-5,36.8l-5.1,38.9l-4.6,35.6l-1.3,10.2l-31.3-4.2l-35-5.3l-26.5-4.2l-28.1-4.7l-30.7-5.5l-39-7.6l-32.4-6.6l3.2-15.6l7-33.8
  		l7.5-35.6L580.6,511.6z"/>
  	<path d="M667.5,577.9h-1.9c-1.1-2.2-2.5-3.3-4.2-3.3c-2.9,0-4.7,2.9-4.7,8.5c0,5.5,1.8,8.3,4.6,8.3c1.7,0,3.1-1.1,4.2-3.3h1.9v5.8
  		c-2.3,1.5-4.5,2.2-7,2.2c-6.1,0-10-4.6-10-13.1c0-8.6,3.8-13.1,10.2-13.1c2.4,0,4.5,0.7,6.8,2.2V577.9z"/>
  	<path d="M679.5,570c6.4,0,9.6,4.4,9.6,13.1c0,8.8-3.2,13.2-9.6,13.2c-6.4,0-9.6-4.4-9.6-13.2C670,574.3,673.2,570,679.5,570
  		 M676.2,583.1c0,6.1,0.6,8.9,3.3,8.9c2.8,0,3.3-2.8,3.3-9.4c0-5.8-0.7-8.3-3.3-8.3C676.8,574.2,676.2,577,676.2,583.1"/>
   </a>
</g>
<g id="kansas">
  <a target="_blank" href="http://ksoutdoors.com/Hunting/Applications-and-Fees">
  	<path class="state" d="M932.2,567.8l-28.2-2.5l-25.6-2.6l-27.1-2.9l-29.7-3.6l-28-3.7l-5,36.8l-5.1,38.9l-4.6,35.6l-1.3,10.2
  		l4.1,0.6l29.3,3.6l31,3.4l28.2,2.9l26.8,2.5l29.4,2.4l31,2.2l29.5,1.8l28,1.5l2.3-46.4l2-39.5l-6.8-2.6l-1.8-6.8l-6.1-7.1l4.8-7.3
  		h3l-2-6.3l-4.8,1l-2.7-1.8l-6.5-5.6l-6.2-0.4l-28.2-1.9L932.2,567.8z"/>
  	<path d="M885.3,623.5c0,2.5-0.2,4.9-0.5,7.3l0.9,0.2c0.5-1.9,1.4-3.9,2.5-6l3.9-7.6h6.3l-4.1,7.6c-0.8,1.4-1.6,2.6-2.9,3.6v0.5
  		c1.2,0.8,1.8,2.2,2.6,4l4.5,9.7h-6.4l-3.7-8.4c-0.5-1.1-0.8-2.2-1-3.3h-0.6l-1.8,3.8c0.1,0.4,0.2,0.8,0.2,1.6v6.2h-5.8v-25.4h5.8
  		V623.5L885.3,623.5z"/>
  	<path d="M915.3,624.4h-1.9c-1.1-2.2-2.9-3.4-4.5-3.4c-1.9,0-3.1,1.1-3.1,2.6c0,2.5,3.1,3.4,7,5.4c1.6,0.8,3.9,3,3.9,6.3
  		c0,4.4-3.6,7.9-9.3,7.9c-2.4,0-4.8-0.6-7.4-1.7l0.2-6.3h1.7c1.1,2.4,3.2,3.8,5.4,3.8c2,0,3.4-1.3,3.4-2.8c0-2.6-2.7-3.2-5.2-4.4
  		c-3.6-1.8-5.4-4.2-5.4-7.3c0-4.4,3.1-7.3,8.7-7.3c2.2,0,4.3,0.5,6.5,1.4L915.3,624.4L915.3,624.4z"/>
  </a>
</g>
<g id="oklahoma">
  <a target="_blank" href="https://www.wildlifedepartment.com/license.htm">
  	<path class="state" d="M948.8,820.7l2.8,3.6l1-2.5l3.2,0.3l2-2.6l6.9-2.3l5.3,2l0.3-1.7l6.3-1.8l1.6,2.7l6.5,0.8l4.1-3.7l8.1,4.6
  		l3.2,4.3l13.3,5.3l3.2-69.9l-2.5-45.3l0.9-19.8l-28-1.5l-29.5-1.8l-31-2.2l-29.4-2.4l-26.8-2.5l-28.2-2.9l-31-3.4l-29.3-3.6
  		l-4.1-0.6l-31.3-4.2l-2.8,20.5l17.6,2.4l29.5,3.8l31.2,3.7l18.2,2l-7.9,77.7l4.1,0.6l7.3,8.1l3.1-1.1l4.4,1.9l2.2-3.4l4.6,5.5
  		l0.6,5.1l6.6,0.4l7.4,3.9l4.9-0.3l4.1,4l3.7-2.5l8.6,0.4l0.2,5l4.3,1.8l-0.7,3.8l2.8,1.5l8.2-4.5l1.5,0.8l0.1,2.8l3.6,0.3l1.2,3.2
  		l8-2.6l-0.6,4.2l2.2,3l2.9-3.6l-0.7-1.6l10-2.2l3.1,3.3L948.8,820.7z"/>
  	<path d="M894.6,742.1c6.4,0,9.6,4.4,9.6,13.1c0,8.8-3.2,13.2-9.6,13.2s-9.6-4.4-9.6-13.2C885.1,746.5,888.3,742.1,894.6,742.1
  		 M891.3,755.2c0,6.1,0.6,8.9,3.3,8.9c2.8,0,3.3-2.8,3.3-9.4c0-5.8-0.7-8.3-3.3-8.3C891.9,746.4,891.3,749.2,891.3,755.2"/>
  	<path d="M913.4,748.7c0,2.5-0.2,4.9-0.5,7.3l0.9,0.2c0.5-1.9,1.4-3.9,2.5-6l3.9-7.6h6.3l-4.1,7.6c-0.8,1.4-1.6,2.6-2.9,3.6v0.4
  		c1.2,0.8,1.8,2.2,2.6,4l4.5,9.7h-6.4l-3.7-8.4c-0.5-1.1-0.8-2.2-1-3.3H915l-1.8,3.8c0.1,0.4,0.2,0.8,0.2,1.6v6.2h-5.8v-25.4h5.8
  		L913.4,748.7L913.4,748.7z"/>
  </a>
</g>
<g id="texas">
  <a target="_blank" href="https://tpwd.texas.gov/business/licenses/online_sales/">
  	<path class="state" d="M908.4,1136.3l-2.8-2.5l-2.5-7.3l-0.9-4.9l-0.8-1.2l-3-17.3l-0.2-6.6l3.1-1.8l0.6-7.8l-0.7-1.2l-4-1.3
  		l-1.8-1.3l0.8-2.4h4.8l1.8,2l3.2-1.8l1.2-4.9l0.8-8.6l-3.2-6.6l9.3-1.3l3.7-6.3l-0.3-1.6l-3.8,0.8l0.4-3l6.5-3.4l2.2,0.5l3.9-4.1
  		l0.8-2.2l1.4-1.5l6.3-0.2l2.6-1.3l0.6-2.9l-3.5-3.3l0.1-3l1.1-1.9l3.2,1.6l2,2l0.6-0.4l0.1-2.8l0.8-1.3l1.4,0.6l1.7,3.2l0.8,0.2
  		l2.1-0.9l1.1-2.9l1.1-0.6l1,5.7l10.5-2.9l1.4,0.4l-0.6,1.1l-2.7,1.4l-6.7,2l-5.3,2.4l-1.3,1.6l1.3,0.7l11-3.5l10-4.6l4.2-3.6
  		l9.1-5.7l2-2.8l4-10l1.7-20.6l2-1.8l2-0.9l1.5,0.2l0.1,7.5l4.5,0.4l-1.3,2.7l-3.9,1.5l1.3,0.7l12.7-4.5l7.7-3.9l11.2-0.1l-3.2-4.1
  		l3.5-3.1l2-4.2l2.5-2.7l1-3.2l-0.3-5.6l-1.3-2.6l2.1-4.1l-1.1-3.9l6.2-10.7l-0.2-2.9l1.5-1.9l-1.3-2.6l2.1-1.1l-1.4-2.5l0.8-3.6
  		l-1.1-0.3l0.1-0.1l-1.2-0.2l-2.5-4.9l1.1-2.1l-3.2-4.3l0.8-1.5l-3.6-3.3l0.8-4.4l-0.8-3.3l-6.7-8.7l1.6-40.4l0.8-21.8l-4.8-1.6
  		l-6.9,1l-2.5-3.4l-13.3-5.3l-3.2-4.3l-8.1-4.6l-4.1,3.7l-6.5-0.8l-1.6-2.7l-6.3,1.8l-0.3,1.7l-5.3-2l-6.9,2.3l-2,2.6l-3.2-0.3
  		l-1,2.5l-2.8-3.6l-9.1-3.2l-3.1-3.3l-10,2.2l0.7,1.6l-2.9,3.6l-2.2-3l0.6-4.2l-8,2.6l-1.2-3.2l-3.6-0.3l-0.1-2.8l-1.5-0.8l-8.2,4.5
  		l-2.8-1.5l0.7-3.8l-4.3-1.8l-0.2-5l-8.6-0.4l-3.7,2.5l-4.1-4l-4.9,0.3l-7.4-3.9l-6.6-0.3l-0.6-5.1l-4.6-5.5l-2.2,3.4l-4.4-1.9
  		l-3.1,1.1l-7.3-8.1l-4.1-0.6l7.9-77.7l-18.2-2l-31.2-3.7l-29.5-3.8l-17.6-2.4l-1.6-0.2l-4.3,31.3l-4.9,37l-5.1,39.1l-4.5,35.7
  		l-4.8,38.4l-10.7-1.3l-29.9-4l-32.8-4.7l-31-4.8l-17.6-2.8l1.1,7.2l5.9,4.9l2.3,1.7l3.2,8.8l7.3,4.8l4.4,8.8l10.4,13.1l16.6,15.2
  		l4.8,33.3l7.7,13.5l10.1,11.6l14.6,12.6l14.3,4.4l18.4-28.4l2.2-2.2l7.4-1.9l6.9,2.6l28.4,2l4.4,6.4l9.8,11.6l3.4,7.1l6.3,5.5
  		l9.8,31.1l9.5,12.3l4.8,12.6l10.5,8.6l7.4,32.3l9.9,17.7l10.4,8.2l9.4,1.6l9.3,6.2l17.6,2.4l11.9,6.7l11.3,1.6L908.4,1136.3z"/>
  	<path d="M856,917.8h-5.8v-18.2c0-1,0.3-1.7,0.9-2.6l-0.5-0.5c-1.1,0.4-2.2,0.4-3.4,0.4h-2.8v-4.5h17.5v4.5h-2.9
  		c-1.2,0-2.3,0-3.4-0.4l-0.5,0.5c0.6,0.8,0.9,1.6,0.9,2.6L856,917.8L856,917.8z"/>
  	<path d="M873.1,907.4h-0.9l-3.3,10.3h-6l5.9-12.7l-5.8-12.7h6.5l3.5,10.4h0.9l2.8-10.4h6.1l-5.9,12.7l5.8,12.7h-6.4L873.1,907.4z"
  		/>
  </a>
</g>
<g id="iowa">
  <a target="_blank" href="http://www.iowadnr.gov/Hunting/Hunting-Licenses-Laws">
  	<path class="state" d="M1006.4,550.2L987,549l-0.1-2.2l-2.8-3.1l2-6l-1-6.8l0.8-5.1l-2.2-1.2l1.9-3.9l-2.4-1.4l1.3-4.8l-2.2-0.9
  		v-2.9l-2.5,0.1l-0.1-5.9l1.7-4.4l-2.5-4.2l0.5-3.2l-3-2.8l-0.1-2.8l-2.2-2.9l0.7-3.9l-2.1-3.6l0.7-5.3l-2.5-0.8l0.2-1.9l-1.7-2.8
  		l0.8-0.8l-3.3-3.9l2.9-4.4l2-5.7h-0.2l2-4.8l-0.6-3.7l-2.7-0.8l0.7-1l-0.8-1.3l1.3-0.3l0.4-3.2l-1.6-2.7v-2.5l4.4,0.4l9.2,0.7
  		l26.8,1.8l28.3,1.5l25.8,1.2l24.4,0.8l26.7,0.7l11.5,0.2l2.1,23.4l2.5,7.3l10.5,3.7l1.8,3.9l-0.4,3.2l6,4.6l1,4.2l7,5.2l0.8,5
  		l-1.6,7l-3.4,2.9l-1.5,6.5l-9.7,5.1l-11,2l-2,6.9l4.3,5.1l0.2,5.5l-4.4,5.2l-1.6,6.5l-8.1,3.9l0.9,6.8l-2.9,1.5l-6.7-7.7l-1.5-2.1
  		l-19-0.4l-27-0.8l-29.6-1.3L1006.4,550.2z"/>
  	<path fill="none" stroke="#000000" stroke-width="1.949" d="M1046.6,517.3v-25.4"/>
  	<path d="M1058.9,491.9h7.9l5.5,25.4h-5.7l-0.6-2.8c-0.2-0.8-0.1-1.7,0.1-2.3l-0.4-0.3c-1,0.3-1.8,0.4-3.4,0.4c-1.7,0-2.4,0-3.5-0.4
  		l-0.3,0.3c0.1,0.5,0.2,1.7,0,2.7l-0.6,2.5h-5.5L1058.9,491.9L1058.9,491.9z M1061.9,494.7c-0.6,6.4-1.3,10.9-2.6,13.6l0.4,0.5
  		c1-0.3,1.9-0.3,2.8-0.3c0.8,0,1.7,0.1,2.5,0.3l0.4-0.5c-0.9-2-1.9-6.6-2.3-13.6H1061.9L1061.9,494.7z"/>
  </a>
</g>
<g id="north-dakota">
  <a target="_blank" href="https://gf.nd.gov/licensing">
  	<path class="state" d="M944.8,208.5l-23.2-2.7l-25.4-3.3l-24-3.4l-8.3-1.3l-69.4-11.9l-6.8,36.5l-7.1,38.6l-6.3,35.2l-1.8,10.2
  		l17.5,3.1l25.3,4.2L842,318l24.5,3.4l23.2,3l25.5,2.9l27,2.9l25.6,2.4l11.9,1.1l0.6-8.9l-0.5-6.5l-2.8-4.9l-1.6-8.6l2.1-10.8
  		l-1.1-0.5l-0.3-3.9l1.2-22.9l-5.5-23.1l0.9-15.5l2-4.4l-2.5-12.5h0.1l-5.6-0.6L944.8,208.5z"/>
  	<path d="M865.7,266.8c1.4,2.8,2.5,7,2.7,11.1h1.6c-0.6-4.6-1.1-8.8-1.1-12.7v-6.7h4.9v25.4H868l-5.4-11c-1.4-2.8-2.2-6.1-2.2-9.1
  		h-1.6c0.7,4.5,1.1,8.7,1.1,12.5v7.6H855v-25.4h6.6L865.7,266.8L865.7,266.8z"/>
  	<path d="M884.3,258.4c3.6,0,6.2,0.5,8.2,2.1c2.5,2.1,3.9,5.6,3.9,10.4c0,4.7-1,8.1-3.4,10.4c-2.2,2.2-4.8,2.5-8.5,2.5H878v-25.4
  		H884.3L884.3,258.4z M883.8,275.9c0,1.2,0,2.2-0.9,3.4l0.6,0.6c1.4-0.6,3.1,0,4.5-1c0.7-0.5,2-1.4,2-5.9v-1.8
  		c0-3.9-0.1-6.3-1.7-7.6c-1.3-1.1-3.6-0.8-4.8-1.2l-0.6,0.5c0.9,1.2,0.9,2.2,0.9,3.4V275.9z"/>
  </a>
</g>
<g id="south-dakota">
  <a target="_blank" href="http://gfp.sd.gov/licenses/general-hunt-fish/default.aspx">
  	<path class="state" d="M971.9,451.5h-0.2l2-4.8l-0.6-3.7l-2.7-0.8l0.7-1l-0.8-1.3l1.3-0.3l0.4-3.2l-1.6-2.7v-2.5l4.4,0.3l3.1-39.7
  		l2.6-32.1l-2.1-3.2l-4.3-1.9l-4.1-7.6l0.9-2.3l5.2-3.2l2.6-3.6v-0.1l0.9-3.9l-11.9-1.1l-25.6-2.4l-27-2.9l-25.5-2.9l-23.2-3
  		L842,318l-26.8-4.1l-25.3-4.2l-17.5-3.1l-6.7,37.6l-6.8,39.3l-7,40.5l18.5,3.1l26.7,4.2l28.2,4.1l25.8,3.5l24.4,2.9l26.8,3
  		l11.1,1.3l0.1-0.1l2.9,3.7l10.3,6.6l2.3-0.1l2.7-2.9l17.6,1.3l3.3,3.9l12.2,5.5l2,6l4,0.9l0.2-1.9l-1.7-2.8l0.8-0.8l-3.3-3.9
  		l2.9-4.4L971.9,451.5z"/>
  	<path d="M862.3,379.4h-1.9c-1.1-2.2-2.9-3.4-4.5-3.4c-1.9,0-3.1,1.1-3.1,2.5c0,2.5,3.1,3.4,7,5.4c1.6,0.8,3.9,3,3.9,6.3
  		c0,4.4-3.6,7.9-9.3,7.9c-2.4,0-4.8-0.6-7.4-1.7l0.2-6.3h1.7c1.1,2.4,3.2,3.8,5.4,3.8c2,0,3.4-1.3,3.4-2.8c0-2.6-2.7-3.2-5.2-4.4
  		c-3.6-1.8-5.4-4.2-5.4-7.3c0-4.4,3.1-7.3,8.7-7.3c2.2,0,4.3,0.5,6.5,1.4L862.3,379.4L862.3,379.4z"/>
  	<path d="M873.6,372.4c3.6,0,6.2,0.5,8.2,2.1c2.5,2.1,3.9,5.6,3.9,10.4c0,4.7-1,8.1-3.4,10.4c-2.2,2.2-4.8,2.5-8.5,2.5h-6.5v-25.4
  		L873.6,372.4L873.6,372.4z M873.1,389.9c0,1.2,0,2.2-0.9,3.4l0.6,0.6c1.4-0.6,3.1,0,4.5-1c0.8-0.5,2-1.4,2-5.9v-1.8
  		c0-3.9-0.1-6.3-1.7-7.6c-1.3-1.1-3.6-0.8-4.8-1.2l-0.6,0.5c0.9,1.2,0.9,2.2,0.9,3.4V389.9z"/>
  </a>
</g>
<g id="nebraska">
  <a target="_blank" href="https://ngpc-permits.ne.gov/NGPC-PS/faces/public/welcome">
    <path class="state" d="M983.2,519.2l1.3-4.8l-2.2-0.9v-2.9l-2.5,0.1l-0.1-5.9l1.7-4.3l-2.5-4.2l0.5-3.2l-3-2.8l-0.1-2.8l-2.2-2.9
    	l0.7-3.9l-2.1-3.6l0.7-5.3l-2.5-0.8l-4-0.9l-2-6l-12.2-5.5l-3.3-3.9l-17.6-1.3l-2.7,2.9l-2.3,0.1l-10.3-6.6l-2.9-3.7l-0.1,0.1
    	l-11.1-1.3l-26.8-3l-24.4-2.9l-25.8-3.5l-28.2-4.1l-26.7-4.2l-18.5-3.1l-6.7,39.8l-6.6,40.5l30.5,4.9l29.8,4.4l-5.3,38.7l28,3.7
    	l29.7,3.6l27.1,2.9l25.6,2.6l28.2,2.5l29.8,2.4l28.2,1.9l6.2,0.3l0.6-3l-2.2-3.4l0.4-1.8l-5.4-3.3l-0.6-8.3l-2.1-1.1l0.1-2.6
    	l-0.1-2.2l-2.8-3.1l2-6l-1-6.8l0.8-5.1l-2.2-1.2l1.9-3.9L983.2,519.2z"/>
    <path d="M855.4,502.3c1.4,2.8,2.5,7,2.7,11.1h1.6c-0.6-4.6-1.1-8.8-1.1-12.7v-6.7h4.9v25.4h-5.7l-5.4-11c-1.4-2.8-2.2-6.1-2.2-9.1
    	h-1.6c0.7,4.5,1.1,8.7,1.1,12.5v7.6h-4.9v-25.4h6.6L855.4,502.3L855.4,502.3z"/>
    <path d="M867.6,493.9h14.6v4.1h-5.7c-1.2,0-2.3,0-3.4-0.4l-0.6,0.5c0.6,0.8,0.9,1.6,0.9,2.5v1c0,0.8-0.3,1.6-0.9,2.4l0.6,0.6
    	c1.1-0.3,2.2-0.4,3.4-0.4h5.4v4.3h-5.4c-1.2,0-2.4-0.1-3.4-0.4l-0.6,0.6c0.7,0.9,0.9,1.7,0.9,2.7v1.1c0,0.9-0.3,1.7-0.9,2.5
    	l0.6,0.5c1.1-0.4,2.2-0.4,3.4-0.4h6.1v4.2h-15L867.6,493.9L867.6,493.9z"/>
  </a>
</g>
<g id="minnesota">
  <a target="_blank" href="http://www.dnr.state.mn.us/licenses/hunting/index.html?type=hunting">
  	<path class="state" d="M1128.7,290.1l21.3-16.6l9.6-3.5l11.3-10h-2.4l-6.9-3.3l-12.6-0.4l-8.4-3.2l-4.8,0.1l-6.2,3.2l-3.2,0.4
  		l-5.8-3l-3.9-4.8l-5.8-1.9l-3.4-3l-4.3-1.5l-2.5-1.5l-2.5-3.4l-4.6-2.9l-4.6-2l-12.4-1.6l-4.1,2.3l-5.1,0.1l-3.5-1.3l0.1-0.6
  		l-1.1-1.2l-6-2.1l-2.5-1.5l-4.7,0.6l-2.2-0.1l-0.6-0.8l-3.9,0.2l-3.7-10.6l-0.8-0.8l-4.6-15.8l-3.4-1l-2-0.1l-1.2,17.4l-28.9-2.1
  		l-26.3-2.3h-0.1l2.5,12.5l-2,4.4l-0.9,15.5l5.5,23.2l-1.2,22.9l0.3,3.9l1.1,0.5l-2.1,10.8l1.6,8.6l2.8,4.9l0.5,6.5l-0.6,8.9
  		l-0.9,3.9v0.1l-2.6,3.6l-5.2,3.2l-0.9,2.3l4.1,7.6l4.3,1.9l2.1,3.2l-2.6,32.1l-3.1,39.7l9.2,0.7l26.8,1.8l28.3,1.5l25.8,1.2
  		l24.4,0.8l26.7,0.7l11.5,0.2l-1-11.2l-2.5-5.5l-13-9.7l-2-5.3l-5.5-6.5l-4.5-2.5l-4.8,0.2l-3-4.4l-6.2-2.6l-2.4-3.6l2-6.8l-1.2-5.9
  		l1.6-1.7V366l3-5.3l-2.6-5.4l-3.9-1.2l0.4-5l2.8-2.5l2.8-5.5l9.5-4.3l2-2.2l0.7-23.2l2.2,0.1l1.4-3.4l2.5,2.3l3.7-4L1128.7,290.1z"
  		/>
  	<path d="M1016.5,331.4c0.5,1.9,1,5.5,1,10.6h1.6v-0.4c0-3.6,0.4-7,1.2-10.5l2-8.2h7.6v25.4h-4.8v-12.8c0-0.8,0.1-3.5,0.7-8.1h-1.6
  		c-0.1,3.3-0.8,6.2-1.6,9.1l-3.1,11.8h-3.2l-3.6-14.9c-0.5-1.9-0.7-3.9-0.8-6h-1.6c0.4,2.7,0.6,5.3,0.6,7.6v13.3h-4.5v-25.4h7.8
  		L1016.5,331.4L1016.5,331.4z"/>
  	<path d="M1045,331.3c1.3,2.8,2.5,7,2.7,11.1h1.6c-0.6-4.6-1.1-8.8-1.1-12.7v-6.7h4.9v25.4h-5.7l-5.4-11c-1.4-2.8-2.2-6.1-2.2-9.1
  		h-1.6c0.7,4.5,1.1,8.7,1.1,12.5v7.6h-4.9v-25.4h6.6L1045,331.3L1045,331.3z"/>
  </a>
</g>
<g id="wisconsin">
  <a target="_blank" href="http://dnr.wi.gov/Permits/">
  	<path class="state" d="M1124.1,421.9l2.5,5.5l1,11.2l2.1,23.4l2.5,7.3l10.5,3.7l1.8,3.9l-0.4,3.2l42-0.1l42.2-0.7l0.1-6.9
  		l-0.5-4.6l-2.2-9.3l-0.5-9l1.4-7.2l4.2-11l0.1-7l1.1-5.8l2.9-10l-0.1-4.7l1.1-7l2.6-6.7l4.4-7.9l3.7-10.2l-1.4-4.6l-6.9,8.3
  		l-0.2,4.7l-1.1,4.3l-3.7,0.7l-11.8,11.2l-0.1-2.5l3.6-8.2l1.2-2.5l3.4-2.9l3.4-6.5l-1.7-0.1l0.1-0.1l-4-3.2l2.2-6.7l-0.8-1.3
  		l-5.7,0.9l0.1-3.1l1.8-2.3l-0.8-2.7l1.1-1.1l-1.1-2.4l0.7-1.2l-3-2.9l-6.1-1.6l0.9-2.9l-0.9-2.2l-11.4-3.4l-3.4,0.9l-5.5-1.2
  		l-7.9-4.5l-28-7.4l-2.8-6.7l-3-2.2l-1.8,0.5l-0.4-1.4l-10-1.2l-2.1,2.1l-0.6-1.3l1.5-5.7l-0.2-4.6l-3-3.1l-18.8,11.3l-6.5,1.3
  		l-4.1-0.6l-2-3.3l-2.5-2.3l-1.4,3.4l-2.2-0.1l-0.7,23.1l-2,2.2l-9.5,4.3l-2.8,5.5l-2.8,2.5l-0.4,5l3.9,1.2l2.6,5.4l-3,5.3v7.1
  		l-1.6,1.7l1.2,5.9l-2,6.8l2.4,3.6l6.2,2.6l3,4.4l4.8-0.2l4.5,2.5l5.5,6.5l2,5.3L1124.1,421.9z"/>
  	<path d="M1149.7,417.3l-5.1-25.4h5.7l0.9,6.6c0.7,5.1,1.1,9.6,1.2,13.3h1.5c0-4,0.8-8.3,1.7-13.1l1.3-6.7h4.9l1.2,6.2
  		c1.1,5.3,1.7,9.9,1.9,13.6h1.5c0-4.5,0.4-9,1.1-13.3l1.1-6.6h5.2l-5.1,25.4h-5.8l-1.6-8.9c-0.6-3.2-1.2-7-1.3-11.6h-1.6v0.3
  		c0,3.7-0.6,7.5-1.3,11.5l-1.7,8.8L1149.7,417.3L1149.7,417.3z"/>
  	<path fill="none" stroke="#000000" stroke-width="1.949" d="M1179.8,417.3v-25.4"/>
  </a>
</g>
<g id="michigan">
  <a target="_blank" href="http://www.michigan.gov/dnr/0,4570,7-153-10363_14518---,00.html">
  	<path class="state" d="M1294.1,304.9l4.3-0.1l1.4,2.8l0.4,5.4l4.7,2.2l3.8,0.6l7.2-1.4l3.9-0.3l1.3,1.7l0.6,2.4l1.4,2.5l0.7,5.7
  		l3.2,1.7l2,2.7l2.6,1.3l0.6,1.5l-0.2,0.3l-3.4,0.3l-9.1,3.2l-2.3-2.6l-2.6-1.4l-1.1,2.2l-0.3,3.7l-4.1,0.3l-2.3-2.7l-1.5-0.8
  		l-5.4-2.5l-6.3-1.2l-6,1.6l-3.2,4.4l-7.9,1.4l-7,2.5l-8.6,9.9l-2.8,0.4l-0.1-9.8l-3.5,3.2l-3.9,1.9l-1.5-0.2l-5.1,6l-10.8,20.1
  		l-1.7-0.1l0.1-0.1l-4-3.2l2.2-6.7l-0.8-1.3l-5.7,0.9l0.1-3.1l1.8-2.3l-0.8-2.7l1.1-1.1l-1.1-2.4l0.7-1.2l-3-2.9l-6.1-1.6l0.9-2.9
  		l-0.9-2.2l-11.4-3.4l-3.4,0.9l-5.5-1.2l-7.9-4.5l-28-7.4l-2.8-6.7l-3-2.2l-1.8,0.5l-0.4-1.4l6.5-0.6l9.8-6.9l6.1-2.1l7.6-1.6
  		l5.3-4.3l5.5-3.1l5.9-6.9l7.4-5.3l5.6-3.2l5.4-2l5.4-0.3l1.2,0.2l-0.2,2.4l-4.5,3.4l-7.9,9.9l-3.3,1.8l-2.3,3.4l-0.5,6.1l0.3,2
  		l3.9-4l2.5,0.6l7.9-1.7l9.3,4.9l3.1,4.8l6,5.5l4.6-1.1l12.3,2l2.7-1l3.2-4.1l4.5-1.8l4.8-3.2l15.4-0.6l4.3-1.1L1294.1,304.9z"/>
  	<path class="state" d="M1320.7,347.3l-3.3,0.9l-1.1-1l-6-1.3l-5.8,1l-2.5,3.4l0.1,2.8l0.8,2.7l2.7,3.3l-0.9,1.6l-6.6,3.2l-4.6,1.3
  		l0.1,7.1l-0.6,5.4l-2.5,3.1l-1.7,1.7l-0.8-1.5l-1-7l-1.4-2.7l-2.4,1.6l-2.7,3.3l-6.7,4.9l-0.8,4.6l-2.7,3.6l0.3,5.3l-0.8,3.4
  		l-0.4,6.7l0.8,1.8l-2.9,2.5l-0.8,9.8l-2.4,11.6l4.4,12.3l3.4,5.1l1.8,4.8l-0.1,18.4l-4.6,14.3l-5.5,11.4l-0.8,4.6l-7.5,5.3
  		l32.2-1.2l31.5-1.6l0.1,2l41.6-2.8l2.1-3.9l6.6-8.1l-0.1-6.2l2-6.5l2.7-3.2l-0.3-3.7l0.7-2.9l3-3.5l6.5-0.6l2.6-15l-0.1-3.9
  		l-0.8,1.2l-1.8-2.5l-2.1-4.3l-2.6-11.1l-0.9-6.1l-2.7-5.9l-7.2-9.6l-4.4,1.1l-8.3,4.3l-0.8,0.9l-3,8.7l-3.6,2.8l-3.1,1.5l-3.6-1.1
  		l-1.5-2.2l0.9-4.9l2.2-5.3l6.9-6.5l1.8-5.3l3-3.8l1-3.3l-0.4-5.3l-3.2-11.2l-1.8-3.1l-0.7-4l1.4-2.3l0.9-0.4l-4-6.5l-3.6-2.9
  		l-8-2.5l-3.3-2.3l-2.6-0.7l-6.9-4.8L1320.7,347.3z"/>
  	<path d="M1298.3,422.4c0.4,1.9,1,5.5,1.1,10.6h1.6v-0.4c0-3.6,0.4-7,1.2-10.5l2-8.2h7.6v25.4h-4.8v-12.8c0-0.8,0.1-3.5,0.7-8.1
  		h-1.6c-0.1,3.3-0.8,6.2-1.6,9.1l-3.1,11.8h-3.2l-3.6-14.9c-0.5-1.9-0.7-3.9-0.8-6h-1.6c0.4,2.7,0.6,5.3,0.6,7.6v13.3h-4.5v-25.4
  		h7.8L1298.3,422.4L1298.3,422.4z"/>
  	<path fill="none" stroke="#000000" stroke-width="1.949" d="M1319.7,439.3v-25.4"/>
  </a>
</g>
<g id="illinois">
  <a target="_blank" href="https://www.dnr.illinois.gov/LPR/Pages/LicenseAndPermitFees.aspx">
  	<path class="state" d="M1213.8,692.3l-2.9-5.2l0.8-4.4l12.7-4l-2.5-7l3.4-6l-0.1,0.1l-1.5-0.5l1.9-0.8l-2.4-2l2.3-0.4l-0.4-5.8
  		l2.4-1.5l-1.8-0.6l2.8-2l-1.8-3.5l1.5-2.7l2.8,0.4l2.8-6.9l3.4-1.5l-0.7-2.6l4.6-7.6l-1.5-4.9l0.6-3.4l-4.4-6.2l2.4-3.9l-1.3-3.9
  		l3-2.9l-1.4-50.4l-1.3-43.4l-1.9-3.2l-2.2-6.8l-5-12.1l-0.1-7.6l-42.2,0.7l-42,0.1l6,4.6l1,4.2l7,5.2l0.8,5.1l-1.6,7l-3.4,2.9
  		l-1.5,6.5l-9.7,5l-11,2l-2,6.9l4.3,5.1l0.2,5.5l-4.3,5.2l-1.6,6.5l-8.1,3.9l0.9,6.8l-2.9,1.5l-1.6,9.8l4.1,15.9l8.4,7.8l1.9,3.5
  		l7.8,5.8l2.8,13l2.1,3.4l2.2,0.3l3.7-3.4l5.2,1.7l4.6,3.4l-0.2,1.3l-2.2,3.5l0.4,3.6l-5.9,11.1l0.6,5.3l10.1,9.9l3.6,0.8l12.8,10.9
  		l-0.1,4.8l2.7,5.9l-2.5,5.8l1.8,1l2.6,7.7l3.4,2.1l-1-2.9l1.3-0.6l2.5,4.1l2.5,0.6l-0.5-0.6l-1.3-3.6l5.8-6l14.8,6.2L1213.8,692.3z
  		"/>
  	<path fill="none" stroke="#000000" stroke-width="1.949" d="M1181.3,612.5v-25.4"/>
  	<path d="M1189.1,587.1h5.8v17.9c0,1.8-0.4,2.4-0.9,3.1l0.6,0.5c1.1-0.4,2.2-0.4,3.4-0.4h5.3v4.2H1189L1189.1,587.1L1189.1,587.1z"
  		/>
  </a>
</g>
<g id="indiana">
  <a target="_blank" href="http://www.in.gov/dnr/fishwild/6486.htm">
  	<path class="state" d="M1276.2,653.8l-2.6,1.4l0.4,4l-2.4,0.8l-1.3,2.9l-0.6-2.3l-3.1,0.4l-2.7-3.5l-6,3.2l-2.9,5.2l-9.3-5.8
  		l-4.9,1.2l-0.9-2.4l0.1,4.6l-1.9,1.3l-1.1-3.1l-3.7,1.3l-2.8-2l-1.4,0.9l1,3.4l-1.7,1.7l-2.8-1.3l-0.1,0.1l-1.5-0.5l1.9-0.8l-2.4-2
  		l2.3-0.4l-0.4-5.8l2.4-1.5l-1.8-0.6l2.8-2l-1.8-3.5l1.5-2.7l2.8,0.4l2.8-6.9l3.4-1.5l-0.7-2.6l4.6-7.6l-1.5-4.9l0.6-3.4l-4.4-6.2
  		l2.4-3.9l-1.3-3.9l3-2.9l-1.4-50.4l-1.3-43.4l2.5,1.1l3.7,1.3l4.6,0.1l7-4.8l32.2-1.2l31.5-1.6l0.1,2l3,50.4l3.2,54.1l-0.2,0.3
  		l-2,1.6l2,3.1l-1.3,2.8l2.8,0.8l-0.6,3.9l-5.5,0.5l-6,4l-3.2-2.2l-5.2,1.1l1.1,7.4l-5.8,4l-2,6l-4.8,1l-2,4l-0.4,5.7l-3.9,3.2
  		l-7.3-3.6l-0.5-3.2l-2.9-2.1l1.3,2.5l-4.1,0.4L1276.2,653.8z"/>
  	<path fill="none" stroke="#000000" stroke-width="1.949" d="M1268.8,591.3v-25.4"/>
  	<path d="M1287.2,574.3c1.4,2.8,2.5,7,2.7,11.1h1.6c-0.6-4.6-1.1-8.8-1.1-12.7v-6.7h4.9v25.4h-5.7l-5.4-11c-1.4-2.8-2.2-6.1-2.2-9.1
  		h-1.6c0.7,4.5,1.1,8.7,1.1,12.5v7.6h-4.9v-25.4h6.6L1287.2,574.3L1287.2,574.3z"/>
  </a>
</g>
<g id="ohio">
  <a target="_blank" href="https://oh-web.s3licensing.com/Home">
  	<path class="state" d="M1420.3,600.2l0.4,3l-2,1.1l2.2,5.8l-2.1-0.6l-2.7,2.9l-0.6-4.3l-3.5-0.4l-4.6,9.7l1.8,6.5l-2.9,1.4
  		l-1.1,5.8l-8.1,2l-4-4.9l-4.3-1.3l-2.6-6.5l-3.9,1.5l-3.4,4.3l-4.8,1.3l-6.9-3.9l-3.2,1.2l-1,2.2l-3-0.6l-4.4-4.4l-10.7-1.4
  		l-3.2-7.5l-4.8-3.6l-5.1,1.8l-3.9-2.5l-2.6,2.1l0.2-0.3l-3.2-54.1l-3-50.4l41.6-2.8l8.2,2.2l4.1,3.2l2.7,0.6l4-0.6l1.5,1.8
  		l10.4,0.8l9.9-4.3l9-0.8l18-13.7l10-5.8l7.8-2.3l5.9,53.4l-0.1-0.1l-3.4,1.4l-1,1.5l2.7,4.6l-0.6,2.8l1.2,3.4l-3.1,9.3l0.1,6.8
  		l-1.5,0.4l0.5,2.2l-1.8,4l1.3,1.9l-1,4.1l-9.8,10.1l-4.2,2.4l-3.1-2.4l-3.1,5.8l-3.4,0.9L1420.3,600.2z"/>
  	<path d="M1374.1,544.9c6.4,0,9.6,4.4,9.6,13.1c0,8.8-3.2,13.2-9.6,13.2c-6.4,0-9.6-4.4-9.6-13.2
  		C1364.6,549.3,1367.9,544.9,1374.1,544.9 M1370.9,558.1c0,6.1,0.6,8.9,3.3,8.9c2.8,0,3.3-2.8,3.3-9.4c0-5.8-0.7-8.3-3.3-8.3
  		C1371.5,549.2,1370.9,552,1370.9,558.1"/>
  	<path d="M1393,552.7c0,1.1,0,2.1-0.9,3.1l0.5,0.6c1.1-0.3,2.2-0.4,3.4-0.4c1.2,0,2.4,0.1,3.5,0.4l0.6-0.6c-0.9-1.2-0.9-2.2-0.9-3.4
  		v-7.1h5.8v25.4h-5.8v-7.1c0-1.2,0-2.2,0.9-3.4l-0.6-0.6c-1.1,0.4-2.2,0.4-3.5,0.4c-1.2,0-2.3,0-3.5-0.4l-0.5,0.6
  		c0.9,1.2,0.9,2.1,0.9,3.4v7.1h-5.8v-25.4h5.8L1393,552.7L1393,552.7z"/>
  </a>
</g>
<g id="kentucky">
  <a target="_blank" href="https://app.fw.ky.gov/solar/">
  	<path class="state" d="M1336.8,609.2l-5.1,1.8l-3.9-2.5l-2.6,2.1l-2,1.6l2,3.1l-1.3,2.8l2.8,0.8l-0.6,3.9l-5.5,0.5l-6,4l-3.2-2.2
  		l-5.2,1.1l1.1,7.4l-5.8,4l-2,6l-4.8,1l-2,4l-0.4,5.7l-3.9,3.2l-7.3-3.6l-0.5-3.2l-2.9-2.1l1.3,2.5l-4.1,0.4l0.9,2.4l-2.6,1.4l0.4,4
  		l-2.4,0.8l-1.3,2.9l-0.6-2.3l-3.1,0.4l-2.7-3.5l-6,3.2l-2.9,5.2l-9.3-5.8l-4.9,1.2l-0.9-2.4l0.1,4.6l-1.9,1.3l-1.1-3.1l-3.6,1.3
  		l-2.8-2l-1.4,0.9l1,3.4l-1.7,1.7l-2.8-1.3l-3.4,6l2.5,7l-12.7,4l-0.8,4.4l2.9,5.2l-3.4,3.6l-14.8-6.2l-5.8,6l1.3,3.6l0.5,0.6
  		l-0.4,7.8l-3.7,8.2l-4.3-2.2l-2.3,5l45.6-0.6l-1.3-7.6l7.1,0.5l0.6,1.4l40.9-1.2l1.5-1.5l44.5-1.9l47.3-2.7l17.5-4.1l1.9-4.3
  		l6.2-2.5l0.3-3.4l4.1-2.7l0.1-3.3l10.1-6.5l11.9-12v0.1l-5.5-0.7l-1.6-2.6l-3.8-1.5l-1-3.5l-5.9-6.2l0.4-2l-6-6.7l1.8-3.6l-1.1-6.8
  		l0.1,0.3l-4-4.9l-4.3-1.3l-2.6-6.5l-3.9,1.5l-3.4,4.3l-4.8,1.3l-6.9-3.9l-3.2,1.2l-1,2.2l-3-0.6l-4.4-4.4l-10.7-1.4l-3.2-7.5
  		L1336.8,609.2z"/>
  	<path d="M1303.4,670.5c0,2.5-0.2,4.9-0.5,7.3l0.9,0.2c0.5-1.9,1.4-3.9,2.5-6l3.9-7.6h6.3l-4.1,7.6c-0.8,1.4-1.6,2.6-2.9,3.6v0.4
  		c1.2,0.8,1.8,2.2,2.6,4l4.5,9.7h-6.4l-3.7-8.4c-0.5-1.1-0.8-2.2-1-3.3h-0.6l-1.8,3.8c0.1,0.4,0.2,0.8,0.2,1.6v6.2h-5.8v-25.4h5.8
  		L1303.4,670.5L1303.4,670.5z"/>
  	<path d="M1323,664.4l1.2,3c1.3,3.1,2.2,6.1,2.3,9.4h1.1c0.2-3.4,1.2-6.4,2.3-9.3l1.2-3.1h5.8l-7.2,15.6v9.8h-5.7V680l-7.2-15.6
  		L1323,664.4L1323,664.4z"/>
  </a>
</g>
<g id="tennessee">
  <a target="_blank" href="http://www.tn.gov/twra/topic/hunting-licenses">
  	<path class="state" d="M1222.9,777.6l42.3-1.1l42.3-1.5l42.8-2.2l0.6-8.7l1.7-1.7l5.2-0.1l1.8-6.5l3.9-3.9l4.6-2.2l8.1-0.8
  		l10.3-8.4l5.6-1.3l2.4-4.3l-0.1-2.7l3.3,0.6l1.1-2.9l4.3-2.7l2.5,3.9l8.1-7.8l2.8-1.1l4.4,1.9l4.8-8.6l3-2.5l3.2,0.4l-1.3-2.3
  		l1.4-3.6l-0.8-1.7l1.4-5.9l-65.2,5l-47.3,2.7l-44.5,1.9l-1.5,1.5l-40.9,1.2l-0.6-1.4l-7.1-0.5l1.3,7.6l-45.6,0.6l-1,2l-0.8-4.3
  		l-2.2,0.4l1.5,6.9l-3.2,1.8l2,2.9l-4.1,0.6l2.7,4.3l-4,5.3l2.2,3.9l-3.7,0.8l1.9,1.7l-0.8,1.3l-6.6,3.3l1.6,3.6l-1.8,1.5l1.1,2.8
  		l-2.9,0.5l-3.6,6.7l0.8,8.6l-2.7,0.3l-1.1,2.8l-3.3,1.5h32.2L1222.9,777.6z"/>
  	<path d="M1273.7,755.3h-5.8v-18.2c0-1,0.3-1.7,0.9-2.6l-0.5-0.5c-1.1,0.4-2.2,0.4-3.4,0.4h-2.8v-4.5h17.5v4.5h-2.8
  		c-1.2,0-2.3,0-3.4-0.4l-0.5,0.5c0.6,0.8,0.9,1.6,0.9,2.6L1273.7,755.3L1273.7,755.3z"/>
  	<path d="M1292.7,738.3c1.4,2.8,2.5,7,2.7,11.1h1.6c-0.6-4.6-1.1-8.8-1.1-12.7v-6.7h4.9v25.4h-5.7l-5.4-11c-1.4-2.8-2.2-6.1-2.2-9.1
  		h-1.6c0.7,4.5,1.1,8.7,1.1,12.5v7.6h-4.9v-25.4h6.6L1292.7,738.3L1292.7,738.3z"/>
  </a>
</g>
<g id="missouri">
  <a target="_blank" href="https://huntfish.mdc.mo.gov/permits?filter1=hunting">
  	<path class="state" d="M1176,733.3l-2.7-4.3l4.1-0.6l-2-2.9l3.2-1.8l-1.5-6.9l2.2-0.4l0.8,4.3l1-2l2.3-5l4.3,2.2l3.7-8.2l0.4-7.8
  		l-2.5-0.6l-2.5-4.1l-1.3,0.6l1,2.9l-3.4-2.1l-2.6-7.7l-1.8-1l2.5-5.8l-2.7-5.9l0.1-4.8l-12.8-10.9l-3.6-0.8l-10.1-9.9l-0.6-5.3
  		l5.9-11.1l-0.4-3.6l2.2-3.5l0.2-1.3l-4.6-3.4l-5.2-1.7l-3.7,3.4l-2.2-0.3l-2.1-3.4l-2.8-13l-7.8-5.8l-1.9-3.5l-8.4-7.8l-4.1-15.9
  		l1.6-9.8l-6.7-7.7l-1.5-2.1l-19-0.4l-27-0.8l-29.6-1.3l-28-1.5L987,549l-0.1,2.6l2.1,1.1l0.6,8.3l5.4,3.3l-0.4,1.8l2.2,3.4l-0.6,3
  		l6.5,5.6l2.7,1.8l4.8-1l2,6.3h-3l-4.8,7.3l6.1,7.1l1.8,6.8l6.8,2.6l-2,39.5l-2.3,46.4l-0.9,19.8l29.6,1.3l31.4,1l28.6,0.7l27,0.4
  		l27.1,0.1l3.3,5.3v3.7l-7.6,6.9l-2.8,4.4h21.3L1176,733.3z"/>
  	<path d="M1070.1,629.4c0.4,1.9,1,5.5,1.1,10.6h1.6v-0.4c0-3.6,0.4-7,1.2-10.5l2-8.2h7.6v25.4h-4.8v-12.8c0-0.8,0.1-3.5,0.7-8.1
  		h-1.6c-0.1,3.3-0.8,6.2-1.6,9.1l-3.1,11.8h-3.2l-3.6-14.9c-0.5-1.9-0.7-3.9-0.8-6h-1.6c0.4,2.7,0.6,5.3,0.6,7.6v13.3h-4.5v-25.4
  		h7.8L1070.1,629.4L1070.1,629.4z"/>
  	<path d="M1096.7,620.5c6.4,0,9.6,4.4,9.6,13.1c0,8.8-3.2,13.2-9.6,13.2c-6.4,0-9.6-4.4-9.6-13.2
  		C1087.2,624.8,1090.4,620.5,1096.7,620.5 M1093.4,633.6c0,6.1,0.6,8.9,3.3,8.9c2.8,0,3.3-2.8,3.3-9.4c0-5.8-0.7-8.3-3.3-8.3
  		C1094,624.7,1093.4,627.5,1093.4,633.6"/>
  </a>
</g>
<g id="arkansas">
  <a target="_blank" href="https://www.agfc.com/en/resources/licensing/huntinglicenses/">
  	<path class="state" d="M1144.6,789.3l3.2-0.2V786l6.5-3.9l-1.4-4.1l3.3-1.5l1.1-2.8l2.7-0.3l-0.8-8.6l3.6-6.7l2.9-0.5l-1.1-2.8
  		l1.8-1.5l-1.6-3.6l6.6-3.3l0.8-1.3l-1.9-1.7l3.7-0.8l-2.2-3.9h-21.3l2.8-4.4l7.6-6.9v-3.7l-3.3-5.3l-27.1-0.1l-27-0.4l-28.6-0.7
  		l-31.4-1l-29.6-1.3l2.5,45.3l-3.2,69.9l2.5,3.4l6.9-1l4.8,1.6l-0.8,21.8l48.1,1.4l49.7,0.8l-0.4-4.2l2.2-2.2l-0.4-3.7l-2.5-2
  		l1.8-6.5l-3.4-3.2l2.6-1l0.3-1.8l-2.7-2.3l5.6-4.3l1.3-5.9l-2-1.9l7-2.5l0.3-2.1l-2.9-1.9l3.2-2.1l1.3-3.2l1.9,0.2v-3.7l6.2-2
  		l-0.4-8.1L1144.6,789.3z"/>
  	<path d="M1056,774.4h7.9l5.5,25.4h-5.7l-0.6-2.8c-0.2-0.8-0.1-1.7,0.1-2.3l-0.4-0.3c-1,0.3-1.8,0.4-3.4,0.4c-1.7,0-2.4,0-3.5-0.4
  		l-0.3,0.3c0.1,0.4,0.2,1.7,0,2.7l-0.6,2.5h-5.5L1056,774.4L1056,774.4z M1059,777.2c-0.6,6.4-1.4,10.9-2.6,13.6l0.4,0.5
  		c1-0.3,1.9-0.3,2.8-0.3c0.8,0,1.7,0.1,2.5,0.3l0.4-0.5c-0.9-2-1.9-6.6-2.3-13.6H1059L1059,777.2z"/>
  	<path d="M1079.2,774.4c2.7,0,4.9,0.1,6.6,1.1c2.1,1.3,3.3,3.4,3.3,6.1c0,3.4-1.7,5.3-4.1,5.8l-0.1,0.7l6.3,11.7h-6.8l-4.6-10.4
  		c-0.9,0-1.7-0.2-2.5-0.5l-0.5,0.6c0.8,1,0.8,2.4,0.8,4.5v5.8h-5.9v-25.4L1079.2,774.4L1079.2,774.4z M1076.3,778.8
  		c0.4,0.5,0.8,1.6,0.8,2.6v1.2c0,1.3-0.1,2.2-0.8,3.1l0.5,0.5c1.6-0.3,3.1-0.2,4.4-0.5c1.4-0.4,2.4-1.7,2.4-3.4
  		c0-1.6-0.8-2.9-2.3-3.4c-1.2-0.4-2.7-0.2-4.4-0.7L1076.3,778.8L1076.3,778.8z"/>
  </a>
</g>
<g id="louisiana">
  <a target="_blank" href="http://www.wlf.la.gov/licenses/hunting">
  	<path class="state" d="M1150.2,1009.9h-2.9l-3.2,1.7l-3.4-2.3l-5.3,2.6l-5.3-1.7l-1.8-1.9l-7.3-0.5l-7-10.7l-4-0.9l-4.2-4.6
  		l-10-5.3l-6.1-0.2l-2,2l0.2,3.5l-4.1,3.6l-7.6-0.4l-8.1-1.6l-6.8-3.1l-13.4-4.4l-19.6,2.4l-3.2-4.1l3.5-3.1l2-4.2l2.5-2.7l1-3.2
  		l-0.4-5.6l-1.3-2.6l2.1-4.1l-1.1-3.9l6.2-10.7l-0.2-2.9l1.5-1.9l-1.3-2.6l2.1-1.1l-1.4-2.5l0.8-3.6l-1.1-0.3l0.1-0.1l-1.2-0.2
  		l-2.5-4.9l1.1-2.1l-3.2-4.3l0.8-1.5l-3.6-3.3l0.8-4.4l-0.8-3.3l-6.7-8.7l1.6-40.4l48.1,1.4l49.7,0.8l-0.6,1.7l3.1,2l-2.9,6.4
  		l2.9,2.6l-3.3,2l2.4,3.7l-0.4,3.7l6.7,5.6l-4.4,7.4l-2.3,0.1l0.5,4.9l-9.5,7.4l-2.5,9.8l-3.4,2.8l1.2,4.1l-1.2,4.4l-4.4,1.3
  		l2.5,7.9l-3,2.9l0.3-0.2l66.3,0.4l-3.9,13l1.5,4.4l4.4,4l2.7,8.5l-9.8-1.9l-9.2-4.3l-8.1,2.5l-1.9,6.9l5.1,4.4l6.3-0.3l5-3.7
  		l2.5-0.3l1.5,0.4l1.6,7.2l2.5,0.4l3.7-3.2l7.4-3.3l1.4,0.3l1.5,1.4l-1.6,9l-7.3,5.3l-2.7,5l-0.1,1.6l4.7,6.1l10.5,5.1l2.9,4.1
  		l-1,2.9l-4.6,1.9l-2.6,1.2l-6.7-8.9l-7.4-3.4l-4.6-4.3h-3.3l-1.1,0.9l0.4,2.4l-0.9,2l-4.4,5.3L1150.2,1009.9z"/>
  	<path d="M1058.8,901.4h5.8v17.9c0,1.8-0.4,2.4-0.9,3.1l0.6,0.5c1.1-0.4,2.2-0.4,3.4-0.4h5.3v4.2h-14.2L1058.8,901.4L1058.8,901.4z"
  		/>
  	<path d="M1080.1,901.4h7.9l5.5,25.4h-5.7l-0.6-2.8c-0.2-0.8-0.1-1.7,0.1-2.3l-0.4-0.3c-1,0.3-1.8,0.4-3.4,0.4c-1.7,0-2.4,0-3.5-0.4
  		l-0.3,0.3c0.1,0.5,0.2,1.7,0,2.7l-0.6,2.5h-5.5L1080.1,901.4L1080.1,901.4z M1083.1,904.2c-0.6,6.4-1.3,10.9-2.6,13.6l0.4,0.5
  		c1-0.3,1.9-0.3,2.8-0.3c0.8,0,1.7,0.1,2.6,0.3l0.4-0.5c-0.9-2-1.9-6.6-2.3-13.6H1083.1L1083.1,904.2z"/>
  </a>
</g>
<g id="mississippi">
  <a target="_blank" href="http://www.mdwfp.com/license.aspx">
  	<path class="state" d="M1125.2,839.4l-3.4-3.2l2.6-1l0.3-1.8l-2.7-2.3l5.5-4.3l1.3-5.9l-2-1.9l7-2.5l0.3-2.1l-2.9-1.9l3.2-2.1
  		l1.3-3.2l1.9,0.2v-3.7l6.2-2l-0.4-8.1l1.3-4.3l3.2-0.2V786l6.5-3.9l-1.4-4.1h32.2l37.8-0.4l3.6,4.2l-5.1,54.4l-6.4,66.2l3.7,60.4
  		l-21-1l-7.4,4.4l-5.3-1.5l-7.9,4l-2.7-8.5l-4.4-4l-1.5-4.4l3.9-13l-66.3-0.4l-0.3,0.2l3-2.9l-2.5-7.9l4.4-1.3l1.2-4.4l-1.2-4.1
  		l3.4-2.8l2.5-9.8l9.5-7.4l-0.5-4.9l2.3-0.1l4.4-7.4l-6.7-5.6l0.4-3.7l-2.4-3.7l3.3-2l-2.9-2.6l2.9-6.4l-3.1-2l0.6-1.7l-0.4-4.2
  		l2.2-2.2l-0.4-3.7l-2.5-2L1125.2,839.4z"/>
  	<path d="M1154.6,868.4c0.4,1.9,1,5.5,1.1,10.6h1.6v-0.4c0-3.6,0.4-7,1.2-10.5l2-8.2h7.6v25.4h-4.8v-12.8c0-0.8,0.1-3.5,0.7-8.1
  		h-1.6c-0.1,3.3-0.8,6.2-1.6,9.1l-3.1,11.8h-3.2l-3.6-14.9c-0.5-1.9-0.7-3.9-0.8-6h-1.6c0.4,2.7,0.6,5.3,0.6,7.6v13.3h-4.5v-25.4
  		h7.8L1154.6,868.4L1154.6,868.4z"/>
  	<path d="M1187.1,866.9h-1.9c-1.1-2.2-2.9-3.4-4.5-3.4c-1.9,0-3.1,1.1-3.1,2.5c0,2.5,3.1,3.4,7,5.4c1.6,0.8,3.9,3,3.9,6.3
  		c0,4.4-3.6,7.9-9.3,7.9c-2.4,0-4.8-0.6-7.4-1.7l0.2-6.3h1.7c1.1,2.4,3.2,3.8,5.4,3.8c2,0,3.4-1.3,3.4-2.8c0-2.6-2.7-3.2-5.2-4.4
  		c-3.6-1.8-5.4-4.2-5.4-7.3c0-4.4,3.1-7.3,8.7-7.3c2.2,0,4.3,0.5,6.5,1.4L1187.1,866.9L1187.1,866.9z"/>
  </a>
</g>
<g id="alabama">
  <a target="_blank" href="http://www.outdooralabama.com/alabama-license-information">
  	<path class="state" d="M1218.7,962.7l5.5,0.7l2.5-1.4l5.1-20.8l1.4,4.1v5.7l1.7,8l-0.2,2.7l-1.5,4.2l0.9,2l5.7-0.8l13.3-4.3
  		l-1-6.5l1.5-5l-8-7.9l0.4-5.8l42.6-1.1l47.2-1.8l-3.5-6.9l1.2-22.2l-2.4-7l0.9-9.1l5.2-5.9l-3.6-2.5l1-3.5l-5.2-8.6l-3.5-14
  		l-8.9-38.9l-9.3-41.2l-42.3,1.5l-42.3,1.1l3.6,4.2l-5.1,54.4l-6.4,66.2L1218.7,962.7z"/>
  	<path d="M1256.5,851.1h7.9l5.5,25.4h-5.7l-0.6-2.8c-0.2-0.8-0.1-1.7,0.1-2.3l-0.4-0.3c-1,0.3-1.8,0.5-3.4,0.5c-1.7,0-2.4,0-3.5-0.5
  		l-0.3,0.3c0.1,0.5,0.2,1.7,0,2.7l-0.6,2.5h-5.5L1256.5,851.1L1256.5,851.1z M1259.5,853.9c-0.6,6.4-1.3,10.9-2.6,13.6l0.4,0.5
  		c1-0.3,1.9-0.3,2.8-0.3c0.8,0,1.7,0.1,2.6,0.3l0.4-0.5c-0.9-2-1.9-6.6-2.3-13.6H1259.5L1259.5,853.9z"/>
  	<path d="M1272.2,851.1h5.8V869c0,1.8-0.4,2.4-0.9,3.1l0.6,0.5c1.1-0.4,2.2-0.4,3.4-0.4h5.3v4.2h-14.2L1272.2,851.1L1272.2,851.1z"
  		/>
  </a>
</g>
<g id="georgia">
  <a target="_blank" href="http://georgiawildlife.com/licenses-permits-passes">
  	<path class="state" d="M1386.6,776.3l3.3-2.4l0.9-3.6h-0.1l-40.4,2.5l-42.8,2.2l9.3,41.2l8.9,38.9l3.5,14l5.2,8.6l-1,3.5l3.6,2.5
  		l-5.2,5.9l-0.9,9.1l2.4,7l-1.2,22.2l3.5,6.9l2.1,7l3.1,4.2l91.6,0.8l1.1,5.8l1.7,2l4.3-0.7l0.6-7.9l-1.5-6.7l2.4-3.5l11,2.9h4.9
  		l-0.5-10l3-6.5l1.3-7.5l1.4-5.4l6.3-18.6l3.6-6l1.9-0.6l-8.6-3.4l-0.5-7.8l-4.3-7.9l-5.9-3.2l-0.3-5.2l-4.1-8l0.1-2.3l-9.5-5.2
  		l-0.4-2l-2.8-1.5l-0.1-2.5l-3.3-1.8v-4.3l-9.7-7h-0.1l-3.6-5.6l-8.8-5.3l-1.5-2.6h0.1l-5.2-5.7l-3.4-7.4v0.1l-2.3-4.7l-5,0.1
  		l-4.8-4.4l-6.7-4L1386.6,776.3z"/>
  	<path d="M1378,874.1h-5V872h-0.8c-1.4,1.7-3,2.6-4.7,2.6c-1.6,0-3.4-0.9-4.9-2.5c-1.9-2.3-2.9-5.8-2.9-10.4
  		c0-8.8,3.8-13.3,10.7-13.3c2.6,0,5,0.7,7.6,2.1v5.7h-1.8c-1.4-2.2-3.1-3.3-5.2-3.3c-3.6,0-5,2.9-5,9.2c0,5.4,1.4,8.1,4.5,8.1
  		c0.5,0,1.1-0.1,2.1-0.5v-2.8c0-0.8,0-1.7,0.4-2.6l-0.4-0.4c-1.1,0.5-2.1,0.8-3.3,0.8h-0.4v-4.1h9.1V874.1L1378,874.1z"/>
  	<path d="M1386.8,848.7h7.9l5.5,25.4h-5.7l-0.6-2.8c-0.2-0.8-0.1-1.7,0.1-2.3l-0.4-0.3c-1,0.3-1.8,0.5-3.4,0.5c-1.7,0-2.4,0-3.5-0.5
  		l-0.3,0.3c0.1,0.5,0.2,1.7,0,2.7l-0.6,2.5h-5.5L1386.8,848.7L1386.8,848.7z M1389.8,851.5c-0.6,6.4-1.3,10.9-2.6,13.6l0.4,0.5
  		c1-0.3,1.9-0.3,2.8-0.3c0.8,0,1.7,0.1,2.6,0.3l0.4-0.5c-0.9-2-1.9-6.6-2.3-13.6H1389.8z"/>
  </a>
</g>
<g id="florida">
  <a target="_blank" href="http://myfwc.com/license/recreational/hunting/">
  	<path class="state" d="M1396.4,991.9l7,7.8l4.1,2.6l7.9,2.7l1.6,2.4l1.4,4.8l1.5,11.9l-2,22.5l0.3,3.9l1.6,6.7l0.3,0.6h2.9
  		l0.1-6.2l3,0.8l2.7,2.2l-2.2,8.5l-0.8,5.9l1.3,6.9l3.7,6.6l9.8,12.5l1.3,0.6l4.8-2.2l2.3,11.3l3.1-1.3l0.6,0.5l-1.6,3.2l-0.4,2.5
  		l6.1,8.1l3,8.6l2.2,4.1l3.5,3.5h5.7l3.9,3.2l7.6,14.2l0.2,8.4l0.7,1.4l2.9,2l8.6-0.6l6.3-2.1l7.9-4.6l5.3,2l2.6-5.2l-3.2-2.3
  		l2.2-13.5l3.6-14l-0.1-13.3l-2-13.4l-0.3-8.8l-13.6-28.1l-6.7-10.8l-2.3-8.2l0.1-11l-1.5-5.8l-5.5-9l-12.7-17.3l-10.7-24.7
  		l-9.1-29.6l1.2-3.9h-4.9l-11-2.9l-2.4,3.5l1.5,6.7l-0.6,7.9l-4.3,0.7l-1.7-2l-1.1-5.8l-91.6-0.8l-3.1-4.2l-2.1-7l-47.2,1.8
  		l-42.6,1.1l-0.4,5.8l8,7.9l-1.5,5l1,6.5l5.3-5.3l3.3-0.6l3.2-2.7l0.8,0.1l0.2,1.5l-1.8,4.8l4.6-0.3l13.8-3.9l7.1,0.1l2.9,0.9
  		l-0.3,2.2l-2,1l0.5,1l4.3,2.5l6.9,2.4l16.7,8.4l2.9,2.9l3.7,6.2l2.7,2l8.8-2.3l9.1-2l8.8-5.1l3.7-0.3l0.6-0.4l0.4-3.3l3.3-2.6
  		l5.5-0.7l3.3,0.4l6.5,2.1l4.8,3.9l6.6,7.2l3.3,1.5l0.8,6.1L1396.4,991.9z"/>
  	<path d="M1453.1,1000.5h-5.7c-1.2,0-2.3-0.1-3.4-0.4l-0.6,0.6c0.6,0.8,0.9,1.6,0.9,2.6v0.9c0,0.8-0.3,1.6-0.9,2.5l0.6,0.5
  		c1.1-0.4,2.2-0.5,3.4-0.5h5.4v4.3h-5.4c-1.2,0-2.3,0-3.4-0.4l-0.6,0.5c0.7,0.9,0.9,1.7,0.9,2.8v7.9h-5.8v-25.4h14.6L1453.1,1000.5
  		L1453.1,1000.5z"/>
  	<path d="M1455.5,996.4h5.8v17.9c0,1.8-0.4,2.4-0.9,3.1l0.6,0.5c1.1-0.4,2.2-0.4,3.4-0.4h5.3v4.2h-14.2V996.4z"/>
  </a>
</g>
<g id="south-carolina">
  <a target="_blank" href="http://www.dnr.sc.gov/licensing.html">
  	<path class="state" d="M1412.1,762.3l-7.8,2.4l-2.3,2.6l-0.9-0.8l-10.3,3.9h0.1l-0.9,3.6l-3.3,2.4l-3.5,6.8l6.7,4l4.8,4.4l5-0.1
  		l2.3,4.7v-0.1l3.4,7.4l5.2,5.7h-0.1l1.5,2.6l8.8,5.3l3.6,5.6h0.1l9.7,6.9v4.3l3.3,1.8l0.1,2.5l2.8,1.5l0.4,2l9.5,5.2l-0.1,2.3
  		l4.1,8l0.3,5.2l5.9,3.2l4.3,7.9l0.5,7.8l8.6,3.4l-0.9-3.2l0.6-1.4l5.3-3.5l3.1-0.3l1.7-3l-1.5-3.2l-3.4-4.3l-0.4-1.6l0.5-1.2
  		l9.7-1.7h9.7l2.8-1.1l12.8-13.1l1.3-0.1l2.6-2.3l1-4.3l5.4-2.5l3.3-3.4l1.3-4.1l-1.8-3.3l3.4-3.2l2.9-7.2l3.9-5.3l7.9-4.9l0.6-2.9
  		l-41.4-34.5l-36.9,3.6l-0.4-5.6l-5.5-6l-3.1,2.7l-1-3.8l-9.3,0.1l-34.8,0.8L1412.1,762.3z"/>
  	<path d="M1460.3,802.4h-1.9c-1.1-2.2-2.9-3.4-4.5-3.4c-1.9,0-3.1,1.1-3.1,2.5c0,2.5,3.1,3.4,7,5.4c1.6,0.8,3.9,3,3.9,6.3
  		c0,4.4-3.6,7.9-9.3,7.9c-2.4,0-4.8-0.6-7.4-1.7l0.2-6.3h1.7c1.1,2.4,3.2,3.8,5.4,3.8c2,0,3.4-1.3,3.4-2.8c0-2.6-2.7-3.2-5.2-4.4
  		c-3.6-1.8-5.4-4.2-5.4-7.3c0-4.4,3.1-7.3,8.7-7.3c2.2,0,4.3,0.5,6.5,1.4L1460.3,802.4L1460.3,802.4z"/>
  	<path d="M1481.6,802.9h-1.9c-1.1-2.2-2.5-3.3-4.2-3.3c-2.9,0-4.7,2.9-4.7,8.5c0,5.5,1.8,8.3,4.7,8.3c1.7,0,3.1-1.1,4.2-3.3h1.9v5.8
  		c-2.3,1.5-4.5,2.2-7,2.2c-6.1,0-10-4.6-10-13.1c0-8.6,3.8-13.1,10.2-13.1c2.4,0,4.5,0.7,6.8,2.2L1481.6,802.9L1481.6,802.9z"/>
  </a>
</g>
<g id="west-virginia">
  <a target="_blank" href="http://www.wvdnr.gov/hunting/licensing.shtm">
  	<path class="state" d="M1488.6,570.9l2,20.6v0.1l5.7-4.8l4.9-7.2l1.7-1l3,1.1l4.1-5.3l0.7-3.1l1.3,0.8l-0.2,1.8l5.5,1.2h0.1
  		l3.3-0.6l1.1-1.2l-1-0.8l1.4-0.7l-0.8-1.1l4.6-0.8l2.6-3.2l6.3,3l4.5-0.9l0.5,1.4l-1.3,0.8l0.9,1.7l1-0.9l0.1,1.5l1.7-0.4l-0.8,2.3
  		l2.2,0.9l0.5,3.4l-1.9,7.8l-17-10.5l-1.3,12.5l-4.6,8.1l-2.7,2.6l-1.5-0.5l-3.2,6.6l-4.2-2.2l-7.1,18.2l-7.1-1.5l-1.6-3.3l-3.4-0.7
  		l-0.7,6.5l-2.7,5l0.3,2l-3.4,4.1l-1.5,6.7l-5.9,8.4l-2.2,5.7l2.4,2.2l-2.5,2.6l1.3,1.8l-5.3,4.3l-2.5-1.3l-6.6,4.1l-3.6-1.4
  		l-0.8,1.2l0.8,2.1l-1.1,1.1l-9.8,4.1l-5-3.4l-1.4,2.7l-6.5,3.3l-7.1-2.7l-3.2-2.9l-0.3-2.7l-1.9-1.3l1.1-1.8l-0.7-0.9l-5.5-0.7
  		l-1.6-2.6l-3.8-1.5l-1-3.5l-5.9-6.2l0.4-2l-6-6.7l1.8-3.6l-1.1-6.8l0.1,0.3l8.1-2l1.1-5.8l2.9-1.4l-1.8-6.5l4.6-9.7l3.5,0.4
  		l0.6,4.3l2.7-2.9l2.1,0.6l-2.2-5.8l2-1.1l-0.4-3l1.9-3.8l3.4-0.9l3.1-5.8l3.1,2.4l4.2-2.4l9.8-10.1l1-4.1l-1.3-1.9l1.8-4l-0.5-2.2
  		l1.5-0.4l-0.1-6.8l3.1-9.3l-1.2-3.4l0.6-2.8l-2.7-4.6l1-1.5l3.4-1.4l0.1,0.1l4,37L1488.6,570.9L1488.6,570.9z"/>
  	<path d="M1430.1,634.3l-5.1-25.4h5.7l0.9,6.6c0.7,5.1,1.1,9.6,1.2,13.3h1.5c0-4,0.8-8.3,1.7-13.1l1.3-6.7h4.9l1.2,6.2
  		c1.1,5.3,1.7,9.9,1.9,13.6h1.5c0-4.5,0.4-9,1.1-13.3l1.1-6.6h5.2l-5.1,25.4h-5.8l-1.6-8.9c-0.6-3.2-1.2-7-1.3-11.6h-1.6v0.3
  		c0,3.7-0.6,7.5-1.4,11.5l-1.7,8.8L1430.1,634.3L1430.1,634.3z"/>
  	<path d="M1462.8,617.6c1,4.1,1.6,8.2,1.6,12.2h1.1c0.1-5,1.1-9,1.8-12.2l1.9-8.7h5.5l-7.1,25.4h-5.6l-7.2-25.4h5.8L1462.8,617.6z"
  		/>
  </a>
</g>
<g id="north-carolina">
  <a target="_blank" href="http://www.ncwildlife.org/Licensing/Hunting-Fishing-Trapping-Licenses">
    <path class="state" d="M1402,767.3l2.3-2.6l7.8-2.4l1.3-2l34.8-0.8l9.3-0.1l1,3.8l3.1-2.7l5.5,6l0.4,5.6l36.9-3.6l41.4,34.5
		l3.3-1.5l10.3-2.5l10.7-6.7l0.6-3.7l1.2-2.5l3-3.4l2.6-5.5l4.4-4.1l10.4-6.9l12.4-2.3l8.3-7l0.6-3.8l-0.8-4.2l-5.3-0.3l-2.9,1.7
		l-0.4,1.4l-0.4-1.5l-0.1-3.4l2.4-3.1l0.7-2.7l2.5-3.2l-2.5-2.1l-10-2.7l7.5-0.9l3.4-3.9l1.9,3.8l2.4-0.1l2.2,2.4l6-1l3.2-2.5
		l4.5-8.1l3-2.7l-0.8-5.3l-1.3-3.8l-3-3.5l-2.4,3.8l-2.1,6.6l-0.5,0.1l-1.5-2.2l-1.8-7.5l-14.3,4.6l-3.7-0.2l-1.5-4.7l-1.2-8.7
		l1-1.7l2.9,7.9l2.2,1.3l3.2-0.4l7.7-6.4l2.4-0.1l-0.1-2.3l3.8,0.8l3.4-0.3l2.6,4.1l0.1-0.5l-1.7-4.2l-2.5-3.2l-1.8-5.3l-1.3-1.5
		l0.4-10l-25.3,3.8l-25.3,3.5l-31.1,4l-29.4,3.5l-26.8,2.9l-28.4,2.9l-20.4,1.8l-1.4,5.9l0.8,1.7l-1.4,3.6l1.3,2.3l-3.2-0.4l-3,2.5
		l-4.8,8.6l-4.4-1.9l-2.8,1.1l-8.1,7.8l-2.5-3.9l-4.3,2.7l-1.1,2.9l-3.3-0.6l0.1,2.7l-2.4,4.3l-5.6,1.3l-10.3,8.4l-8.1,0.8l-4.6,2.2
		l-3.9,3.9l-1.8,6.5l-5.2,0.1l-1.7,1.7l-0.6,8.7l40.4-2.5l10.3-3.9L1402,767.3z"/>
  	<path d="M1505.8,723.5c1.3,2.8,2.5,7,2.7,11.1h1.6c-0.6-4.6-1.1-8.8-1.1-12.7v-6.7h4.9v25.4h-5.7l-5.4-11c-1.4-2.8-2.2-6.1-2.2-9.1
  		h-1.6c0.7,4.5,1.1,8.7,1.1,12.5v7.6h-4.9v-25.4h6.6L1505.8,723.5L1505.8,723.5z"/>
  	<path d="M1534.2,722.6h-1.9c-1.1-2.2-2.5-3.3-4.2-3.3c-2.9,0-4.7,2.9-4.7,8.5c0,5.5,1.8,8.3,4.6,8.3c1.7,0,3.1-1.1,4.2-3.3h1.9v5.8
  		c-2.3,1.5-4.5,2.2-7,2.2c-6.1,0-10-4.6-10-13.1c0-8.6,3.8-13.1,10.2-13.1c2.4,0,4.5,0.7,6.8,2.2L1534.2,722.6L1534.2,722.6z"/>
  </a>
</g>
<g id="virginia">
  <a target="_blank" href="http://www.dgif.virginia.gov/licenses/">
  	<path class="state" d="M1615.7,624.8l2.8,0.7l-0.5,3.5l-2.3,1.3l-1.1,2.3l-3.4,14.2l0.8,5l2,5.8l1.5,1.3l2.9-0.8l1.7-1.8l1.3-3.2
  		l1.8-15l7.1-19"/>
  	<path class="state" d="M1472.1,660l2.5-2.6l-2.4-2.2l2.2-5.7l5.9-8.4l1.5-6.7l3.4-4.1l-0.3-2l2.7-5l0.7-6.5l3.4,0.7l1.6,3.3
  		l7.1,1.5l7.1-18.2l4.2,2.2l3.2-6.6l1.5,0.5l2.7-2.6l4.6-8.1l1.3-12.5l17,10.5l1.9-7.8l6,0.4l3.3,2.2l-1.1,3.9l2.4,2.4l5.5,0.4
  		l2,2.5l3.4,0.9l2.1,1.3l-0.1-0.1l1.3,1.8l0.2,2.4l0.3,2.7l-2.3,1.4l-0.3,4.4l-2.1,1.5l-1.2,3.9l0.4,1.6l1.2,1.5l10,3.4l6.2,4.3
  		l6.2,0.9l7.7,2.4l3.7,3.6l1.1,3.6l-0.8,7.4l-2.1,0.8l0.1,0.6l1.5,4.5l3,1.4l2.8,4.6l-2.1,0.2l-2.2,1.5l0.3,2.3l1.5,3.3l3.2,1.1
  		l1.1,2.3l-2.3,1.5l-5.8,1l-0.1,3l3.4,1.7l3.5,0.6l1.1-1.7l1.3-0.5l10.3,1l1.9,7.8l-25.3,3.8l-25.3,3.5l-31.1,4l-29.4,3.5l-26.8,2.9
  		l-28.4,2.9l-20.4,1.8l-65.2,5l17.5-4.1l1.9-4.3l6.2-2.5l0.3-3.4l4.1-2.7l0.1-3.3l10.1-6.5l11.9-12v0.1l0.7,0.9l-1.1,1.8l1.9,1.3
  		l0.3,2.7l3.2,2.9l7.1,2.7l6.5-3.3l1.4-2.7l5,3.4l9.8-4.1l1.1-1.1l-0.8-2.1l0.8-1.2l3.6,1.4l6.6-4.1l2.5,1.3l5.3-4.3L1472.1,660z"/>
  	<path d="M1501.6,649.4c1,4.1,1.6,8.2,1.6,12.2h1.1c0.2-5,1.1-9,1.8-12.2l1.9-8.7h5.5l-7.1,25.4h-5.6l-7.2-25.4h5.8L1501.6,649.4z"
  		/>
  	<path d="M1519.9,640.7h7.9l5.5,25.4h-5.7l-0.6-2.8c-0.2-0.8-0.1-1.7,0.1-2.3l-0.4-0.3c-1,0.3-1.8,0.5-3.4,0.5c-1.7,0-2.4,0-3.5-0.5
  		l-0.3,0.3c0.1,0.5,0.2,1.7,0,2.7l-0.6,2.5h-5.5L1519.9,640.7L1519.9,640.7z M1522.9,643.5c-0.6,6.4-1.3,10.9-2.6,13.6l0.4,0.5
  		c1-0.3,1.9-0.3,2.8-0.3c0.8,0,1.7,0.1,2.6,0.3l0.4-0.5c-0.9-2-1.9-6.6-2.3-13.6H1522.9L1522.9,643.5z"/>
  </a>
</g>
<g id="maryland">
  <a target="_blank" href="http://dnr.maryland.gov/Pages/service_hunting_license.aspx">
  	<path class="state" d="M1629.9,619.6l-1-5.2l3.9-7.3l0.4-5.1l-21,3.3l-10.3-50.5h-0.1l-113.2,16h0.1l2,20.6v0.1l5.7-4.8l4.9-7.2
  		l1.7-1l3,1.1l4.1-5.3l0.7-3.1l1.3,0.8l-0.2,1.8l5.5,1.2h0.1l3.3-0.6l1.1-1.2l-1-0.8l1.4-0.7l-0.8-1.1l4.6-0.8l2.6-3.2l6.3,3
  		l4.5-0.9l0.5,1.4l-1.3,0.8l0.9,1.7l1-0.9l0.1,1.5l1.7-0.4l-0.8,2.3l2.2,0.9l0.5,3.4l6,0.4l3.3,2.2l-1.1,3.9l2.4,2.4l5.5,0.4l2,2.5
  		l3.4,0.9l2.2-2.4l4.8,3.4l-3.6,4.7v-0.4l0.3,2.7l-2.3,1.4l-0.3,4.4l0.2,1.7l-1.1,3.9l1.5,1.1l4.4,0.4l6.7,2.5l3.3-0.6l2.5,2
  		l4.2,0.6l3.4,2.7l4.2,1.3l-3.6-8.9l-4.7-3.2l2.8-0.7v-0.6l-1.6-3.2l-1.9-6.8l-0.7-15.4l-2.3-4.2l4.3-2.9l6.2-7.2l1.5-4.4l1.4-2.7
  		l1.3-0.1l1.6,1.1l0.6,1.2l-0.6,3.5l-1,2.2l-2.7,1.9l-1.7,3.4l0.4,3.1l1.7,2.9l-0.1,2.3l-3.4,5.3l1.2,1.5l3.2-0.4l0.8,0.9l0.4,4.1
  		l1.3,4.4l-2.3,2.3l-1.1,2.2l-0.1,3l1.3,3.5l4.4,3.6l4.6-0.6l2.5,0.8l3.6,5.7l0.9,3.9l1.5,1.2"/>
  	<path fill="none" stroke="#343465" d="M1690.4,635.1l-112.5-45"/>
  	<path d="M1707.3,639.7c0.5,1.9,1,5.5,1.1,10.6h1.6v-0.4c0-3.6,0.4-7,1.2-10.5l2-8.2h7.6v25.4h-4.8v-12.8c0-0.8,0.1-3.5,0.7-8.1
  		h-1.6c-0.1,3.3-0.8,6.2-1.6,9.1l-3.1,11.8h-3.2l-3.6-14.9c-0.5-1.9-0.7-3.9-0.8-6h-1.6c0.4,2.7,0.6,5.3,0.6,7.6v13.3h-4.5v-25.4
  		h7.8L1707.3,639.7L1707.3,639.7z"/>
  	<path d="M1731.5,631.1c3.6,0,6.2,0.5,8.2,2.1c2.5,2.1,3.9,5.6,3.9,10.4s-1,8.1-3.4,10.4c-2.2,2.2-4.8,2.5-8.5,2.5h-6.5v-25.4
  		H1731.5z M1731,648.7c0,1.2,0,2.2-0.9,3.4l0.6,0.6c1.4-0.6,3.2,0,4.5-1c0.8-0.5,2-1.4,2-5.9v-1.8c0-3.9-0.1-6.3-1.7-7.6
  		c-1.3-1.1-3.6-0.8-4.8-1.2l-0.6,0.5c0.9,1.2,0.9,2.2,0.9,3.4L1731,648.7L1731,648.7z"/>
  </a>
</g>
<g id="pennsylvania">
  <a target="_blank" href="http://www.pgc.pa.gov/HuntTrap/LicensesandPermits/Pages/default.aspx">
  	<path class="state" d="M1617.1,496l2.9-8.6l3.3-4.3l-1.8-2.3l-7.5-1.2l-3.4-4.5l-0.6-6.7l-1.6-0.3l0.5-1.5l-5.4-1l-1.2-3.1
  		l-3.9-1.1l-22.5,3.9l-28.6,4.6l-27.2,4l-24.8,3.4l-26.3,3.4l-1.3-10.7l-4.4,3.7l-5.9,1.3l-4,4.5l-6.7,4.6l5.9,53.4l4,37l32-3.6
  		l113.2-16h0.1l3.6-5.7l3.9-0.9l3.9,1.7l1.5-1.8l6.2-2.9l0.7-1.2l-0.8-1.7l2.3-3.3l8.1-7.5l-8.9-8.3l-2.6-0.4l-1.8-5.1l-3.4-0.1
  		l-1.3-4.6l0.2,0.1l-0.3-3.1l2-1.7l1-3.9l-2.9-4.1L1617.1,496z"/>
  	<path d="M1512.5,525.9v-25.4h7.5c2.7,0,4.9,0.1,6.6,1.1c2.2,1.3,3.5,3.8,3.5,6.8c0,5.4-3.3,8.5-8.7,8.5c-1.3,0-2.2-0.4-3.4-0.7
  		l-0.5,0.6c0.8,1,0.8,2.3,0.8,4v5H1512.5L1512.5,525.9z M1517.6,504.8c0.4,0.6,0.7,1.8,0.7,3v1.2c0,1.5,0,2.6-0.8,3.6l0.4,0.6
  		c1.3-0.3,2.5-0.2,3.7-0.6c1.3-0.4,2.2-1.9,2.2-3.9c0-2.4-1.4-3.7-3.3-4c-0.9-0.1-1.8-0.2-2.6-0.5L1517.6,504.8z"/>
  	<path d="M1536.4,500.6h7.9l5.5,25.4h-5.7l-0.6-2.8c-0.2-0.8-0.1-1.7,0.1-2.3l-0.4-0.3c-1,0.3-1.8,0.4-3.4,0.4c-1.7,0-2.4,0-3.5-0.4
  		l-0.3,0.3c0.1,0.4,0.2,1.7,0,2.7l-0.6,2.5h-5.5L1536.4,500.6L1536.4,500.6z M1539.4,503.4c-0.6,6.4-1.3,10.9-2.6,13.6l0.4,0.5
  		c1-0.3,1.9-0.3,2.8-0.3c0.8,0,1.7,0.1,2.6,0.3l0.4-0.5c-0.9-2-1.9-6.6-2.3-13.6H1539.4L1539.4,503.4z"/>
  </a>
</g>
<g id="vermont">
  <a target="_blank" href="http://www.vtfishandwildlife.com/licenses_and_lotteries">
  	<path class="state" d="M1678.1,363.4l-1.1-14l4.8-2.9l5.7-8.5l0.4-3.2l-3.9-5.8l2.2-6.8l-1.5-2.9l-0.9,0.2l-49.7,11.3l1.2,2.9
  		l-0.7,2.4l1.7,2.5l0.2,6.9l3.8,6l-0.5,3.6l1.4,4.5l-1.3,2.4l-0.6,6.2l4.6,12.3l-0.8,4.3l1,2.7l2.5-2.9l2.6,2.9l4.4,29.1l1.8,3.4
  		l22.9-4.8l-3.8-4.7l1.4-6.2l-2.6-21.9L1678.1,363.4z"/>
  	<path fill="none" stroke="#343465" d="M1660.4,351.6l-48.6-52.9"/>
  	<path d="M1578.1,295.6c1,4.1,1.6,8.2,1.6,12.2h1.1c0.1-5,1.1-9,1.8-12.2l1.9-8.7h5.5l-7.1,25.4h-5.6l-7.2-25.4h5.8L1578.1,295.6
  		L1578.1,295.6z"/>
  	<path d="M1602.3,312.3h-5.8v-18.2c0-1,0.3-1.7,0.9-2.5l-0.5-0.5c-1.1,0.4-2.2,0.4-3.4,0.4h-2.8v-4.5h17.5v4.5h-2.8
  		c-1.2,0-2.3,0-3.4-0.4l-0.5,0.5c0.6,0.8,0.9,1.6,0.9,2.5L1602.3,312.3L1602.3,312.3z"/>
  </a>
</g>
<g id="new-hampshire">
  <a target="_blank" href="http://huntinfo.org/State_Site2.cfm?State=NH">
  	<path class="state" d="M1687.4,308l-1.4,2.5l-1.2,8.8l1.5,2.9l-2.2,6.8l3.9,5.8l-0.4,3.2l-5.7,8.5l-4.8,3l1.1,14l-4.8,18.9
  		l2.6,21.9l-1.4,6.2l3.8,4.7l33.8-7.6l3.9-4.6l5.5-4.3l2.9-0.1l0.2-8.6l-3.1-2.5l-0.6-3.6l-6-6.5l-0.7-5.6l-8.9-30.2l-10.8-36.5
  		l-1.5,1.1L1687.4,308z"/>
  	<path fill="none" stroke="#343465" d="M1696.4,354.6l-30-57"/>
  	<path d="M1654.5,278.8c1.3,2.8,2.5,7,2.7,11.1h1.6c-0.6-4.6-1.1-8.8-1.1-12.7v-6.7h4.9v25.4h-5.7l-5.4-11c-1.4-2.8-2.2-6.1-2.2-9.1
  		h-1.6c0.7,4.5,1.1,8.7,1.1,12.5v7.6h-4.9v-25.4h6.6L1654.5,278.8L1654.5,278.8z"/>
  	<path d="M1672.6,277.7c0,1.1,0,2.1-0.9,3.1l0.5,0.6c1.1-0.3,2.2-0.4,3.4-0.4c1.2,0,2.4,0.1,3.5,0.4l0.6-0.6
  		c-0.9-1.2-0.9-2.2-0.9-3.4v-7.1h5.8v25.4h-5.8v-7.1c0-1.2,0-2.2,0.9-3.4l-0.6-0.6c-1.1,0.4-2.2,0.5-3.5,0.5c-1.2,0-2.3,0-3.5-0.5
  		l-0.5,0.6c0.9,1.2,0.9,2.1,0.9,3.4v7.1h-5.8v-25.4h5.8L1672.6,277.7L1672.6,277.7z"/>
    </a>
</g>
<g id="maine">
  <a target="_blank" href="http://www.maine.gov/ifw/licenses_permits/hunting/index.htm">
  	<path class="state" d="M1816.3,296.2l0.6,2.9l1.2-2.9l1.9-0.6l-0.4-2.5l-0.4-2.5l-2.1-0.1l-1,2.5L1816.3,296.2z"/>
  	<path class="state" d="M1793.4,276.2l2.1,2.1l4.9,1.5l4.7-0.5l2.1-1.1v-1.7l1.3,2.2l2.2,5.8l-0.9,3.4l0.1,1.3l3.3-0.3l1.4,2.3
  		l0.1,2.6l-2.4,3.4l-3.9,1.6l-1.2,2l-3.4,1.4l-1.3,2.6l-2,1.4l-5.7,2.4l-0.6,3.6l-2.7,2.5l-2.5,0.7l-2.9,4.4l-0.8,2.9l-2,1.5
  		l-5.8-2.4l-2.2,1.8l-2.6-0.1l-1.9-2.5l-1.3-3.6l-1.1-0.1l-1.6,1.1l-2,2.9l0.3,5.6l-1,4.1l0.6,3.8l-1.3,5.4l-0.9,0.8l-3.7-0.4
  		l-1.5,2.5l-0.9,4.3l-2.1,1.5l-1.3,0.3l-2-2.2l-1.2,0.6l-0.1,5.4l-1.1,2.7l-1.1-0.1l-2.7-3.5h-2l-3.8,3.3l-2.7,5.1l0.1,6.2l-2,3.6
  		l-3.3,10.7l-6.4,8.5l-3.1-2.5l-0.6-3.6l-6-6.5l-0.7-5.6l-8.9-30.2l-10.8-36.5l3.9-2.9l5.7,1l-0.8-3.4l0.6-0.4l4.1,0.4v-1.2
  		l-1.7-2.8l0.1-2.7l1.1-2.6l2.7-3.6l0.4-1.6l-3-18.3l0.3-4.4l1.4-4.4l-0.2-3.3l1.2-7.2L1709,235l7.4-25.6l2.6-2.9l2.7-0.5l4.3,2.2
  		l2.2,2.7l1.5,1.9l6.6,0.3l7.7-4.3l1.9-6.5l3.5-0.9l16.2,8.7l7.4,25.5l8.1,28.6l8.3,1.5l2.5,8.2L1793.4,276.2z"/>
  	<path d="M1732.3,252.4c0.4,1.9,1,5.5,1,10.6h1.7v-0.4c0-3.6,0.4-7,1.2-10.5l2-8.2h7.6v25.4h-4.8v-12.8c0-0.8,0.1-3.5,0.7-8.1h-1.6
  		c-0.1,3.3-0.8,6.2-1.6,9.1l-3.1,11.8h-3.2l-3.6-14.9c-0.5-1.9-0.7-3.9-0.8-6h-1.6c0.4,2.7,0.6,5.3,0.6,7.6v13.3h-4.5v-25.4h7.8
  		L1732.3,252.4L1732.3,252.4z"/>
  	<path d="M1750.1,243.9h14.6v4.1h-5.7c-1.2,0-2.3,0-3.4-0.4l-0.6,0.5c0.6,0.8,0.9,1.6,0.9,2.5v1c0,0.8-0.3,1.6-0.9,2.4l0.6,0.6
  		c1.1-0.3,2.2-0.5,3.4-0.5h5.4v4.3h-5.4c-1.2,0-2.4-0.1-3.4-0.5l-0.6,0.6c0.7,0.9,0.9,1.7,0.9,2.7v1.1c0,0.9-0.3,1.7-0.9,2.5
  		l0.6,0.5c1.1-0.4,2.2-0.4,3.4-0.4h6.1v4.2h-15V243.9z"/>
  </a>
</g>
<g id="delaware">
  <a target="_blank" href="http://www.dnrec.delaware.gov/fw/Services/Pages/Lic-Perm-Reg.aspx">
  	<path class="state" d="M1611.3,560l-0.4,4.1l1.7,4.2l9.9,13.3l7.2,7.4l4.8,9.4l-1.3,3.8l-21,3.3l-10.3-50.5l3.6-5.7l3.9-0.9
  		l3.9,1.7l-1.5,2l-2.2,5.8L1611.3,560z"/>
  	<path fill="none" stroke="#343465" d="M1690.4,594.6l-72-12"/>
  	<path d="M1702.1,586.9c3.6,0,6.2,0.5,8.2,2.1c2.5,2.1,3.9,5.6,3.9,10.4c0,4.7-1,8.1-3.4,10.4c-2.2,2.2-4.8,2.5-8.5,2.5h-6.5v-25.4
  		H1702.1z M1701.7,604.4c0,1.2,0,2.2-0.9,3.4l0.6,0.6c1.4-0.6,3.2,0,4.5-1c0.8-0.5,2-1.4,2-5.9v-1.8c0-3.9-0.1-6.3-1.7-7.6
  		c-1.3-1.1-3.6-0.8-4.8-1.2l-0.6,0.5c0.9,1.2,0.9,2.2,0.9,3.4L1701.7,604.4L1701.7,604.4z"/>
  	<path d="M1717.5,586.9h14.6v4.1h-5.7c-1.2,0-2.3,0-3.4-0.4l-0.6,0.5c0.6,0.8,0.9,1.6,0.9,2.5v1c0,0.8-0.3,1.6-0.9,2.4l0.6,0.6
  		c1.1-0.3,2.2-0.4,3.4-0.4h5.4v4.3h-5.4c-1.2,0-2.4-0.1-3.4-0.5l-0.6,0.6c0.7,0.9,0.9,1.7,0.9,2.7v1.1c0,0.9-0.3,1.7-0.9,2.5
  		l0.6,0.5c1.1-0.4,2.2-0.4,3.4-0.4h6.1v4.2h-15V586.9z"/>
  </a>
</g>
<g id="new-jersey">
  <a target="_blank" href="http://www.state.nj.us/dep/fgw/hntlicfe.htm">
  	<path class="state" d="M1615.1,508.4l-2,1.7l0.3,3.1l-0.2-0.1l1.3,4.6l3.4,0.1l1.8,5.1l2.6,0.4l8.9,8.3l-8.1,7.5l-2.3,3.3l0.8,1.7
  		l-0.7,1.2l-6.2,2.9l-1.5,1.8l-1.5,2l-2.2,5.8l1.9,2.3l4.6,4.1l4.4,3.6l4.8,0.6l4.1,2.8l5.8-0.7l1.1,7.6l1,1.6l3.4-5.3l4.1-10.9
  		l3.6-4.4l1.4-4.3l-0.5-2.2l2.7-2l0.8-1.8l0.1-11.3l0.7-1.8l1.3,0.3l1-0.7l0.7-8.6l-0.1-3l-1.3-2.5l-3.6-3.3l-4.3-1.3l-0.8-1.1
  		l-0.4-2.4l1.4-5.1l1.3-2l1.8-12.2l-26.9-10.8l-3.3,4.3l-2.9,8.6l-3.9,4.5l2.9,4.1L1615.1,508.4z"/>
  	<path fill="none" stroke="#343465" d="M1690.4,549.6l-54-3"/>
  	<path d="M1704.5,550.8c1.3,2.8,2.5,7,2.7,11.1h1.6c-0.6-4.6-1.1-8.8-1.1-12.7v-6.7h4.9v25.4h-5.7l-5.4-11c-1.4-2.8-2.2-6.1-2.2-9.1
  		h-1.6c0.7,4.5,1.1,8.7,1.1,12.5v7.6h-4.9v-25.4h6.6L1704.5,550.8z"/>
  	<path d="M1721.5,554.8v4.8c0,2.6,0.2,4.2,2.2,4.2c2.4,0,2.4-1.8,2.4-5.4v-16h5.8v16.8c0,6.2-2.2,9.1-8.1,9.1c-3.5,0-6.2-1.6-7-4
  		c-0.6-1.7-0.7-3.5-0.7-5.7v-3.7L1721.5,554.8L1721.5,554.8z"/>
  </a>
</g>
<g id="connecticut">
  <a target="_blank" href="http://www.ct.gov/deep/cwp/browse.asp?A=2700">
  	<path class="state" d="M1653.5,448.5l4.4,30.5l2.2,2.8l-5.8,6.4l3,3.2l5.6-3.5l6.2-4.7l5.7-2.6l1.6-4.1l3.7-2.6l7.8-0.1l6.3-3
  		l14-3.9l-0.4-3.4l1.1-0.8l-5.4-24.9l-27.7,6.1l-0.6,2.1l-1.3-1.8L1653.5,448.5z"/>
  	<path fill="none" stroke="#343465" d="M1781.9,482.7l-100.5-21"/>
  	<path d="M1803.1,494.6h-1.9c-1.1-2.2-2.5-3.3-4.2-3.3c-2.9,0-4.7,2.9-4.7,8.5c0,5.5,1.8,8.3,4.6,8.3c1.7,0,3.1-1.1,4.2-3.3h1.9v5.8
  		c-2.3,1.5-4.5,2.2-7,2.2c-6.1,0-10-4.6-10-13.1c0-8.6,3.8-13.1,10.2-13.1c2.4,0,4.5,0.7,6.8,2.2L1803.1,494.6L1803.1,494.6z"/>
  	<path d="M1816.4,512.4h-5.8v-18.2c0-1,0.3-1.7,0.9-2.5l-0.5-0.5c-1.1,0.4-2.2,0.4-3.4,0.4h-2.8V487h17.5v4.5h-2.8
  		c-1.2,0-2.3,0-3.4-0.4l-0.5,0.5c0.6,0.8,0.9,1.6,0.9,2.5V512.4z"/>
  </a>
</g>
<g id="rhode-island">
  <a target="_blank" href="http://www.dem.ri.gov/programs/managementservices/licenses/hunting-licenses.php">
  	<path class="state" d="M1717,439.6l-1.6-5.1l-12,2.7l5.4,25.5l-0.9,0.7l0.5,4.2l9.4-4.9l2.2-1.5l2.3-2.8l1.2-9.3l4.6-3.2l-4.3-4.9
  		l-3.5-1.7L1717,439.6z"/>
  	<path fill="none" stroke="#343465" d="M1781.9,446.1l-67.5,1.5"/>
  	<path d="M1795.4,441.4c2.7,0,4.9,0.1,6.6,1.1c2.1,1.3,3.3,3.4,3.3,6.1c0,3.4-1.7,5.3-4.1,5.8l-0.1,0.7l6.3,11.7h-6.8l-4.6-10.4
  		c-0.9,0-1.7-0.2-2.5-0.5l-0.5,0.6c0.8,1,0.8,2.4,0.8,4.5v5.8h-5.8v-25.4L1795.4,441.4L1795.4,441.4z M1792.4,445.8
  		c0.4,0.4,0.8,1.6,0.8,2.6v1.2c0,1.3-0.1,2.2-0.8,3.1l0.5,0.5c1.6-0.3,3.1-0.2,4.4-0.5c1.4-0.4,2.4-1.7,2.4-3.4
  		c0-1.6-0.8-2.9-2.3-3.4c-1.2-0.4-2.7-0.2-4.4-0.7L1792.4,445.8L1792.4,445.8z"/>
  	<path fill="none" stroke="#000000" stroke-width="1.948" d="M1813.1,466.8v-25.4"/>
  </a>
</g>
<g id="massachusetts">
  <a target="_blank" href="http://www.mass.gov/eea/land-use-habitats/fishing-and-hunting-license/">
  	<path class="state" d="M1743.9,444.2l-2,0.1l-6.5,6.5l-4,1.8l-2.2,0.1l-1.9-4.8l-2.7-1.1l-5.4-2.4l-0.7-3.9l-1.3,0.1l-1.4-5.6
  		l-12,2.7l-27.9,6.1l-0.6,2.1l-1.3-1.8l-19.5,4.1l-0.9,0.1l1.9-29.5l22.9-4.8l33.8-7.6l3.9-4.6l5.6-4.3l2.9-0.1l4.3,6.3l3.9,3.5
  		l-2.3,2l-0.8,5.1l-1.6,1.2l-0.8,2.3l0.1,2.9l0.9,0.8l5.5,1.2l2.9,2.2l2,5.7l2.7,1.2l3.7,5.6l6,1.6l5.5,0.1l3.7-2l0.3-2.5l-1.5-6.2
  		l1.5-0.7l0.9,0.9l2.6,7.3l-0.6,1.8l-5.3,5.3l-3.2,0.3l-6,4.2l-2.9,0.1L1743.9,444.2z"/>
  	<path fill="none" stroke="#343465" d="M1783.4,401.1l-69,19.5"/>
  	<path d="M1797.7,396.1c0.5,1.9,1,5.5,1,10.6h1.7v-0.4c0-3.6,0.4-7,1.2-10.5l2-8.2h7.6V413h-4.8v-12.8c0-0.8,0.1-3.5,0.7-8.1h-1.6
  		c-0.1,3.3-0.8,6.2-1.6,9.1l-3.1,11.8h-3.2l-3.6-14.9c-0.5-1.9-0.7-3.9-0.8-6h-1.6c0.4,2.7,0.6,5.3,0.6,7.6V413h-4.5v-25.4h7.8
  		L1797.7,396.1L1797.7,396.1z"/>
  	<path d="M1820.3,387.6h7.9l5.5,25.4h-5.7l-0.6-2.8c-0.2-0.8-0.1-1.7,0.1-2.3l-0.4-0.3c-1,0.3-1.8,0.4-3.4,0.4c-1.7,0-2.4,0-3.5-0.4
  		l-0.3,0.3c0.1,0.4,0.2,1.7,0,2.7l-0.6,2.5h-5.5L1820.3,387.6L1820.3,387.6z M1823.3,390.4c-0.6,6.4-1.3,10.9-2.6,13.6l0.4,0.5
  		c1-0.3,1.9-0.3,2.8-0.3c0.8,0,1.7,0.1,2.5,0.3l0.4-0.5c-0.9-2-1.9-6.6-2.3-13.6H1823.3z"/>
  </a>
</g>
<g id="alaska">
  <a target="_blank" href="http://www.adfg.alaska.gov/index.cfm?adfg=huntlicense.main">
  	<path class="state" d="M104.9,1001.1l-11.4,2.1L89,1008l4.5,2.1l22.5-9l13.5-6.9l27-18l20.4-22.2l2.1-4.8h-6.9l20.4-29.1l4.5-2.1
  		v4.2l-6.9,4.8l-2.1,13.2l4.5-2.1l-4.5,4.5l2.1,2.4l13.8-9l6.6-2.4l2.4-6.6l-2.4-4.8l13.5-2.1l15.9,9l13.2-4.5l6.9,2.4h9l24.9,11.1
  		l4.2,4.5l6.9,9l13.5,9l4.5,4.5l15.9,9l15.6-6.9v-9l-4.5-9l-6.9-2.1h-6.6l-9-6.9l-9-6.6l-18-18L296,918l-4.5,6.6l-4.5,4.5l-15.9-9
  		v-4.5l-13.2,4.5l-4.8-22.5L242,848.1l-9-33.9l-4.5-15.6L215,792l-6.9,4.2l-22.2-4.2l-6.9,2.1l-6.9-2.1v-2.4l-20.1-4.5l-2.1,4.5
  		h-11.4l-9,6.6l-6.6,6.9l-2.4,6.9l-4.5,4.2h-9l-4.5,6.9l6.6,6.9l6.9,11.1l9,2.1V855h-11.1v-9h-2.4L89,855l6.9,6.6v9l9,4.5l13.2,2.1
  		l9-6.6l2.4,15.6l-9,2.4l-2.4,4.5l-4.2,2.1L107,891l-4.5,9l-11.4,11.1l6.9,11.1l-2.1,4.8l9,9H116l4.5,6.6l-2.4,4.5l2.4,6.9l9-4.8
  		l9,9l13.5-6.6l-4.5,9v9l-18,13.5l-6.6,9H116L104.9,1001.1z"/>
  	<path d="M159.2,859.9h7.9l5.5,25.4h-5.7l-0.6-2.8c-0.2-0.8-0.1-1.7,0.1-2.3l-0.4-0.3c-1,0.3-1.8,0.4-3.4,0.4c-1.7,0-2.4,0-3.5-0.4
  		l-0.3,0.3c0.1,0.4,0.2,1.7,0,2.7l-0.6,2.5h-5.5L159.2,859.9L159.2,859.9z M162.2,862.7c-0.6,6.4-1.4,10.9-2.6,13.6l0.4,0.5
  		c1-0.3,1.9-0.3,2.8-0.3c0.8,0,1.7,0.1,2.5,0.3l0.4-0.5c-0.9-2-1.9-6.6-2.3-13.6H162.2L162.2,862.7z"/>
  	<path d="M180.8,865.9c0,2.5-0.2,4.9-0.5,7.3l0.9,0.2c0.5-1.9,1.4-3.9,2.5-6l3.9-7.6h6.3l-4.1,7.6c-0.8,1.4-1.6,2.6-2.9,3.6v0.4
  		c1.2,0.8,1.8,2.2,2.6,4l4.5,9.7h-6.4l-3.7-8.4c-0.5-1.1-0.8-2.2-1-3.3h-0.6l-1.8,3.8c0.1,0.4,0.2,0.8,0.2,1.6v6.2H175v-25.4h5.8
  		V865.9L180.8,865.9z"/>
  </a>
</g>
<g id="hawaii">
  <a target="_blank" href="https://hunting.ehawaii.gov/hunting/license.html">
  	<path fill="#A7C8CC" d="M450.3,1039.4c1.6,0,1.8-2.8,1.8-4.4c0-1.6-0.3-1.9-1.8-1.9c-1.6,0-3.1,1.6-3.1,3.2
  		C447.1,1037.9,448.7,1039.4,450.3,1039.4"/>
  	<path class="state" d="M539.5,1125l4.3-6.4l9.6-5.6l15.2-4.8l2.2-5l-10.7-7.7l-0.4-5.4l-4.1-4.3l-24.3-10.9l-2.4,1.7l0.6,4.7
  		l2.2,4.2l-8.9,8.9l2.5,4.9l3.9,10.6l0.3,12L539.5,1125z"/>
  	<path fill="#A7C8CC" d="M503.2,1064.2l-3.6,1.2l-0.6-1.9l3.8-1.5L503.2,1064.2z"/>
  	<path class="state" d="M506.2,1054.6l2.2,7.9h4.7l6.6-2l5-2.4l-0.5-3.7l-10.1-5.4l-7.8,1.6l-4.8-5.9l-1.4,0.7l-2.5,4.2l2.7,3.9
  		L506.2,1054.6z"/>
  	<path class="state" d="M493.7,1053.6l-1.6,2.3l-4.5,0.9l-0.7-3.3l-2.7-2.1l-0.1-1.1l5.4-0.6L493.7,1053.6z"/>
  	<path class="state" d="M495.5,1044.2l2.1-3.4l-21-2.5l-2.1,4.7l2,0.4l7.1-0.8l8.4,2.3L495.5,1044.2z"/>
  	<path class="state" d="M454,1027.1l-4.9-7l-5.7,4.2l-6,0.3l7,11l7.7-0.5l4.9,1.4l3.7-2L454,1027.1z"/>
  	<path class="state" d="M386.6,1000.6l-5.5,3.6l-0.9,4.3l8.4,4.2l5.2-0.1l3.2-2.6l0.7-7.3l-3.5-3.1L386.6,1000.6z"/>
  	<path class="state" d="M367.6,1007.1l1.4,1.1l-5.5,8.6l-1.8-1L367.6,1007.1z"/>
  	<path d="M443.5,1068.2c0,1.1,0,2.1-0.9,3.2l0.5,0.6c1.1-0.3,2.2-0.4,3.4-0.4c1.2,0,2.4,0.1,3.5,0.4l0.6-0.6
  		c-0.9-1.2-0.9-2.2-0.9-3.4v-7.1h5.8v25.4h-5.8v-7.1c0-1.2,0-2.2,0.9-3.4l-0.6-0.6c-1.1,0.4-2.2,0.4-3.5,0.4c-1.2,0-2.3,0-3.5-0.4
  		l-0.5,0.6c0.9,1.2,0.9,2.1,0.9,3.4v7.1h-5.8v-25.4h5.8V1068.2z"/>
  	<path fill="none" stroke="#000000" stroke-width="1.949" d="M463.3,1086.3v-25.4"/>
  </a>
</g>
<!--     </div> -->
</svg>
