<?xml version="1.0" encoding="iso-8859-1"?>
<!-- Generator: Adobe Illustrator 22.1.0, SVG Export Plug-In . SVG Version: 6.00 Build 0)  -->
<svg version="1.1" id="Layer_1" xmlns="http://www.w3.org/2000/svg" xmlns:xlink="http://www.w3.org/1999/xlink" x="0px" y="0px"
	 viewBox="-55 147 500 500" style="enable-background:new -55 147 500 500;" xml:space="preserve">
<path d="M366.918,213.108h-74.24c-2.208,0-4,1.792-4,4s1.792,4,4,4h70.236v390.54H30.986v-390.54h66.332c2.208,0,4-1.792,4-4
	s-1.792-4-4-4H26.986c-2.208,0-4,1.792-4,4v398.54c0,2.208,1.792,4,4,4h339.928c2.212,0,4-1.792,4.004-4v-398.54
	C370.918,214.9,369.126,213.108,366.918,213.108z"/>
<path d="M372.73,193.576h-80.052c-2.208,0-4,1.792-4,4c0,2.208,1.792,4,4,4h80.052c14.456,0,25.356,11.692,25.356,27.192v382.26
	c0,15.684-11.136,27.972-25.356,27.972H21.078c-15.264,0-29.164-13.332-29.164-27.972v-382.26c0-14.484,13.628-27.192,29.164-27.192
	h76.24c2.208,0,4-1.792,4-4c0-2.208-1.792-4-4-4h-76.24c-19.8,0-37.164,16.444-37.164,35.192v382.26
	c0,19.164,17.368,35.972,37.164,35.972H372.73c18.7,0,33.352-15.8,33.356-35.972v-382.26
	C406.086,208.704,391.746,193.576,372.73,193.576z"/>
<path d="M196.902,162.08c-8.672,0-15.724,7.052-15.724,15.72c0,8.672,7.056,15.724,15.724,15.724c8.668,0,15.72-7.052,15.72-15.724
	C212.622,169.132,205.57,162.08,196.902,162.08z M196.902,185.524c-4.26,0-7.724-3.468-7.724-7.724s3.468-7.72,7.724-7.72
	c4.26,0,7.72,3.46,7.72,7.72C204.622,182.06,201.162,185.524,196.902,185.524z"/>
<path d="M263.01,166.224h-37.256C221.102,154.448,210.078,147,196.902,147c-13.18,0-24.2,7.452-28.856,19.224h-37.728
	c-20.056,0-37,15.968-37,34.868v31.648c0,2.208,1.792,4,4,4h195.36c2.208,0,4-1.792,3.996-4v-31.648
	C296.674,181.216,282.202,166.224,263.01,166.224z M288.678,228.74h-187.36v-27.648c0-14.312,13.552-26.868,29-26.868h40.584
	c1.776,0,3.34-1.176,3.84-2.884c2.888-9.924,11.584-16.34,22.16-16.34c10.576,0,19.272,6.416,22.16,16.34
	c0.496,1.708,2.06,2.884,3.84,2.884h40.112c14.632,0,25.664,11.548,25.664,26.868L288.678,228.74L288.678,228.74z"/>
<path d="M327.846,334.236h-160.2c-2.208,0-4,1.792-4,4s1.792,4,4,4h160.2c2.208,0,4-1.792,4-4S330.054,334.236,327.846,334.236z"/>
<path d="M214.534,396.752h-46.888c-2.208,0-4,1.792-4,4c0,2.208,1.792,4,4,4h46.888c2.208,0,4-1.792,4-4
	S216.742,396.752,214.534,396.752z"/>
<path d="M613.144,390.21H535c-2.208,0-4,1.792-4,4c0,2.208,1.792,4,4,4h78.144c2.208,0,4-1.792,4-4
	C617.144,392.002,615.352,390.21,613.144,390.21z"/>
<path d="M606.846,441h-46.888c-2.208,0-4,1.792-4,4s1.792,4,4,4h46.888c2.208,0,4-1.792,4-4S609.054,441,606.846,441z"/>
<path d="M245.79,521.784h-78.144c-2.208,0-4,1.792-4,4s1.792,4,4,4h78.144c2.208,0,4-1.792,4-4S247.998,521.784,245.79,521.784z"/>
<path d="M327.846,459.268h-160.2c-2.208,0-4,1.792-4,4s1.792,4,4,4h160.2c2.208,0,4-1.792,4-4S330.054,459.268,327.846,459.268z"/>
<path d="M134.741,297.554c-1.774-2.072-4.64-2.072-6.414,0l-36.886,43.097l-18.697-21.845c-1.774-2.072-4.64-2.072-6.414,0
	c-1.774,2.072-1.774,5.422,0,7.494l21.904,25.592c0.885,1.033,2.046,1.553,3.207,1.553s2.322-0.519,3.207-1.553l40.093-46.843
	C136.514,302.976,136.514,299.626,134.741,297.554z"/>
<path d="M136.938,373.704c-1.564-1.564-4.092-1.564-5.656,0l-32.528,32.528l-16.488-16.488c-1.564-1.564-4.092-1.564-5.656,0
	c-1.564,1.564-1.564,4.092,0,5.656l19.316,19.316c0.78,0.78,1.804,1.172,2.828,1.172s2.048-0.388,2.828-1.172l35.356-35.356
	C138.502,377.796,138.502,375.268,136.938,373.704z"/>
<path d="M136.938,436.148c-1.564-1.564-4.092-1.564-5.656,0l-32.528,32.528l-16.488-16.488c-1.564-1.564-4.092-1.564-5.656,0
	c-1.564,1.564-1.564,4.092,0,5.656l19.316,19.316c0.78,0.78,1.804,1.172,2.828,1.172s2.048-0.392,2.828-1.172l35.356-35.356
	C138.502,440.24,138.502,437.712,136.938,436.148z"/>
<path d="M136.938,498.724c-1.564-1.564-4.092-1.564-5.656,0l-32.528,32.528l-16.488-16.488c-1.564-1.564-4.092-1.564-5.656,0
	c-1.564,1.564-1.564,4.092,0,5.656l19.316,19.316c0.78,0.78,1.804,1.172,2.828,1.172s2.048-0.392,2.828-1.172l35.356-35.356
	C138.502,502.816,138.502,500.288,136.938,498.724z"/>
<path d="M328.89,396.752h-160.2c-2.208,0-4,1.792-4,4c0,2.208,1.792,4,4,4h160.2c2.208,0,4-1.792,4-4
	C332.89,398.544,331.098,396.752,328.89,396.752z"/>
<path d="M327.89,521.784h-160.2c-2.208,0-4,1.792-4,4s1.792,4,4,4h160.2c2.208,0,4-1.792,4-4S330.098,521.784,327.89,521.784z"/>
<rect x="70.623" y="320.16" style="fill:none;stroke:#000000;stroke-width:7;stroke-miterlimit:10;" width="36.151" height="36.151"/>
</svg>
