<?xml version="1.0" encoding="utf-8"?>
<!-- Generator: Adobe Illustrator 22.1.0, SVG Export Plug-In . SVG Version: 6.00 Build 0)  -->
<svg version="1.1" id="Layer_1" xmlns="http://www.w3.org/2000/svg" xmlns:xlink="http://www.w3.org/1999/xlink" x="0px" y="0px"
	 viewBox="0 0 69.3 84.8" style="enable-background:new 0 0 69.3 84.8;" xml:space="preserve">
<style type="text/css">
	.st0{fill:none;stroke:#000000;stroke-width:2;stroke-linecap:round;stroke-linejoin:round;stroke-miterlimit:10;}
	.st1{fill:none;stroke:#000000;stroke-width:2;stroke-linecap:round;stroke-miterlimit:10;}
</style>
<g>
	<g>
		<g>
			<path class="st0" d="M59,83.4h1c4.3,0,7.7-3.5,7.7-7.7v-7V20.6L50.2,1.4h-41c-4.3,0-7.7,3.5-7.7,7.7v66.6c0,4.3,3.5,7.7,7.7,7.7
				h25.9H59z"/>
			<path class="st0" d="M67.8,20.6H55.7c-3,0-5.5-2.5-5.5-5.5V1.4"/>
		</g>
		<line class="st0" x1="48" y1="28.8" x2="10.2" y2="28.8"/>
		<line class="st0" x1="48" y1="35.2" x2="10.2" y2="35.2"/>
		<line class="st0" x1="10.2" y1="41.6" x2="59" y2="41.6"/>
		<line class="st0" x1="10.2" y1="66.4" x2="59" y2="66.4"/>
		<line class="st0" x1="10.2" y1="72.1" x2="59" y2="72.1"/>
	</g>
	<g>
		<g>
			<line class="st1" x1="24.6" y1="47.9" x2="19.4" y2="61"/>
			<line class="st1" x1="24.6" y1="47.9" x2="29.8" y2="61"/>
			<line class="st1" x1="21.6" y1="55.6" x2="27.7" y2="55.6"/>
		</g>
		<line class="st1" x1="10.8" y1="47.4" x2="10.8" y2="61.5"/>
		<line class="st1" x1="10.8" y1="47.4" x2="18.3" y2="47.4"/>
		<line class="st1" x1="10.8" y1="53.6" x2="17.3" y2="53.6"/>
		<line class="st1" x1="41.3" y1="55.3" x2="47.9" y2="60.9"/>
		<circle class="st1" cx="39.8" cy="54.2" r="6.9"/>
		<g>
			<path class="st1" d="M58.1,54.4c0,0,0.1-2.6-2.9-2.6S52.3,54,52.3,54s-0.4,1.9,2.8,2.4c3.3,0.5,3.2,2,3.2,2.5s-0.3,2.5-3.2,2.5
				s-3.2-2.4-3.2-2.9"/>
		</g>
	</g>
</g>
</svg>
