<?xml version="1.0" encoding="utf-8"?>
<!-- Generator: Adobe Illustrator 22.1.0, SVG Export Plug-In . SVG Version: 6.00 Build 0)  -->
<svg version="1.1" id="Layer_1" xmlns="http://www.w3.org/2000/svg" xmlns:xlink="http://www.w3.org/1999/xlink" x="0px" y="0px"
	 viewBox="0 0 591 615" style="enable-background:new 0 0 591 615;" xml:space="preserve">
<g>
	<path d="M530,448.2c30.6-46.6,46.7-100.7,46.7-156.8c0-76.5-29.8-148.4-83.9-202.5C438.7,34.8,366.8,5,290.3,5
		S141.9,34.8,87.8,88.9C33.7,143,3.9,214.9,3.9,291.4s29.8,148.4,83.9,202.5c54.1,54.1,126,83.9,202.5,83.9
		c43.7,0,85.7-9.6,124.7-28.5L582.3,605L530,448.2z M413.5,528.5l-3.6,1.8c-37.4,18.7-77.6,28.3-119.7,28.3
		C143,558.6,23.1,438.7,23.1,291.4C23.1,144,143,24.2,290.3,24.2S557.5,144,557.5,291.4c0,53.8-15.9,105.7-46,150l-2.7,3.9
		l43.1,129.4L413.5,528.5z"/>
	<polygon points="184.4,269.4 106.7,269.4 106.7,211.2 189.8,211.2 189.8,192 85.4,192 85.4,371.3 106.7,371.3 106.7,288.5 
		184.4,288.5 	"/>
	<path d="M244.4,189.5l-67.7,181.7H200l19.5-55.3h69l19.9,55.3h23.3l-67.7-181.7H244.4z M226.4,296.8l27.7-77.4l27.4,77.4H226.4z"/>
	<path d="M481.9,338.5c10.5-16.2,15.8-35.2,15.8-56.5c0-26.6-7.8-48.9-23.1-66.3c-15.5-17.6-35.8-26.5-60.3-26.5
		c-24.6,0-44.9,8.9-60.3,26.5c-15.3,17.5-23.1,39.8-23.1,66.3c0,26.6,7.8,48.9,23.1,66.3c15.3,17.4,35.4,26.3,59.6,26.5
		c19.7,8.1,41.6,15,65.3,20.5l3.1,0.7l7.9-21l-4.9-0.3c-14-0.7-26.8-3-38.3-6.6C461,362.5,472.9,352.5,481.9,338.5z M414.2,355.4
		c-18.3,0-32.9-7-44.5-21.3c-11.7-14.3-17.6-31.8-17.6-52.1c0-20.2,5.9-37.8,17.6-52.1c11.7-14.3,26.2-21.3,44.5-21.3
		c18.3,0,32.9,7,44.5,21.3c11.7,14.3,17.6,31.9,17.6,52.1c0,20.2-5.9,37.8-17.6,52.1C447.1,348.4,432.5,355.4,414.2,355.4z"/>
</g>
</svg>
